<?xml version="1.0" encoding="UTF-8" standalone="no"?><!DOCTYPE svg PUBLIC "-//W3C//DTD SVG 1.1//EN" "http://www.w3.org/Graphics/SVG/1.1/DTD/svg11.dtd"><svg width="100%" height="100%" viewBox="0 0 21 17" version="1.1" xmlns="http://www.w3.org/2000/svg" xmlns:xlink="http://www.w3.org/1999/xlink" xml:space="preserve" style="fill-rule:evenodd;clip-rule:evenodd;stroke-linejoin:round;stroke-miterlimit:1.41421;"><rect id="Artboard1" x="-519.792" y="-494" width="1280" height="601.358" style="fill:none;"/><path id="Arrow.-Right.-Icon" d="M3.637,8.346l11.217,0l-4.142,4.212c-0.383,0.392 -0.383,1.025 0,1.413c0.384,0.392 1.005,0.392 1.388,0.004l5.783,-5.892c0.196,-0.2 0.288,-0.462 0.284,-0.725c0.004,-0.262 -0.088,-0.529 -0.284,-0.729l-5.783,-5.887c-0.383,-0.388 -1.004,-0.388 -1.388,0c-0.383,0.391 -0.383,1.025 0,1.412l4.142,4.217l-11.217,0c-0.533,0 -0.97,0.442 -0.97,0.987c0,0.546 0.437,0.988 0.97,0.988l0,0Z" style="fill:#fff;"/></svg>