<?xml version="1.0" encoding="UTF-8" standalone="no"?><!DOCTYPE svg PUBLIC "-//W3C//DTD SVG 1.1//EN" "http://www.w3.org/Graphics/SVG/1.1/DTD/svg11.dtd"><svg width="100%" height="100%" viewBox="0 0 5 5" version="1.1" xmlns="http://www.w3.org/2000/svg" xmlns:xlink="http://www.w3.org/1999/xlink" xml:space="preserve" style="fill-rule:evenodd;clip-rule:evenodd;stroke-linejoin:round;stroke-miterlimit:1.41421;"><rect id="Artboard1" x="-119.23" y="-118.32" width="307.2" height="144.326" style="fill:none;"/><path id="Arrow-Right-Icon" d="M2.272,3.637l0,-2.692l1.011,0.994c0.094,0.092 0.246,0.092 0.339,0c0.094,-0.092 0.094,-0.241 0,-0.333l-1.413,-1.387c-0.048,-0.048 -0.111,-0.07 -0.174,-0.069c0,0 0,0 0,0c0,0 0,0 -0.001,0c-0.062,-0.001 -0.126,0.021 -0.174,0.069l-1.413,1.387c-0.094,0.092 -0.094,0.241 0,0.333c0.094,0.092 0.245,0.092 0.339,0l1.012,-0.994l0,2.692c0,0.129 0.106,0.233 0.237,0.233c0.13,0 0.237,-0.104 0.237,-0.233Z" style="fill:#4ecea6;"/></svg>