<?xml version="1.0" encoding="UTF-8" standalone="no"?><!DOCTYPE svg PUBLIC "-//W3C//DTD SVG 1.1//EN" "http://www.w3.org/Graphics/SVG/1.1/DTD/svg11.dtd"><svg width="100%" height="100%" viewBox="0 0 88 71" version="1.1" xmlns="http://www.w3.org/2000/svg" xmlns:xlink="http://www.w3.org/1999/xlink" xml:space="preserve" style="fill-rule:evenodd;clip-rule:evenodd;stroke-linejoin:round;stroke-miterlimit:1.41421;"><rect id="Artboard1" x="-2165.8" y="-2058.33" width="5333.33" height="2505.66" style="fill:none;"/><path id="Arrow.2e..-Right.2e..-Icon" d="M71.655,34.775l-46.738,0l17.259,17.55c1.595,1.633 1.595,4.271 0,5.888c-1.6,1.633 -4.188,1.633 -5.784,0.016l-24.096,-24.55c-0.816,-0.833 -1.2,-1.925 -1.183,-3.021c-0.017,-1.091 0.367,-2.204 1.183,-3.037l24.096,-24.529c1.596,-1.617 4.184,-1.617 5.784,0c1.595,1.629 1.595,4.27 0,5.883l-17.259,17.571l46.738,0c2.221,0 4.041,1.841 4.041,4.112c0,2.275 -1.82,4.117 -4.041,4.117l0,0Z" style="fill:#fff;"/></svg>