<?xml version="1.0" encoding="UTF-8" standalone="no"?><!DOCTYPE svg PUBLIC "-//W3C//DTD SVG 1.1//EN" "http://www.w3.org/Graphics/SVG/1.1/DTD/svg11.dtd"><svg width="100%" height="100%" viewBox="0 0 584 421" version="1.1" xmlns="http://www.w3.org/2000/svg" xmlns:xlink="http://www.w3.org/1999/xlink" xml:space="preserve" style="fill-rule:evenodd;clip-rule:evenodd;stroke-linecap:round;stroke-linejoin:round;stroke-miterlimit:1.5;"><g id="Artboard1"><rect x="-3874.12" y="-1912.5" width="5333.33" height="2505.67" style="fill:none;"/><g><path d="M526.738,370.696c8.6,0.068 15.637,-6.86 15.705,-15.461l2.37,-300.279c0.068,-8.6 -6.859,-15.639 -15.46,-15.707l-466.884,-3.684c-8.601,-0.068 -15.639,6.861 -15.707,15.461l-2.37,300.278c-0.067,8.602 6.86,15.639 15.461,15.707l466.885,3.685Z" style="fill:#fff;stroke:#8675dd;stroke-width:5.21px;"/><path d="M520.304,343.915l2.205,-279.36l-450.739,-3.558l-2.205,279.361l450.739,3.557Z" style="fill:#fff;stroke:#8675dd;stroke-width:5.22px;"/><path d="M569.17,388.107l0.133,-16.87l-548.557,-4.329l-0.133,16.87l548.557,4.329Z" style="fill:#fff;"/><path d="M569.324,368.629c0.225,0.031 0.456,0.034 0.674,0.094c0.89,0.246 1.598,0.965 1.83,1.859c0.057,0.219 0.056,0.45 0.083,0.675l-0.133,16.87c-0.031,0.225 -0.033,0.456 -0.094,0.675c-0.246,0.89 -0.965,1.597 -1.859,1.829c-0.219,0.057 -0.45,0.056 -0.675,0.084l-548.558,-4.329c-0.224,-0.032 -0.455,-0.034 -0.674,-0.095c-0.89,-0.246 -1.598,-0.964 -1.83,-1.858c-0.057,-0.22 -0.055,-0.451 -0.083,-0.676l0.133,-16.87c0.031,-0.225 0.034,-0.455 0.094,-0.674c0.246,-0.89 0.965,-1.598 1.859,-1.83c0.22,-0.057 0.45,-0.055 0.676,-0.083c182.852,1.443 365.705,2.886 548.557,4.329Zm-546.083,12.561l543.342,4.288l0.092,-11.654l-543.342,-4.288c-0.03,3.885 -0.061,7.77 -0.092,11.654Z" style="fill:#8675dd;fill-rule:nonzero;"/><path d="M304.82,48.664c0,-0.99 -0.804,-1.792 -1.793,-1.792l-7.239,0c-0.989,0 -1.793,0.802 -1.793,1.792l0,3.585c0,0.99 0.804,1.792 1.793,1.792l7.239,0c0.989,0 1.793,-0.802 1.793,-1.792l0,-3.585Z" style="fill:#fff;stroke:#8675dd;stroke-width:3.78px;"/><path d="M283.974,292.038l-87.038,0l0,-87.068l25.903,0c0,9.725 7.876,17.632 17.631,17.632c9.725,0 17.602,-7.907 17.602,-17.632l25.902,0l0,27.356c9.725,0 17.632,7.877 17.632,17.632c0,9.725 -7.907,17.602 -17.632,17.602l0,24.478Z" style="fill:none;stroke:#4ecea6;stroke-width:3.45px;"/><path d="M371.07,206.781l-1.084,87.032l-87.061,-1.085l0.322,-25.9c9.724,0.121 17.729,-7.657 17.85,-17.411c0.121,-9.724 -7.687,-17.699 -17.411,-17.82l0.323,-25.9l27.354,0.341c0.121,-9.724 8.096,-17.533 17.85,-17.411c9.724,0.121 17.502,8.125 17.381,17.849l24.476,0.305Z" style="fill:none;stroke:#4ecea6;stroke-width:3.45px;"/><path d="M197.15,204.836l1.084,-87.032l87.918,1.095l-0.323,25.901c-9.819,-0.122 -17.902,7.654 -18.023,17.409c-0.121,9.724 7.765,17.699 17.585,17.821l-0.323,25.901l-27.624,-0.344c-0.121,9.724 -8.173,17.531 -18.023,17.408c-9.82,-0.122 -17.675,-8.127 -17.554,-17.851l-24.717,-0.308Z" style="fill:none;stroke:#4ecea6;stroke-width:3.47px;"/></g></g></svg>