<?xml version="1.0" encoding="UTF-8" standalone="no"?>
<!DOCTYPE svg PUBLIC "-//W3C//DTD SVG 1.1//EN" "http://www.w3.org/Graphics/SVG/1.1/DTD/svg11.dtd">
<svg width="100%" height="100%" viewBox="0 0 209 159" version="1.1" xmlns="http://www.w3.org/2000/svg" xmlns:xlink="http://www.w3.org/1999/xlink" xml:space="preserve" style="fill-rule:evenodd;clip-rule:evenodd;stroke-linecap:round;stroke-linejoin:round;stroke-miterlimit:1.5;">
    <g transform="matrix(1,0,0,1,-2909,-396)">
        <g id="Artboard1" transform="matrix(1.18391,0,0,1.04947,2864.21,0)">
            <rect x="0" y="0" width="1280" height="800" style="fill:none;"/>
            <g transform="matrix(0.844657,0,0,7.03745,-727.392,-551.745)">
                <g transform="matrix(0.797526,0,0,0.666548,527.439,103.126)">
                    <g transform="matrix(0.532066,0.000680252,-0.0259188,0.532066,321.167,-8.66641)">
                        <g transform="matrix(6.34598e-17,0.210812,-0.999442,1.24485e-17,941.767,7.80833)">
                            <path d="M665.83,236.357C665.83,229.663 661.656,224.229 656.514,224.229L477.011,224.229C471.87,224.229 467.695,229.663 467.695,236.357L467.695,599.742C467.695,606.436 471.87,611.871 477.011,611.871L656.514,611.871C661.656,611.871 665.83,606.436 665.83,599.742L665.83,236.357Z" style="fill:white;"/>
                        </g>
                        <g transform="matrix(6.41848e-17,0.210812,-0.999442,1.25767e-17,941.767,7.80833)">
                            <path d="M466.564,599.747C466.564,478.5 464.811,357.232 466.567,236.006C466.573,235.775 466.582,235.544 466.594,235.312C466.662,234.239 466.817,233.18 467.073,232.155C467.71,229.6 468.939,227.316 470.562,225.657C471.257,224.948 472.019,224.352 472.828,223.891C473.735,223.373 474.699,223.028 475.681,222.864C476.077,222.798 476.476,222.766 476.875,222.756C536.843,222.14 596.821,221.55 656.783,222.759C657.182,222.777 657.579,222.814 657.975,222.887C658.954,223.067 659.912,223.427 660.813,223.958C661.579,224.409 662.303,224.982 662.964,225.658C663.489,226.196 663.975,226.799 664.412,227.457C665.551,229.167 666.352,231.241 666.722,233.453C666.873,234.35 666.947,235.263 666.961,236.182C667.561,357.483 668.715,478.81 666.958,600.092C666.933,601.121 666.83,602.142 666.632,603.139C666.064,606.014 664.757,608.608 662.963,610.442C662.268,611.151 661.506,611.748 660.697,612.209C659.79,612.726 658.826,613.071 657.844,613.235C657.448,613.301 657.05,613.333 656.65,613.343C596.683,613.959 536.704,614.549 476.742,613.34C476.343,613.322 475.946,613.285 475.551,613.212C474.571,613.032 473.614,612.672 472.713,612.142C471.946,611.691 471.222,611.117 470.561,610.441C468.837,608.675 467.56,606.211 466.96,603.464C466.745,602.477 466.622,601.464 466.577,600.44C466.569,600.209 466.565,599.978 466.564,599.747ZM468.83,600.017C468.868,601.565 469.147,603.086 469.678,604.474C469.985,605.279 470.371,606.033 470.824,606.712C471.21,607.293 471.644,607.82 472.117,608.28C473.02,609.16 474.063,609.794 475.163,610.124C475.734,610.296 476.317,610.384 476.904,610.396C536.843,610.993 596.797,611.921 656.726,610.393C657.446,610.364 658.16,610.223 658.851,609.956C660.465,609.332 661.912,608.041 662.952,606.318C663.379,605.609 663.738,604.831 664.016,604.005C664.454,602.703 664.677,601.3 664.697,599.88C665.321,478.617 666.476,357.326 664.695,236.082C664.659,234.621 664.41,233.184 663.934,231.858C663.641,231.042 663.268,230.276 662.828,229.582C662.495,229.056 662.122,228.571 661.718,228.136C660.665,227.006 659.402,226.229 658.063,225.893C657.588,225.773 657.105,225.713 656.622,225.703C596.683,225.107 536.729,224.178 476.799,225.706C476.079,225.735 475.366,225.876 474.674,226.143C473.06,226.767 471.613,228.058 470.573,229.781C470.146,230.491 469.787,231.269 469.509,232.094C469.071,233.396 468.848,234.8 468.828,236.219C468.249,357.483 467.095,478.772 468.83,600.017Z" style="fill:rgb(134,117,221);fill-rule:nonzero;"/>
                        </g>
                        <g transform="matrix(8.01765e-17,0.286099,-1.68765,2.11283e-17,1229,-25.6687)">
                            <rect x="472.804" y="313.232" width="123.053" height="207.759" style="fill:white;"/>
                        </g>
                        <g transform="matrix(7.97973e-17,0.286099,-1.68765,2.1684e-17,1229,-25.6687)">
                            <path d="M471.97,313.232C471.98,313.157 471.98,313.079 471.999,313.006C472.075,312.708 472.303,312.469 472.588,312.389C472.658,312.369 472.732,312.369 472.804,312.359L595.857,312.359C595.929,312.369 596.003,312.369 596.073,312.389C596.359,312.469 596.587,312.708 596.663,313.006C596.682,313.079 596.682,313.157 596.691,313.232L596.691,520.991C596.682,521.066 596.682,521.143 596.663,521.217C596.587,521.515 596.359,521.754 596.073,521.834C596.003,521.854 595.929,521.854 595.857,521.864L472.804,521.864C472.732,521.854 472.658,521.854 472.588,521.834C472.303,521.754 472.075,521.515 471.999,521.217C471.98,521.143 471.98,521.066 471.97,520.991C471.97,451.738 471.97,382.485 471.97,313.232ZM595.023,520.118L595.023,314.105L473.638,314.105L473.638,520.118C514.1,520.118 554.562,520.118 595.023,520.118Z" style="fill:rgb(134,117,221);fill-rule:nonzero;"/>
                        </g>
                        <g transform="matrix(7.68183e-19,0.0173489,-1.68765,2.22547e-17,1191.19,139.997)">
                            <rect x="472.804" y="313.232" width="123.053" height="207.759" style="fill:white;"/>
                        </g>
                        <g transform="matrix(7.58942e-19,0.0173489,-1.68765,2.25514e-17,1191.19,139.997)">
                            <path d="M459.05,313.232C459.206,313.157 459.209,313.079 459.519,313.006C460.779,312.708 464.541,312.469 469.244,312.389C470.4,312.369 471.617,312.369 472.804,312.359L595.857,312.359C597.044,312.369 598.261,312.369 599.417,312.389C604.12,312.469 607.882,312.708 609.142,313.006C609.452,313.079 609.454,313.157 609.611,313.232L609.611,520.991C609.455,521.066 609.452,521.143 609.142,521.217C607.882,521.515 604.12,521.754 599.417,521.834C598.261,521.854 597.044,521.854 595.857,521.864L472.804,521.864C471.617,521.854 470.4,521.853 469.244,521.834C464.54,521.754 460.779,521.515 459.519,521.217C459.209,521.143 459.206,521.066 459.05,520.991C459.05,451.738 459.05,382.485 459.05,313.232ZM582.104,520.118L582.104,314.105L486.557,314.105L486.557,520.118C518.406,520.118 550.255,520.118 582.104,520.118Z" style="fill:rgb(134,117,221);fill-rule:nonzero;"/>
                        </g>
                    </g>
                    <g transform="matrix(0.0288492,0.0277857,-1.05868,0.0288492,704.779,43.3175)">
                        <g transform="matrix(-0.0318868,-0.161922,0.999491,-0.00516581,51.8015,159.31)">
                            <path d="M650.525,456.432L826.365,560.1L804.364,419.09L740.107,508.868L725.269,608.921" style="fill:none;stroke:rgb(134,117,221);stroke-width:9.01px;"/>
                        </g>
                        <g transform="matrix(-0.0318868,-0.161922,0.999491,-0.00516581,51.8015,159.31)">
                            <path d="M650.095,454.739L725.041,610.288L826.365,560.578" style="fill:none;stroke:rgb(134,117,221);stroke-width:9.01px;"/>
                        </g>
                        <g transform="matrix(-0.0318868,-0.161922,0.999491,-0.00516581,-176.482,161.48)">
                            <path d="M810.883,647.762L656.075,683.512L586.632,790.075L729.298,838.883L599.169,856.269L586.632,790.075" style="fill:none;stroke:rgb(134,117,221);stroke-width:9.01px;"/>
                        </g>
                        <g transform="matrix(1,0,0,0.162005,0,0)">
                            <path d="M585.403,139.553L732.278,149.22L638.66,239.784L660.246,370.959L732.278,149.22" style="fill:none;stroke:rgb(134,117,221);stroke-width:9.01px;"/>
                        </g>
                    </g>
                    <g transform="matrix(0.381329,0,0,0.0595754,462.555,36.6458)">
                        <path d="M665.83,256.81C665.83,238.828 651.751,224.229 634.41,224.229L499.116,224.229C481.774,224.229 467.695,238.828 467.695,256.81L467.695,579.289C467.695,597.271 481.774,611.871 499.116,611.871L634.41,611.871C651.751,611.871 665.83,597.271 665.83,579.289L665.83,256.81Z" style="fill:white;"/>
                    </g>
                    <g transform="matrix(0.381329,0,0,0.0595754,462.555,36.6458)">
                        <path d="M634.841,222.1C635.981,222.123 637.117,222.19 638.249,222.324C640.864,222.634 643.443,223.267 645.915,224.206C651.227,226.224 656.019,229.661 659.719,234.099C662.456,237.381 664.599,241.186 665.991,245.279C666.867,247.858 667.445,250.545 667.712,253.265C667.814,254.295 667.864,255.327 667.882,256.361C668.779,364.15 668.779,471.95 667.882,579.738C667.864,580.772 667.814,581.805 667.712,582.834C667.445,585.554 666.867,588.242 665.991,590.82C664.287,595.831 661.457,600.412 657.791,604.123C654.414,607.541 650.346,610.21 645.915,611.893C643.443,612.832 640.864,613.465 638.249,613.775C637.117,613.91 635.981,613.977 634.841,613.999C589.456,614.303 544.069,614.304 498.684,613.999C497.545,613.977 496.409,613.91 495.276,613.775C492.661,613.465 490.081,612.833 487.609,611.893C484.313,610.639 481.212,608.844 478.451,606.593C473.471,602.533 469.642,597.018 467.535,590.82C466.658,588.242 466.08,585.554 465.813,582.834C465.712,581.805 465.661,580.772 465.643,579.738C464.746,471.95 464.746,364.15 465.643,256.361C465.661,255.327 465.712,254.295 465.813,253.265C466.08,250.545 466.658,247.858 467.535,245.279C469.641,239.081 473.471,233.567 478.451,229.506C481.212,227.255 484.313,225.46 487.609,224.206C490.081,223.266 492.661,222.634 495.276,222.324C496.409,222.19 497.545,222.123 498.684,222.1C544.069,221.795 589.456,221.796 634.841,222.1ZM499.122,226.36C497.992,226.367 496.866,226.425 495.744,226.558C493.452,226.83 491.191,227.384 489.025,228.208C486.134,229.308 483.413,230.882 480.992,232.857C476.623,236.42 473.26,241.257 471.411,246.696C470.349,249.822 469.809,253.105 469.753,256.417C468.856,364.168 468.856,471.931 469.753,579.682C469.809,582.994 470.349,586.277 471.411,589.403C473.26,594.841 476.622,599.68 480.992,603.242C483.414,605.217 486.133,606.791 489.025,607.892C491.191,608.716 493.452,609.269 495.744,609.541C496.738,609.659 497.735,609.717 498.736,609.737C544.086,610.042 589.439,610.041 634.79,609.737C635.914,609.715 637.034,609.642 638.149,609.495C640.316,609.209 642.45,608.67 644.501,607.891C649.161,606.121 653.364,603.105 656.61,599.212C659.012,596.332 660.893,592.995 662.114,589.403C663.177,586.277 663.716,582.994 663.772,579.682C664.669,471.931 664.669,364.168 663.772,256.417C663.716,253.106 663.176,249.822 662.114,246.696C660.893,243.104 659.011,239.767 656.61,236.887C653.365,232.994 649.16,229.978 644.501,228.208C642.45,227.429 640.316,226.89 638.149,226.605C637.034,226.457 635.914,226.384 634.79,226.362C589.568,226.059 544.344,226.36 499.122,226.36Z" style="fill:rgb(134,117,221);fill-rule:nonzero;"/>
                    </g>
                    <g transform="matrix(0.517511,0,0,0.0822887,402,26.55)">
                        <rect x="472.804" y="313.232" width="123.053" height="207.759" style="fill:white;"/>
                    </g>
                    <g transform="matrix(0.517511,0,0,0.0822887,402,26.55)">
                        <path d="M596.194,311.728C596.301,311.766 596.413,311.792 596.514,311.842C596.926,312.044 597.232,312.434 597.334,312.889C597.359,313.001 597.359,313.118 597.372,313.232L597.372,520.991C597.359,521.105 597.359,521.222 597.334,521.334C597.232,521.789 596.926,522.179 596.514,522.381C596.24,522.516 596.154,522.5 595.857,522.534L472.804,522.534C472.507,522.5 472.421,522.516 472.147,522.381C471.735,522.179 471.429,521.789 471.328,521.334C471.303,521.222 471.302,521.105 471.29,520.991L471.29,313.232C471.302,313.118 471.303,313.001 471.328,312.889C471.429,312.434 471.735,312.044 472.147,311.842C472.421,311.707 472.507,311.723 472.804,311.689L595.857,311.689C595.97,311.702 596.082,311.715 596.194,311.728ZM474.318,314.775L474.318,519.448L594.343,519.448L594.343,314.775C554.335,314.775 514.327,314.775 474.318,314.775Z" style="fill:rgb(134,117,221);fill-rule:nonzero;"/>
                    </g>
                    <g transform="matrix(0.522168,0,0,0.0845936,399.798,25.3492)">
                        <circle cx="535.893" cy="543.719" r="10.822" style="fill:white;stroke:rgb(134,117,221);stroke-width:3px;"/>
                    </g>
                    <g transform="matrix(0.522168,0,0,0.0845936,401.85,25.1087)">
                        <path d="M548.629,307.508C548.629,306.723 547.992,306.087 547.208,306.087L487.277,306.087C486.493,306.087 485.856,306.723 485.856,307.508L485.856,310.349C485.856,311.134 486.493,311.77 487.277,311.77L547.208,311.77C547.992,311.77 548.629,311.134 548.629,310.349L548.629,307.508Z" style="fill:white;stroke:rgb(134,117,221);stroke-width:3px;"/>
                    </g>
                    <g transform="matrix(0.522168,0,0,0.0845936,400.991,25.1087)">
                        <path d="M567.163,307.508C567.163,306.723 566.526,306.087 565.742,306.087L560.004,306.087C559.22,306.087 558.583,306.723 558.583,307.508L558.583,310.349C558.583,311.134 559.22,311.77 560.004,311.77L565.742,311.77C566.526,311.77 567.163,311.134 567.163,310.349L567.163,307.508Z" style="fill:white;stroke:rgb(134,117,221);stroke-width:3px;"/>
                    </g>
                    <g transform="matrix(0.522168,0,0,0.0845936,304.717,23.0456)">
                        <path d="M567.163,307.508C567.163,306.723 566.526,306.087 565.742,306.087L560.004,306.087C559.22,306.087 558.583,306.723 558.583,307.508L558.583,310.349C558.583,311.134 559.22,311.77 560.004,311.77L565.742,311.77C566.526,311.77 567.163,311.134 567.163,310.349L567.163,307.508Z" style="fill:white;stroke:rgb(134,117,221);stroke-width:3px;"/>
                    </g>
                    <g transform="matrix(0.0259267,0.0249709,-0.951435,0.0259267,702.668,44.6488)">
                        <g transform="matrix(-0.0318868,-0.161922,0.999491,-0.00516581,51.8015,159.31)">
                            <path d="M650.525,456.432L826.365,560.1L804.364,419.09L740.107,508.868L725.269,608.921" style="fill:none;stroke:rgb(78,206,166);stroke-width:10.03px;"/>
                        </g>
                        <g transform="matrix(-0.0318868,-0.161922,0.999491,-0.00516581,51.8015,159.31)">
                            <path d="M650.095,454.739L725.041,610.288L826.365,560.578" style="fill:none;stroke:rgb(78,206,166);stroke-width:10.03px;"/>
                        </g>
                        <g transform="matrix(-0.0318868,-0.161922,0.999491,-0.00516581,-176.482,161.48)">
                            <path d="M810.883,647.762L656.075,683.512L586.632,790.075L729.298,838.883L599.169,856.269L586.632,790.075" style="fill:none;stroke:rgb(78,206,166);stroke-width:10.03px;"/>
                        </g>
                        <g transform="matrix(1,0,0,0.162005,0,0)">
                            <path d="M585.403,139.553L732.278,149.22L638.66,239.784L660.246,370.959L732.278,149.22" style="fill:none;stroke:rgb(78,206,166);stroke-width:10.03px;"/>
                        </g>
                    </g>
                </g>
                <g transform="matrix(1,0,0,0.135399,-4276.92,-2.14727)">
                    <path d="M5214.63,1032.64L5254.78,1032.64" style="fill:none;stroke:rgb(78,206,166);stroke-width:1.04px;"/>
                </g>
                <g transform="matrix(0.332837,0,0,0.135399,-792.406,-1.37183)">
                    <path d="M5214.63,1032.64L5254.78,1032.64" style="fill:none;stroke:rgb(78,206,166);stroke-width:1.4px;"/>
                </g>
                <g transform="matrix(1.1118,0,0,0.135399,-4846.31,-0.596388)">
                    <path d="M5214.63,1032.64L5254.78,1032.64" style="fill:none;stroke:rgb(134,117,221);stroke-width:0.99px;"/>
                </g>
                <g transform="matrix(1.1118,0,0,0.135399,-4852.18,5.02945)">
                    <path d="M5214.63,1032.64L5254.78,1032.64" style="fill:none;stroke:rgb(134,117,221);stroke-width:0.99px;"/>
                </g>
                <g transform="matrix(1.1118,0,0,0.135399,-4846.31,0.179052)">
                    <path d="M5214.63,1032.64L5254.78,1032.64" style="fill:none;stroke:rgb(134,117,221);stroke-width:0.99px;"/>
                </g>
                <g transform="matrix(1.1118,0,0,0.135399,-4852.18,5.80489)">
                    <path d="M5214.63,1032.64L5254.78,1032.64" style="fill:none;stroke:rgb(134,117,221);stroke-width:0.99px;"/>
                </g>
                <g transform="matrix(1.1118,0,0,0.135399,-4846.31,0.954492)">
                    <path d="M5214.63,1032.64L5254.78,1032.64" style="fill:none;stroke:rgb(134,117,221);stroke-width:0.99px;"/>
                </g>
                <g transform="matrix(0.362762,0,0,0.135399,-948.458,1.89065)">
                    <path d="M5214.63,1032.64L5254.78,1032.64" style="fill:none;stroke:rgb(78,206,166);stroke-width:1.38px;"/>
                </g>
                <g transform="matrix(0.374247,0,0,0.135399,-1015.3,2.66609)">
                    <path d="M5214.63,1032.64L5254.78,1032.64" style="fill:none;stroke:rgb(78,206,166);stroke-width:1.38px;"/>
                </g>
                <g transform="matrix(0.600504,0,0,0.135399,-2195.94,4.37769)">
                    <path d="M5214.63,1032.64L5254.78,1032.64" style="fill:none;stroke:rgb(78,206,166);stroke-width:1.46px;"/>
                </g>
                <g transform="matrix(0.600504,0,0,0.135399,-2195.14,6.45665)">
                    <path d="M5214.63,1032.64L5254.78,1032.64" style="fill:none;stroke:rgb(78,206,166);stroke-width:1.46px;"/>
                </g>
            </g>
        </g>
    </g>
</svg>
