<?xml version="1.0" encoding="UTF-8" standalone="no"?>
<!DOCTYPE svg PUBLIC "-//W3C//DTD SVG 1.1//EN" "http://www.w3.org/Graphics/SVG/1.1/DTD/svg11.dtd">
<svg width="100%" height="100%" viewBox="0 0 209 159" version="1.1" xmlns="http://www.w3.org/2000/svg" xmlns:xlink="http://www.w3.org/1999/xlink" xml:space="preserve" style="fill-rule:evenodd;clip-rule:evenodd;stroke-linecap:round;stroke-linejoin:round;stroke-miterlimit:1.5;">
    <g transform="matrix(1,0,0,1,-2906,-401)">
        <g id="Artboard1" transform="matrix(1.18391,0,0,1.04947,2864.21,0)">
            <rect x="0" y="0" width="1280" height="800" style="fill:none;"/>
            <g transform="matrix(1,0,0,1,-185.966,7.66599)">
                <g transform="matrix(-0.00368074,0.526147,-0.358219,-0.00318915,457.048,148.766)">
                    <path d="M667.443,335.28C667.971,423.595 668.276,511.857 666.958,600.093C666.945,600.611 666.916,601.128 666.86,601.641C666.723,602.917 666.445,604.167 666.037,605.34C665.691,606.337 665.251,607.279 664.732,608.139C663.35,610.427 661.406,612.117 659.247,612.874C658.442,613.156 657.618,613.306 656.786,613.34C596.788,615.174 536.751,614.547 476.744,613.34C476.257,613.32 475.772,613.265 475.291,613.161C474.319,612.95 473.373,612.558 472.485,612.003C471.803,611.578 471.156,611.049 470.561,610.441C470.036,609.903 469.55,609.3 469.113,608.643C467.975,606.934 467.171,604.856 466.803,602.645C466.662,601.805 466.588,600.952 466.567,600.093C466.564,599.918 466.564,599.92 466.564,599.747C466.564,478.5 464.956,357.235 466.567,236.007C466.573,235.775 466.581,235.544 466.594,235.313C466.71,233.464 467.1,231.659 467.767,230.018C468.178,229.005 468.687,228.062 469.278,227.214C470.642,225.257 472.437,223.846 474.4,223.184C475.209,222.911 476.042,222.773 476.877,222.756L481.731,222.707L481.749,225.639L476.797,225.706C475.673,225.751 474.573,226.083 473.552,226.699C472.986,227.04 472.451,227.474 471.961,227.975C471.496,228.451 471.072,228.991 470.696,229.583C469.828,230.949 469.23,232.599 468.974,234.34C468.882,234.96 468.836,235.588 468.828,236.22C468.108,357.482 467.012,478.775 468.83,600.018C468.866,601.521 469.131,603.001 469.634,604.358C469.92,605.13 470.278,605.857 470.697,606.518C471.03,607.045 471.404,607.528 471.808,607.963C472.833,609.066 474.061,609.831 475.363,610.181C475.87,610.317 476.386,610.385 476.904,610.396C536.842,610.994 596.8,612.226 656.724,610.393C657.378,610.367 658.026,610.249 658.659,610.028C660.349,609.436 661.871,608.107 662.952,606.317C663.359,605.643 663.703,604.905 663.975,604.124C664.44,602.788 664.675,601.344 664.697,599.88C665.081,511.714 665.775,423.536 665.468,335.308L667.443,335.28Z" style="fill:rgb(134,117,221);"/>
                </g>
                <g transform="matrix(-0.00499523,0.714049,-0.604884,-0.00538515,560.582,66.1297)">
                    <path d="M596.691,368.888L596.692,520.991C596.682,521.066 596.682,521.143 596.663,521.217C596.587,521.515 596.359,521.754 596.073,521.834C596.003,521.853 595.93,521.854 595.858,521.863L472.804,521.864C472.732,521.854 472.658,521.854 472.588,521.834C472.303,521.754 472.075,521.515 471.999,521.217C471.98,521.144 471.98,521.066 471.97,520.991C471.97,451.738 471.97,382.485 471.97,313.232C471.98,313.156 471.98,313.079 471.999,313.006L472.058,312.899L472.382,355.836C472.396,356.38 472.432,356.922 472.502,357.461C472.63,358.452 472.859,359.428 473.184,360.369L473.638,361.447L473.638,520.118C514.1,520.118 554.562,520.118 595.024,520.118L595.023,368.906L596.691,368.888Z" style="fill:rgb(134,117,221);"/>
                </g>
                <g transform="matrix(-0.000302908,0.0432995,-0.511645,-0.00455506,495.504,479.294)">
                    <path d="M459.051,313.232C459.208,313.157 459.21,313.079 459.52,313.006C460.78,312.708 464.542,312.469 469.245,312.389C470.401,312.369 471.618,312.369 472.805,312.359L595.857,312.359C597.044,312.369 598.261,312.369 599.417,312.389C604.12,312.469 607.882,312.708 609.142,313.006C609.452,313.08 609.454,313.157 609.611,313.232L609.612,520.991C609.456,521.066 609.453,521.144 609.143,521.217C607.883,521.515 604.122,521.754 599.418,521.834C598.262,521.854 597.045,521.854 595.858,521.864L472.806,521.864C471.619,521.854 470.402,521.854 469.246,521.834C464.543,521.754 460.782,521.515 459.521,521.217C459.212,521.143 459.209,521.066 459.053,520.991C459.052,451.738 459.052,382.485 459.051,313.232ZM582.105,520.118L582.104,314.105L486.558,314.105L486.56,520.118C518.408,520.118 550.257,520.118 582.105,520.118Z" style="fill:rgb(134,117,221);fill-rule:nonzero;"/>
                </g>
                <g transform="matrix(0.256877,0,0,0.279456,214.882,339.45)">
                    <path d="M625.263,222.1L634.841,222.1C636.121,222.125 637.397,222.209 638.668,222.376C641.14,222.702 643.576,223.317 645.915,224.206C649.968,225.746 653.72,228.11 656.914,231.12C661.003,234.975 664.154,239.873 665.991,245.279C666.82,247.72 667.384,250.259 667.667,252.83C667.796,254.004 667.862,255.183 667.882,256.365C668.48,364.153 668.481,471.946 667.882,579.734C667.862,580.916 667.796,582.095 667.667,583.27C667.384,585.841 666.821,588.38 665.991,590.821C664.152,596.227 661.004,601.125 656.914,604.98C653.72,607.99 649.968,610.353 645.915,611.893C643.444,612.832 640.865,613.464 638.25,613.775C637.118,613.91 635.982,613.977 634.842,613.999C589.457,614.337 544.069,614.338 498.683,613.999C497.544,613.977 496.408,613.91 495.276,613.775C492.796,613.48 490.35,612.897 487.996,612.037C482.401,609.994 477.376,606.381 473.547,601.686C471.107,598.695 469.161,595.279 467.817,591.618C466.882,589.072 466.238,586.407 465.909,583.704C465.748,582.387 465.668,581.064 465.643,579.738L465.617,570.465L469.727,570.472L469.753,579.682C469.775,580.849 469.845,582.011 469.986,583.169C470.275,585.537 470.839,587.872 471.658,590.102C472.837,593.313 474.545,596.31 476.685,598.933C480.045,603.052 484.452,606.225 489.361,608.017C491.426,608.771 493.57,609.282 495.745,609.541C496.739,609.659 497.736,609.717 498.737,609.737C544.086,610.076 589.439,610.075 634.789,609.737C635.789,609.717 636.787,609.659 637.781,609.541C640.074,609.268 642.334,608.715 644.501,607.891C648.056,606.54 651.347,604.466 654.149,601.826C657.737,598.444 660.501,594.146 662.114,589.403C663.177,586.279 663.717,582.995 663.772,579.685C664.371,471.93 664.37,364.169 663.772,256.414C663.717,253.104 663.176,249.821 662.114,246.696C660.502,241.953 657.737,237.656 654.149,234.274C651.347,231.633 648.056,229.559 644.501,228.208C642.451,227.429 640.316,226.89 638.15,226.605C637.035,226.458 635.914,226.384 634.791,226.362L625.263,226.362L625.263,222.1Z" style="fill:rgb(134,117,221);"/>
                </g>
                <g transform="matrix(0.256877,0,0,0.317215,214.882,319.08)">
                    <path d="M465.535,539.477L469.645,539.511L469.717,566.777L465.606,566.746L465.535,539.477Z" style="fill:rgb(134,117,221);"/>
                </g>
                <g transform="matrix(0.256877,0,0,0.279456,214.882,339.45)">
                    <path d="M596.929,226.115L596.927,226.362L499.121,226.36C497.868,226.367 496.619,226.441 495.376,226.605C493.328,226.874 491.308,227.371 489.361,228.082C484.341,229.915 479.845,233.192 476.459,237.447C474.424,240.003 472.796,242.901 471.658,245.998C470.838,248.227 470.275,250.563 469.986,252.93C469.845,254.088 469.775,255.25 469.753,256.417C469.237,349.381 469.165,442.348 469.634,535.248L465.524,535.215C465.055,442.357 465.126,349.357 465.643,256.362C465.668,255.035 465.748,253.713 465.909,252.396C466.238,249.692 466.881,247.026 467.817,244.48C469.114,240.95 470.97,237.647 473.289,234.734C476.576,230.603 480.782,227.283 485.448,225.203L596.929,226.115Z" style="fill:rgb(134,117,221);"/>
                </g>
                <g transform="matrix(0.256877,0,0,0.279456,214.882,339.45)">
                    <path d="M599.799,222.1L621.174,222.1L621.183,226.362L601.038,226.362L601.055,224.018C601.034,223.833 601.035,223.645 600.99,223.465C600.833,222.838 600.399,222.316 599.799,222.1Z" style="fill:rgb(134,117,221);"/>
                </g>
                <g transform="matrix(0.256877,0,0,0.279456,214.882,339.45)">
                    <path d="M469.634,535.248L469.645,539.511L465.535,539.477L465.524,535.215L469.634,535.248Z" style="fill:rgb(134,117,221);"/>
                </g>
                <g transform="matrix(0.256877,0,0,0.279456,214.882,339.45)">
                    <path d="M599.799,222.1C600.399,222.316 600.833,222.838 600.99,223.465C601.035,223.645 601.034,223.833 601.055,224.018L601.038,226.362L596.927,226.362L596.929,226.115L485.448,225.203L487.996,224.062C490.217,223.251 492.521,222.684 494.858,222.376C496.128,222.209 497.405,222.125 498.685,222.1L599.799,222.1Z" style="fill:rgb(134,117,221);"/>
                </g>
                <g transform="matrix(0.256877,0,0,0.279456,214.882,339.45)">
                    <path d="M469.717,566.777L469.727,570.472L465.617,570.465L465.606,566.746L469.717,566.777Z" style="fill:rgb(134,117,221);"/>
                </g>
                <g transform="matrix(0.256877,0,0,0.279456,214.882,339.45)">
                    <path d="M625.263,222.1L625.263,226.362L621.183,226.362L621.174,222.1L625.263,222.1Z" style="fill:rgb(134,117,221);"/>
                </g>
                <g transform="matrix(0.348614,0,0,0.385999,174.09,291.466)">
                    <path d="M596.195,311.728C596.302,311.766 596.413,311.792 596.515,311.842C596.927,312.044 597.233,312.435 597.334,312.889C597.36,313.001 597.36,313.118 597.372,313.232L597.372,520.991C597.36,521.106 597.36,521.222 597.334,521.334C597.233,521.789 596.927,522.179 596.515,522.381C596.241,522.516 596.155,522.5 595.858,522.534L472.805,522.534C472.508,522.5 472.422,522.516 472.148,522.381C471.736,522.179 471.43,521.789 471.328,521.334C471.303,521.222 471.303,521.106 471.29,520.991L471.29,313.232C471.303,313.118 471.303,313.001 471.328,312.889C471.43,312.435 471.736,312.044 472.148,311.842C472.422,311.707 472.508,311.723 472.805,311.689L595.858,311.689C595.97,311.702 596.083,311.715 596.195,311.728ZM474.319,314.775L474.319,519.448L594.344,519.448L594.344,314.775C554.336,314.775 514.327,314.775 474.319,314.775Z" style="fill:rgb(134,117,221);fill-rule:nonzero;"/>
                </g>
                <g transform="matrix(0.351751,0,0,0.396812,172.607,285.832)">
                    <path d="M536.211,531.401C536.733,531.42 537.251,531.459 537.768,531.539C538.969,531.723 540.14,532.086 541.235,532.613C542.572,533.257 543.785,534.145 544.81,535.217C545.768,536.219 546.556,537.387 547.127,538.65C547.671,539.855 548.017,541.144 548.152,542.459C548.291,543.807 548.205,545.178 547.902,546.498C547.321,549.026 545.916,551.339 543.957,553.036C542.983,553.88 541.876,554.57 540.689,555.073C539.176,555.713 537.537,556.042 535.894,556.042C534.25,556.042 532.612,555.713 531.098,555.073C529.273,554.301 527.647,553.085 526.386,551.558C525.307,550.251 524.502,548.722 524.038,547.092C523.611,545.593 523.476,544.012 523.633,542.462C523.756,541.246 524.063,540.048 524.54,538.923C525.12,537.555 525.949,536.294 526.974,535.218C527.998,534.145 529.215,533.257 530.552,532.613C531.647,532.086 532.818,531.723 534.019,531.539C534.536,531.459 535.054,531.42 535.576,531.401C535.895,531.396 535.894,531.396 536.211,531.401ZM535.652,534.401C535.257,534.416 534.865,534.446 534.474,534.506C533.566,534.645 532.682,534.919 531.855,535.318C530.843,535.805 529.922,536.478 529.147,537.29C528.37,538.104 527.743,539.059 527.304,540.094C526.944,540.943 526.713,541.847 526.62,542.765C526.501,543.938 526.602,545.135 526.925,546.27C527.153,547.07 527.489,547.839 527.921,548.549C528.935,550.217 530.47,551.547 532.268,552.308C533.412,552.793 534.651,553.041 535.894,553.041C537.136,553.041 538.375,552.792 539.519,552.308C540.417,551.928 541.255,551.405 541.992,550.767C543.471,549.485 544.537,547.737 544.976,545.827C545.205,544.827 545.272,543.788 545.166,542.767C545.064,541.772 544.803,540.798 544.391,539.885C543.96,538.931 543.365,538.048 542.641,537.292C541.864,536.48 540.946,535.806 539.932,535.318C539.105,534.919 538.221,534.645 537.313,534.506C536.922,534.446 536.53,534.416 536.135,534.401C535.893,534.398 535.893,534.398 535.652,534.401Z" style="fill:rgb(134,117,221);fill-rule:nonzero;"/>
                </g>
                <g transform="matrix(0.351751,0,0,0.396812,173.989,284.705)">
                    <path d="M548.629,307.508C548.629,306.723 547.992,306.087 547.208,306.087L487.277,306.087C486.493,306.087 485.856,306.723 485.856,307.508L485.856,310.349C485.856,311.134 486.493,311.77 487.277,311.77L547.208,311.77C547.992,311.77 548.629,311.134 548.629,310.349L548.629,307.508Z" style="fill:white;"/>
                </g>
                <g transform="matrix(0.351751,0,0,0.396812,173.989,284.705)">
                    <path d="M547.358,304.589C547.651,304.611 547.935,304.661 548.212,304.763C548.966,305.038 549.586,305.629 549.899,306.368C550.034,306.686 550.101,307.018 550.127,307.361C550.148,308.362 550.13,309.364 550.13,310.366C550.123,310.656 550.085,310.941 549.999,311.219C549.745,312.032 549.13,312.71 548.346,313.041C548.029,313.175 547.7,313.242 547.358,313.268C527.331,313.806 507.29,313.271 487.257,313.271C486.968,313.263 486.685,313.226 486.408,313.14C485.547,312.872 484.844,312.202 484.533,311.356C484.431,311.08 484.382,310.796 484.359,310.504C484.327,309.497 484.355,308.49 484.355,307.483C484.366,307.147 484.416,306.82 484.532,306.503C484.809,305.749 485.399,305.129 486.138,304.816C486.455,304.682 486.785,304.615 487.127,304.589C507.197,304.05 527.288,304.05 547.358,304.589ZM487.357,307.587L487.357,310.27L547.128,310.27L547.128,307.587C527.204,307.587 507.28,307.587 487.357,307.587Z" style="fill:rgb(134,117,221);fill-rule:nonzero;"/>
                </g>
                <g transform="matrix(0.351751,0,0,0.396812,173.41,284.705)">
                    <path d="M567.163,307.508C567.163,306.723 566.526,306.087 565.742,306.087L560.004,306.087C559.22,306.087 558.583,306.723 558.583,307.508L558.583,310.349C558.583,311.134 559.22,311.77 560.004,311.77L565.742,311.77C566.526,311.77 567.163,311.134 567.163,310.349L567.163,307.508Z" style="fill:white;"/>
                </g>
                <g transform="matrix(0.351751,0,0,0.396812,173.41,284.705)">
                    <path d="M565.891,304.589C566.233,304.615 566.562,304.681 566.879,304.815C567.663,305.147 568.278,305.822 568.532,306.634C568.606,306.872 568.643,307.115 568.661,307.363C568.685,308.364 568.664,309.366 568.664,310.367C568.657,310.658 568.619,310.944 568.532,311.223C568.263,312.081 567.593,312.783 566.75,313.093C566.472,313.195 566.185,313.247 565.891,313.268C563.922,313.326 561.951,313.271 559.982,313.271C559.644,313.261 559.315,313.21 558.996,313.093C558.242,312.816 557.62,312.223 557.309,311.481C557.177,311.166 557.113,310.841 557.085,310.503C557.062,309.499 557.082,308.494 557.082,307.49C557.088,307.249 557.113,307.011 557.174,306.777C557.4,305.903 558.036,305.167 558.867,304.815C559.184,304.681 559.513,304.615 559.855,304.589C561.867,304.541 563.88,304.541 565.891,304.589ZM560.084,307.587L560.084,310.27L565.662,310.27L565.662,307.587C563.803,307.587 561.943,307.587 560.084,307.587Z" style="fill:rgb(134,117,221);fill-rule:nonzero;"/>
                </g>
                <g transform="matrix(0.351751,0,0,0.396812,108.557,275.027)">
                    <path d="M567.163,307.508C567.163,306.723 566.526,306.087 565.742,306.087L560.004,306.087C559.22,306.087 558.583,306.723 558.583,307.508L558.583,310.349C558.583,311.134 559.22,311.77 560.004,311.77L565.742,311.77C566.526,311.77 567.163,311.134 567.163,310.349L567.163,307.508Z" style="fill:white;"/>
                </g>
                <g transform="matrix(0.351751,0,0,0.396812,108.557,275.027)">
                    <path d="M565.895,304.589C566.236,304.616 566.564,304.682 566.879,304.815C567.619,305.128 568.209,305.746 568.486,306.5C568.587,306.776 568.639,307.062 568.66,307.354C568.695,308.361 568.664,309.369 568.664,310.376C568.654,310.662 568.619,310.941 568.534,311.215C568.282,312.029 567.668,312.707 566.883,313.04C566.565,313.175 566.234,313.242 565.891,313.268C563.923,313.314 561.955,313.271 559.987,313.271C559.697,313.264 559.413,313.226 559.135,313.14C558.321,312.887 557.646,312.273 557.313,311.489C557.178,311.17 557.11,310.838 557.085,310.493C557.062,309.492 557.083,308.491 557.083,307.49C557.089,307.201 557.127,306.919 557.212,306.642C557.465,305.826 558.08,305.148 558.867,304.815C559.183,304.682 559.511,304.615 559.852,304.589C561.866,304.53 563.882,304.531 565.895,304.589ZM560.084,307.587L560.084,310.27L565.663,310.27L565.663,307.587C563.803,307.587 561.944,307.587 560.084,307.587Z" style="fill:rgb(134,117,221);fill-rule:nonzero;"/>
                </g>
                <g transform="matrix(0.0174651,0.117133,-0.640921,0.121617,376.631,376.363)">
                    <g transform="matrix(-0.0318868,-0.161922,0.999491,-0.00516581,51.8015,159.31)">
                        <path d="M805.824,414.294C806.342,414.487 806.485,414.513 806.961,414.801C807.853,415.342 808.564,416.161 808.974,417.12C809.193,417.632 809.199,417.777 809.318,418.317L831.319,559.328C831.338,559.536 831.371,559.744 831.377,559.954C831.395,560.583 831.294,561.214 831.08,561.806C830.351,563.822 828.354,565.178 826.211,565.112C825.581,565.093 824.957,564.954 824.379,564.704C824.187,564.621 824.006,564.514 823.819,564.42L743.923,517.316L730.23,609.656L730.099,610.272C730.03,610.47 729.973,610.673 729.891,610.866C729.647,611.447 729.292,611.981 728.851,612.431C728.409,612.881 727.883,613.246 727.307,613.502C725.135,614.468 722.507,613.733 721.152,611.78C720.672,611.089 720.371,610.279 720.284,609.442C720.225,608.883 720.264,608.741 720.311,608.185L734.601,511.82L647.98,460.752L647.459,460.398C647.301,460.26 647.135,460.131 646.986,459.983C646.54,459.537 646.179,459.008 645.928,458.43C644.981,456.25 645.738,453.628 647.703,452.29C648.224,451.934 648.811,451.679 649.426,451.541C650.247,451.356 651.11,451.382 651.919,451.616C652.458,451.772 652.575,451.861 653.073,452.113L738.51,502.484L800.287,416.172L800.681,415.688C801.08,415.306 801.166,415.189 801.633,414.886C802.332,414.431 803.142,414.157 803.973,414.092C804.527,414.048 804.667,414.089 805.217,414.149C805.419,414.198 805.621,414.246 805.824,414.294ZM747.183,507.597L819.777,550.396L801.301,431.984C783.262,457.188 765.222,482.393 747.183,507.597Z" style="fill:rgb(78,206,166);fill-rule:nonzero;"/>
                    </g>
                    <g transform="matrix(-0.0318868,-0.161922,0.999491,-0.00516581,51.8015,159.31)">
                        <path d="M651.461,449.915C651.968,450.093 652.107,450.115 652.576,450.383C653.279,450.783 653.88,451.354 654.316,452.035C654.425,452.205 654.513,452.387 654.612,452.563L727.365,603.562L824.156,556.076L824.714,555.843C825.231,555.697 825.358,555.636 825.896,555.585C826.701,555.51 827.521,555.632 828.269,555.939C830.584,556.89 831.863,559.496 831.198,561.909C831.037,562.494 830.769,563.047 830.411,563.537C829.916,564.214 829.293,564.67 828.573,565.079L727.248,614.789C726.672,615.029 726.128,615.222 725.5,615.28C724.075,615.411 722.633,614.913 721.594,613.929C721.136,613.497 720.827,613.008 720.523,612.464L645.578,456.916C645.264,456.149 645.055,455.406 645.084,454.567C645.154,452.508 646.528,450.657 648.479,449.993C649.273,449.723 650.045,449.708 650.869,449.786C651.067,449.829 651.264,449.872 651.461,449.915Z" style="fill:rgb(78,206,166);fill-rule:nonzero;"/>
                    </g>
                    <g transform="matrix(-0.0318868,-0.161922,0.999491,-0.00516581,-176.482,161.48)">
                        <path d="M812.457,643.001C812.669,643.088 812.886,643.16 813.091,643.26C813.706,643.562 814.257,643.99 814.702,644.512C816.061,646.111 816.274,648.455 815.223,650.272C814.995,650.668 814.713,651.03 814.385,651.35C813.895,651.828 813.307,652.204 812.666,652.448C812.453,652.529 812.229,652.581 812.011,652.647L659.171,687.943L594.351,787.416L730.922,834.139C731.128,834.226 731.341,834.299 731.541,834.399C732.142,834.699 732.68,835.121 733.116,835.633C733.407,835.974 733.651,836.353 733.84,836.759C734.711,838.622 734.333,840.889 732.905,842.367C732.281,843.012 731.486,843.483 730.62,843.72C730.405,843.779 730.182,843.809 729.963,843.853L599.834,861.239C599.224,861.278 599.066,861.32 598.456,861.232C597.078,861.034 595.821,860.252 595.034,859.103C594.627,858.508 594.425,857.891 594.244,857.202C590.045,835.031 585.961,812.837 581.657,790.686C581.639,790.337 581.608,789.994 581.638,789.645C581.704,788.902 581.937,788.144 582.336,787.512L582.433,787.338L651.873,680.775L652.256,680.263C652.714,679.79 653.159,679.379 653.748,679.071C654.254,678.806 654.402,678.79 654.946,678.627L809.755,642.876C809.98,642.84 810.203,642.789 810.431,642.768C811.039,642.713 811.192,642.762 811.795,642.831C812.016,642.888 812.236,642.945 812.457,643.001ZM603.213,850.671L707.526,836.734L593.163,797.609C596.513,815.296 599.863,832.983 603.213,850.671Z" style="fill:rgb(78,206,166);fill-rule:nonzero;"/>
                    </g>
                    <g transform="matrix(1,0,0,0.162005,0,0)">
                        <path d="M580.656,137.939C580.879,137.402 580.91,137.252 581.235,136.765C581.969,135.668 583.131,134.892 584.427,134.634C585,134.52 585.151,134.549 585.733,134.549C634.886,137.785 684.272,138.503 733.191,144.29C733.634,144.403 734.012,144.522 734.436,144.695C734.832,144.856 735.197,145.155 735.533,145.407C735.937,145.709 736.278,146.164 736.536,146.593C737.11,147.547 737.374,148.624 737.255,149.735C737.22,150.063 737.176,150.399 737.061,150.71L737.046,150.769L665.014,372.508L664.766,373.128C664.657,373.321 664.56,373.523 664.438,373.709C664.071,374.268 663.593,374.751 663.037,375.123C660.934,376.533 658.021,376.116 656.398,374.173C655.969,373.66 655.645,373.062 655.45,372.423C655.385,372.21 655.349,371.99 655.298,371.773L633.712,240.598C633.657,240.065 633.619,239.929 633.661,239.392C633.724,238.587 633.984,237.801 634.413,237.117C634.7,236.661 634.811,236.575 635.173,236.18L684.177,188.777L720.663,153.48L585.074,144.555C584.405,144.467 583.797,144.35 583.185,144.048C581.798,143.364 580.787,142.045 580.486,140.529C580.353,139.859 580.398,139.242 580.486,138.573C580.543,138.361 580.599,138.15 580.656,137.939ZM661.846,349.805L721.285,166.83L691.149,195.984L644.033,241.561C649.971,277.642 655.908,313.724 661.846,349.805Z" style="fill:rgb(78,206,166);fill-rule:nonzero;"/>
                    </g>
                </g>
                <g transform="matrix(0.844657,0,0,0.952861,-4154.75,-573.927)">
                    <path d="M5214.63,1032.64L5254.78,1032.64" style="fill:none;stroke:rgb(78,206,166);stroke-width:1.25px;"/>
                </g>
                <g transform="matrix(0.281133,0,0,0.952861,-1211.53,-568.47)">
                    <path d="M5214.63,1032.64L5254.78,1032.64" style="fill:none;stroke:rgb(78,206,166);stroke-width:1.68px;"/>
                </g>
                <g transform="matrix(0.939086,0,0,0.952861,-4635.69,-563.013)">
                    <path d="M5214.63,1032.64L5254.78,1032.64" style="fill:none;stroke:rgb(134,117,221);stroke-width:1.18px;"/>
                </g>
                <g transform="matrix(0.939086,0,0,0.952861,-4640.64,-523.421)">
                    <path d="M5214.63,1032.64L5254.78,1032.64" style="fill:none;stroke:rgb(134,117,221);stroke-width:1.18px;"/>
                </g>
                <g transform="matrix(0.939086,0,0,0.952861,-4635.69,-557.555)">
                    <path d="M5214.63,1032.64L5254.78,1032.64" style="fill:none;stroke:rgb(134,117,221);stroke-width:1.18px;"/>
                </g>
                <g transform="matrix(0.939086,0,0,0.952861,-4640.64,-517.964)">
                    <path d="M5214.63,1032.64L5254.78,1032.64" style="fill:none;stroke:rgb(134,117,221);stroke-width:1.18px;"/>
                </g>
                <g transform="matrix(0.939086,0,0,0.952861,-4635.69,-552.098)">
                    <path d="M5214.63,1032.64L5254.78,1032.64" style="fill:none;stroke:rgb(134,117,221);stroke-width:1.18px;"/>
                </g>
                <g transform="matrix(0.30641,0,0,0.952861,-1343.34,-545.51)">
                    <path d="M5214.63,1032.64L5254.78,1032.64" style="fill:none;stroke:rgb(78,206,166);stroke-width:1.66px;"/>
                </g>
                <g transform="matrix(0.316111,0,0,0.952861,-1399.8,-540.053)">
                    <path d="M5214.63,1032.64L5254.78,1032.64" style="fill:none;stroke:rgb(78,206,166);stroke-width:1.66px;"/>
                </g>
                <g transform="matrix(0.50722,0,0,0.952861,-2397.04,-528.008)">
                    <path d="M5214.63,1032.64L5254.78,1032.64" style="fill:none;stroke:rgb(78,206,166);stroke-width:1.52px;"/>
                </g>
                <g transform="matrix(0.50722,0,0,0.952861,-2396.36,-513.377)">
                    <path d="M5214.63,1032.64L5254.78,1032.64" style="fill:none;stroke:rgb(78,206,166);stroke-width:1.52px;"/>
                </g>
            </g>
        </g>
    </g>
</svg>
