<?xml version="1.0" encoding="UTF-8" standalone="no"?>
<!DOCTYPE svg PUBLIC "-//W3C//DTD SVG 1.1//EN" "http://www.w3.org/Graphics/SVG/1.1/DTD/svg11.dtd">
<svg width="100%" height="100%" viewBox="0 0 107 101" version="1.1" xmlns="http://www.w3.org/2000/svg" xmlns:xlink="http://www.w3.org/1999/xlink" xml:space="preserve" style="fill-rule:evenodd;clip-rule:evenodd;stroke-linecap:round;stroke-linejoin:round;stroke-miterlimit:1.5;">
    <g transform="matrix(1,0,0,1,-3959,-459)">
        <g id="Artboard1" transform="matrix(1,0,0,0.7517,2864.21,0)">
            <rect x="0" y="0" width="1280" height="800" style="fill:none;"/>
            <g transform="matrix(0.661021,0,0,5.42804,675.168,344.146)">
                <g>
                    <g>
                        <g transform="matrix(0.0288492,0.0277857,-1.05868,0.0288492,704.779,43.3175)">
                            <g transform="matrix(-0.0318868,-0.161922,0.999491,-0.00516581,51.8015,159.31)">
                                <path d="M650.525,456.432L826.365,560.1L804.364,419.09L740.107,508.868L725.269,608.921" style="fill:none;stroke:rgb(134,117,221);stroke-width:9.01px;"/>
                            </g>
                            <g transform="matrix(-0.0318868,-0.161922,0.999491,-0.00516581,51.8015,159.31)">
                                <path d="M650.095,454.739L725.041,610.288L826.365,560.578" style="fill:none;stroke:rgb(134,117,221);stroke-width:9.01px;"/>
                            </g>
                            <g transform="matrix(-0.0318868,-0.161922,0.999491,-0.00516581,-176.482,161.48)">
                                <path d="M810.883,647.762L656.075,683.512L586.632,790.075L729.298,838.883L599.169,856.269L586.632,790.075" style="fill:none;stroke:rgb(134,117,221);stroke-width:9.01px;"/>
                            </g>
                            <g transform="matrix(1,0,0,0.162005,0,0)">
                                <path d="M585.403,139.553L732.278,149.22L638.66,239.784L660.246,370.959L732.278,149.22" style="fill:none;stroke:rgb(134,117,221);stroke-width:9.01px;"/>
                            </g>
                        </g>
                        <g transform="matrix(0.381329,0,0,0.0595754,462.555,36.6458)">
                            <path d="M665.83,256.81C665.83,238.828 651.751,224.229 634.41,224.229L499.116,224.229C481.774,224.229 467.695,238.828 467.695,256.81L467.695,579.289C467.695,597.271 481.774,611.871 499.116,611.871L634.41,611.871C651.751,611.871 665.83,597.271 665.83,579.289L665.83,256.81Z" style="fill:white;stroke:rgb(134,117,221);stroke-width:4.18px;"/>
                        </g>
                        <g transform="matrix(0.517511,0,0,0.0822887,402,26.55)">
                            <rect x="472.804" y="313.232" width="123.053" height="207.759" style="fill:white;stroke:rgb(134,117,221);stroke-width:3.06px;"/>
                        </g>
                        <g transform="matrix(0.517511,0,0,0.0822887,402,26.55)">
                            <rect x="472.804" y="313.232" width="123.053" height="207.759" style="fill:white;stroke:rgb(134,117,221);stroke-width:3.06px;"/>
                        </g>
                        <g transform="matrix(0.522168,0,0,0.0845936,399.798,25.3492)">
                            <circle cx="535.893" cy="543.719" r="10.822" style="fill:white;stroke:rgb(134,117,221);stroke-width:3px;"/>
                        </g>
                        <g transform="matrix(0.522168,0,0,0.0845936,401.85,25.1087)">
                            <path d="M548.629,307.508C548.629,306.723 547.992,306.087 547.208,306.087L487.277,306.087C486.493,306.087 485.856,306.723 485.856,307.508L485.856,310.349C485.856,311.134 486.493,311.77 487.277,311.77L547.208,311.77C547.992,311.77 548.629,311.134 548.629,310.349L548.629,307.508Z" style="fill:white;stroke:rgb(134,117,221);stroke-width:3px;"/>
                        </g>
                        <g transform="matrix(0.522168,0,0,0.0845936,400.991,25.1087)">
                            <path d="M567.163,307.508C567.163,306.723 566.526,306.087 565.742,306.087L560.004,306.087C559.22,306.087 558.583,306.723 558.583,307.508L558.583,310.349C558.583,311.134 559.22,311.77 560.004,311.77L565.742,311.77C566.526,311.77 567.163,311.134 567.163,310.349L567.163,307.508Z" style="fill:white;stroke:rgb(134,117,221);stroke-width:3px;"/>
                        </g>
                    </g>
                </g>
            </g>
            <g transform="matrix(0.82884,0,0,10.8372,476.882,-175.044)">
                <g transform="matrix(1,0,0,0.101744,-5664.02,-98.4973)">
                    <path d="M6437.75,1752.27L6451.07,1752.27" style="fill:none;stroke:rgb(78,206,166);stroke-width:1.04px;"/>
                </g>
                <g transform="matrix(1,0,0,0.101744,-5664.02,-98.2106)">
                    <path d="M6437.75,1752.27L6451.07,1752.27" style="fill:none;stroke:rgb(78,206,166);stroke-width:1.04px;"/>
                </g>
                <g transform="matrix(1,0,0,0.101744,-5664.02,-97.924)">
                    <path d="M6437.75,1752.27L6451.07,1752.27" style="fill:none;stroke:rgb(78,206,166);stroke-width:1.04px;"/>
                </g>
                <g transform="matrix(1,0,0,0.101744,-5664.13,-98.4973)">
                    <path d="M6438.27,1746.14C6438.27,1743.9 6437.36,1741.76 6435.74,1740.2C6433.22,1737.87 6431.66,1734.52 6431.66,1730.81C6431.66,1723.66 6437.47,1717.85 6444.62,1717.85C6451.78,1717.85 6457.58,1723.66 6457.58,1730.81C6457.58,1734.56 6455.99,1737.94 6453.44,1740.31C6451.89,1741.77 6451.01,1743.81 6451.01,1745.95C6450.97,1747.72 6450.97,1749.45 6450.97,1749.45L6438.27,1749.45C6438.27,1749.45 6438.27,1747.85 6438.27,1746.14Z" style="fill:none;stroke:rgb(78,206,166);stroke-width:1.15px;"/>
                </g>
                <g transform="matrix(1,0,0,0.101744,-5664.72,-98.3613)">
                    <path d="M6443.26,1744.99L6443.26,1730.77C6443.26,1730.77 6443.05,1730.79 6442.69,1730.82C6441.66,1730.9 6440.78,1731.59 6440.43,1732.57C6440.09,1733.54 6440.36,1734.63 6441.11,1735.34C6443.13,1737.26 6445.11,1739.13 6445.11,1739.13" style="fill:none;stroke:rgb(78,206,166);stroke-width:1.04px;"/>
                </g>
                <g transform="matrix(-1,0,0,0.101744,7225.71,-98.3613)">
                    <path d="M6443.26,1744.99L6443.26,1730.77C6443.26,1730.77 6443.05,1730.79 6442.69,1730.82C6441.66,1730.9 6440.78,1731.59 6440.43,1732.57C6440.09,1733.54 6440.36,1734.63 6441.11,1735.34C6443.13,1737.26 6445.11,1739.13 6445.11,1739.13" style="fill:none;stroke:rgb(78,206,166);stroke-width:1.04px;"/>
                </g>
            </g>
            <g transform="matrix(0.480283,-0.36119,2.00524,4.71887,743.391,788.238)">
                <g transform="matrix(0.609957,0.00236981,-0.0210543,0.0993469,-2300.77,-5.07023)">
                    <path d="M5094.53,188.484L5084.1,200.445" style="fill:none;stroke:rgb(134,117,221);stroke-width:3.8px;"/>
                </g>
                <g transform="matrix(-1.19451,-0.138681,0.32613,-0.0514979,6720.79,745.742)">
                    <path d="M5054.88,172.292C5054.88,172.292 5050.93,314.301 5050.93,375.162C5050.93,382.007 5052.69,387.565 5054.88,387.565C5057.05,387.565 5058.82,382.007 5058.82,375.162C5058.82,314.301 5054.88,172.292 5054.88,172.292Z" style="fill:none;stroke:rgb(134,117,221);stroke-width:2.19px;"/>
                </g>
            </g>
            <g transform="matrix(0.969196,0,0,1.28934,-3281.95,-738.444)">
                <path d="M4623.58,1062.63C4618.08,1056.43 4611.84,1053.3 4603.6,1053.27C4591.19,1053.21 4585.76,1061.59 4582.86,1068.08C4581.63,1070.83 4581.61,1076.22 4582.09,1079.12C4584,1090.57 4591.87,1106.78 4581.68,1116.45C4578.53,1119.44 4576.7,1121.64 4572.22,1121.64" style="fill:none;stroke:rgb(134,117,221);stroke-width:1.46px;"/>
            </g>
        </g>
    </g>
</svg>
