<?xml version="1.0" encoding="UTF-8" standalone="no"?><!DOCTYPE svg PUBLIC "-//W3C//DTD SVG 1.1//EN" "http://www.w3.org/Graphics/SVG/1.1/DTD/svg11.dtd"><svg width="100%" height="100%" viewBox="0 0 431 355" version="1.1" xmlns="http://www.w3.org/2000/svg" xmlns:xlink="http://www.w3.org/1999/xlink" xml:space="preserve" style="fill-rule:evenodd;clip-rule:evenodd;stroke-linejoin:round;stroke-miterlimit:1.41421;"><path id="Behance" d="M388.432,99.481l-107.773,0l0,-26.77l107.782,0l0,26.77l-0.009,0l0,0Zm-179.52,109.775c6.954,10.771 10.429,23.849 10.429,39.203c0,15.878 -3.918,30.122 -11.889,42.704c-5.071,8.326 -11.367,15.359 -18.932,21.021c-8.52,6.548 -18.607,11.038 -30.203,13.437c-11.633,2.403 -24.224,3.617 -37.787,3.617l-120.53,0l0,-267.63l129.25,0c32.579,0.53 55.676,9.969 69.315,28.506c8.184,11.369 12.239,25.011 12.239,40.868c0,16.362 -4.104,29.454 -12.368,39.401c-4.597,5.577 -11.388,10.65 -20.378,15.229c13.617,4.985 23.949,12.835 30.854,23.644l0,0Zm-147.19,-42.135l56.632,0c11.638,0 21.046,-2.212 28.292,-6.634c7.241,-4.415 10.854,-12.263 10.854,-23.531c0,-12.449 -4.784,-20.712 -14.375,-24.689c-8.244,-2.763 -18.792,-4.186 -31.591,-4.186l-49.812,0l0,59.04Zm101.231,77.515c0,-13.902 -5.682,-23.513 -17.023,-28.67c-6.342,-2.931 -15.29,-4.429 -26.763,-4.536l-57.445,0l0,71.322l56.556,0c11.619,0 20.612,-1.521 27.102,-4.694c11.704,-5.834 17.573,-16.937 17.573,-33.422l0,0Zm265.466,-43.539c1.302,8.756 1.891,21.46 1.652,38.065l-139.578,0c0.77,19.266 7.421,32.739 20.035,40.449c7.607,4.835 16.83,7.196 27.63,7.196c11.388,0 20.67,-2.879 27.815,-8.797c3.893,-3.137 7.327,-7.565 10.296,-13.152l51.16,0c-1.34,11.379 -7.5,22.92 -18.57,34.648c-17.151,18.641 -41.205,27.988 -72.097,27.988c-25.52,0 -48.011,-7.883 -67.533,-23.592c-19.457,-15.764 -29.229,-41.33 -29.229,-76.795c0,-33.257 8.773,-58.712 26.378,-76.43c17.67,-17.751 40.474,-26.586 68.583,-26.586c16.661,0 31.68,2.978 45.079,8.965c13.357,5.993 24.396,15.425 33.09,28.388c7.868,11.416 12.928,24.616 15.289,39.653l0,0Zm-50.357,4.994c-0.938,-13.322 -5.386,-23.405 -13.395,-30.296c-7.943,-6.91 -17.866,-10.379 -29.706,-10.379c-12.886,0 -22.836,3.708 -29.906,10.996c-7.118,7.273 -11.547,17.161 -13.362,29.68l86.369,0l0,-0.001l0,0Z" style="fill:#4e62d1;fill-rule:nonzero;"/></svg>