<?xml version="1.0" encoding="UTF-8" standalone="no"?>
<!DOCTYPE svg PUBLIC "-//W3C//DTD SVG 1.1//EN" "http://www.w3.org/Graphics/SVG/1.1/DTD/svg11.dtd">
<svg width="100%" height="100%" viewBox="0 0 179 159" version="1.1" xmlns="http://www.w3.org/2000/svg" xmlns:xlink="http://www.w3.org/1999/xlink" xml:space="preserve" style="fill-rule:evenodd;clip-rule:evenodd;stroke-linejoin:round;stroke-miterlimit:1.41421;">
    <g transform="matrix(1,0,0,1,-3161,-596)">
        <g id="Artboard1" transform="matrix(1.18391,0,0,1.04947,2864.21,0)">
            <rect x="0" y="0" width="1280" height="800" style="fill:none;"/>
            <g transform="matrix(0.844657,0,0,6.14861,-216.585,-261.301)">
                <g transform="matrix(0.814584,0,0,0.126238,-3175.28,118.044)">
                    <path d="M4733.38,309.502C4733.43,309.518 4733.48,309.53 4733.53,309.551C4733.63,309.595 4733.72,309.659 4733.79,309.739C4734.01,309.983 4734.05,310.351 4733.88,310.636C4733.83,310.729 4733.76,310.81 4733.67,310.873C4733.58,310.936 4733.48,310.98 4733.38,311.003C4733.32,311.014 4733.27,311.014 4733.22,311.019L4641.43,311.019C4641.38,311.014 4641.33,311.014 4641.27,311.003C4641.17,310.98 4641.07,310.936 4640.98,310.873C4640.72,310.68 4640.6,310.328 4640.7,310.015C4640.74,309.913 4640.79,309.819 4640.86,309.739C4640.97,309.619 4641.12,309.535 4641.27,309.502C4641.33,309.491 4641.38,309.491 4641.43,309.485L4733.22,309.485C4733.27,309.491 4733.32,309.496 4733.38,309.502Z" style="fill:rgb(134,117,221);fill-rule:nonzero;"/>
                </g>
                <g transform="matrix(1.35651,0,0,0.11378,-5660.74,122.049)">
                    <path d="M4634.64,173.698C4634.7,173.726 4634.72,173.727 4634.78,173.781C4634.88,173.883 4634.97,174.063 4635.01,174.276C4635.03,174.39 4635.02,174.421 4635.03,174.539L4635.03,214.733C4635.02,214.851 4635.03,214.883 4635.01,214.997C4634.96,215.253 4634.85,215.46 4634.71,215.543C4634.65,215.58 4634.63,215.575 4634.57,215.585L4599.87,215.585C4599.81,215.575 4599.79,215.58 4599.73,215.543C4599.59,215.46 4599.48,215.253 4599.43,214.997C4599.41,214.883 4599.41,214.851 4599.41,214.733L4599.41,174.539C4599.41,174.421 4599.41,174.39 4599.43,174.276C4599.48,174.019 4599.59,173.813 4599.73,173.73C4599.79,173.693 4599.81,173.697 4599.87,173.688L4634.57,173.688C4634.59,173.691 4634.61,173.695 4634.64,173.698ZM4600.33,175.39L4600.33,213.882L4634.11,213.882L4634.11,175.39C4622.85,175.39 4611.59,175.39 4600.33,175.39Z" style="fill:rgb(78,206,166);fill-rule:nonzero;"/>
                </g>
                <g transform="matrix(0.814584,0,0,0.126238,-3173,118.146)">
                    <path d="M4779.94,165.222C4780.01,165.248 4780.07,165.265 4780.13,165.299C4780.31,165.4 4780.44,165.569 4780.49,165.765C4780.5,165.829 4780.5,165.897 4780.51,165.963L4780.51,261.349C4780.5,261.415 4780.5,261.483 4780.49,261.547C4780.42,261.81 4780.21,262.019 4779.94,262.09C4779.88,262.107 4779.81,262.107 4779.75,262.116L4589.76,262.116C4589.69,262.107 4589.62,262.107 4589.56,262.09C4589.29,262.019 4589.08,261.81 4589.01,261.547C4589,261.483 4589,261.415 4588.99,261.349L4588.99,165.963C4589,165.897 4589,165.829 4589.01,165.765C4589.08,165.502 4589.29,165.292 4589.56,165.222C4589.62,165.205 4589.69,165.205 4589.76,165.196L4779.75,165.196C4779.81,165.205 4779.88,165.213 4779.94,165.222ZM4590.52,166.73L4590.52,260.581L4778.98,260.581L4778.98,166.73C4716.16,166.73 4653.34,166.73 4590.52,166.73Z" style="fill:rgb(134,117,221);fill-rule:nonzero;"/>
                </g>
                <g transform="matrix(0.804786,0,0,0.120533,-3179.69,120.346)">
                    <path d="M4847.86,139.784C4848.25,139.792 4848.64,139.817 4849.02,139.867C4849.77,139.966 4850.51,140.152 4851.21,140.42C4852.67,140.971 4854,141.874 4855.06,143.035C4855.96,144.012 4856.68,145.167 4857.16,146.423C4857.48,147.269 4857.69,148.157 4857.8,149.06C4857.84,149.415 4857.85,149.772 4857.86,150.128C4858.1,193.652 4858.1,237.177 4857.86,280.7C4857.85,281.057 4857.84,281.413 4857.8,281.768C4857.69,282.671 4857.48,283.559 4857.16,284.405C4856.68,285.661 4855.96,286.817 4855.06,287.794C4854,288.954 4852.67,289.857 4851.21,290.408C4850.51,290.676 4849.77,290.863 4849.02,290.961C4848.64,291.011 4848.25,291.036 4847.86,291.044C4782.54,291.513 4717.21,291.513 4651.88,291.044C4651.45,291.035 4651.02,291.005 4650.6,290.943C4649.89,290.841 4649.2,290.661 4648.53,290.408C4647,289.828 4645.61,288.858 4644.52,287.611C4643.69,286.675 4643.03,285.582 4642.59,284.405C4642.3,283.641 4642.09,282.842 4641.98,282.028C4641.93,281.632 4641.9,281.233 4641.89,280.833C4641.18,237.272 4641.65,193.698 4641.88,150.131C4641.9,148.99 4642.09,147.861 4642.46,146.784C4643.05,145.032 4644.11,143.457 4645.48,142.259C4646.35,141.495 4647.35,140.887 4648.41,140.465C4649.12,140.187 4649.85,139.993 4650.6,139.885C4651.02,139.823 4651.45,139.793 4651.88,139.784C4717.21,139.315 4782.54,139.315 4847.86,139.784ZM4652.02,141.39C4651.61,141.393 4651.21,141.419 4650.81,141.477C4650.22,141.563 4649.63,141.715 4649.07,141.929C4648.12,142.286 4647.24,142.817 4646.48,143.486C4645.32,144.5 4644.42,145.833 4643.92,147.316C4643.61,148.228 4643.45,149.183 4643.44,150.148C4643.2,193.696 4642.74,237.251 4643.44,280.793C4643.45,281.132 4643.47,281.469 4643.52,281.804C4643.61,282.493 4643.78,283.169 4644.03,283.816C4644.41,284.812 4644.97,285.737 4645.66,286.528C4646.6,287.585 4647.77,288.407 4649.07,288.899C4649.94,289.231 4650.86,289.405 4651.79,289.435C4717.13,290.749 4782.49,289.907 4847.84,289.437C4848.17,289.43 4848.5,289.409 4848.83,289.366C4849.46,289.283 4850.08,289.126 4850.68,288.899C4851.91,288.433 4853.03,287.668 4853.94,286.685C4854.7,285.858 4855.31,284.879 4855.71,283.816C4855.99,283.099 4856.17,282.347 4856.25,281.581C4856.29,281.281 4856.3,280.979 4856.31,280.677C4856.54,237.169 4856.54,193.659 4856.31,150.151C4856.3,149.849 4856.29,149.547 4856.25,149.247C4856.17,148.482 4855.99,147.73 4855.71,147.012C4855.31,145.949 4854.7,144.971 4853.94,144.143C4853.03,143.161 4851.91,142.396 4850.68,141.929C4850.08,141.702 4849.46,141.545 4848.83,141.462C4848.5,141.419 4848.17,141.398 4847.84,141.391C4782.57,140.922 4717.29,141.39 4652.02,141.39Z" style="fill:rgb(134,117,221);fill-rule:nonzero;"/>
                </g>
                <g transform="matrix(0.814584,0,0,0.126238,-3173,118.146)">
                    <path d="M4790.68,270.925C4790.86,271.021 4790.93,271.028 4791.06,271.204C4791.26,271.47 4791.26,271.84 4791.06,272.106C4791.02,272.171 4790.96,272.229 4790.89,272.276C4790.72,272.404 4790.65,272.389 4790.44,272.422L4578.59,272.422C4578.39,272.389 4578.32,272.404 4578.14,272.276C4578.08,272.229 4578.02,272.171 4577.97,272.106C4577.78,271.84 4577.78,271.47 4577.97,271.204C4578.02,271.139 4578.08,271.081 4578.14,271.034C4578.32,270.906 4578.39,270.921 4578.59,270.888L4790.44,270.888C4790.52,270.9 4790.6,270.913 4790.68,270.925Z" style="fill:rgb(134,117,221);fill-rule:nonzero;"/>
                </g>
                <g transform="matrix(0.814584,0,0,0.012451,-3153.47,139.831)">
                    <path d="M4703.67,167.238C4703.76,167.414 4703.78,167.416 4703.86,167.763C4704.05,168.548 4704.2,170.081 4704.28,171.973C4704.32,172.952 4704.33,173.905 4704.34,174.95L4704.34,253.719C4704.33,254.764 4704.32,255.718 4704.28,256.696C4704.19,258.912 4703.99,260.612 4703.77,261.233C4703.68,261.468 4703.66,261.439 4703.57,261.498L4667.4,261.498C4667.29,261.43 4667.2,261.312 4667.1,260.906C4666.88,259.988 4666.72,258.049 4666.65,255.733C4666.63,254.856 4666.63,254.619 4666.63,253.719L4666.63,174.95C4666.63,174.05 4666.63,173.814 4666.65,172.937C4666.72,170.62 4666.88,168.681 4667.1,167.763C4667.2,167.358 4667.29,167.24 4667.4,167.171L4703.57,167.171C4703.6,167.194 4703.64,167.216 4703.67,167.238ZM4668.16,182.73L4668.16,245.94L4702.8,245.94L4702.8,182.73C4691.26,182.73 4679.71,182.73 4668.16,182.73Z" style="fill:rgb(134,117,221);fill-rule:nonzero;"/>
                </g>
                <g transform="matrix(1,0,0,0.126651,-4274.33,12.0398)">
                    <path d="M4917.46,1153.31C4917.52,1153.35 4917.58,1153.37 4917.64,1153.42C4917.74,1153.52 4917.82,1153.65 4917.86,1153.8C4917.88,1153.88 4917.88,1153.96 4917.89,1154.04L4917.89,1163.22C4917.87,1163.42 4917.88,1163.49 4917.77,1163.67C4917.62,1163.93 4917.33,1164.05 4917.07,1163.94C4917.01,1163.92 4916.95,1163.88 4916.9,1163.84C4916.85,1163.79 4916.8,1163.73 4916.76,1163.67C4916.66,1163.49 4916.67,1163.42 4916.64,1163.22L4916.64,1154.04C4916.65,1153.96 4916.65,1153.88 4916.67,1153.8C4916.73,1153.57 4916.89,1153.39 4917.07,1153.31C4917.14,1153.29 4917.2,1153.29 4917.27,1153.28C4917.33,1153.29 4917.4,1153.3 4917.46,1153.31ZM4917.46,1138.02C4917.52,1138.05 4917.58,1138.08 4917.64,1138.13C4917.74,1138.22 4917.82,1138.35 4917.86,1138.51C4917.88,1138.58 4917.88,1138.67 4917.89,1138.74L4917.89,1147.92C4917.87,1148.13 4917.88,1148.19 4917.77,1148.37C4917.73,1148.44 4917.69,1148.49 4917.64,1148.54C4917.42,1148.73 4917.12,1148.73 4916.9,1148.54C4916.85,1148.49 4916.8,1148.44 4916.76,1148.37C4916.66,1148.19 4916.67,1148.13 4916.64,1147.92L4916.64,1138.74C4916.65,1138.67 4916.65,1138.58 4916.67,1138.51C4916.73,1138.28 4916.89,1138.09 4917.07,1138.02C4917.14,1137.99 4917.2,1137.99 4917.27,1137.98C4917.33,1137.99 4917.4,1138.01 4917.46,1138.02ZM4917.46,1122.72C4917.52,1122.76 4917.58,1122.78 4917.64,1122.83C4917.74,1122.93 4917.82,1123.06 4917.86,1123.21C4917.88,1123.29 4917.88,1123.37 4917.89,1123.45L4917.89,1132.63C4917.87,1132.83 4917.88,1132.9 4917.77,1133.08C4917.62,1133.34 4917.33,1133.45 4917.07,1133.35C4917.01,1133.33 4916.95,1133.29 4916.9,1133.25C4916.85,1133.2 4916.8,1133.14 4916.76,1133.08C4916.66,1132.9 4916.67,1132.83 4916.64,1132.63L4916.64,1123.45C4916.65,1123.37 4916.65,1123.29 4916.67,1123.21C4916.73,1122.98 4916.89,1122.8 4917.07,1122.72C4917.14,1122.7 4917.2,1122.7 4917.27,1122.68C4917.33,1122.7 4917.4,1122.71 4917.46,1122.72ZM4917.46,1107.43C4917.52,1107.46 4917.58,1107.49 4917.64,1107.54C4917.74,1107.63 4917.82,1107.76 4917.86,1107.92C4917.88,1107.99 4917.88,1108.08 4917.89,1108.15L4917.89,1117.33C4917.87,1117.54 4917.88,1117.61 4917.77,1117.78C4917.73,1117.85 4917.69,1117.9 4917.64,1117.95C4917.42,1118.14 4917.12,1118.14 4916.9,1117.95C4916.85,1117.9 4916.8,1117.85 4916.76,1117.78C4916.66,1117.61 4916.67,1117.54 4916.64,1117.33L4916.64,1108.15C4916.65,1108.08 4916.65,1107.99 4916.67,1107.92C4916.73,1107.69 4916.89,1107.5 4917.07,1107.43C4917.14,1107.4 4917.2,1107.4 4917.27,1107.39C4917.33,1107.4 4917.4,1107.41 4917.46,1107.43ZM4917.46,1092.13C4917.52,1092.17 4917.58,1092.19 4917.64,1092.24C4917.74,1092.34 4917.82,1092.47 4917.86,1092.62C4917.88,1092.7 4917.88,1092.78 4917.89,1092.86L4917.89,1102.04C4917.87,1102.24 4917.88,1102.31 4917.77,1102.49C4917.62,1102.75 4917.33,1102.87 4917.07,1102.76C4917.01,1102.74 4916.95,1102.7 4916.9,1102.65C4916.85,1102.61 4916.8,1102.55 4916.76,1102.49C4916.66,1102.31 4916.67,1102.24 4916.64,1102.04L4916.64,1092.86C4916.65,1092.78 4916.65,1092.7 4916.67,1092.62C4916.73,1092.39 4916.89,1092.21 4917.07,1092.13C4917.14,1092.11 4917.2,1092.11 4917.27,1092.09C4917.33,1092.11 4917.4,1092.12 4917.46,1092.13ZM4917.46,1076.84C4917.52,1076.87 4917.58,1076.9 4917.64,1076.94C4917.74,1077.04 4917.82,1077.17 4917.86,1077.33C4917.88,1077.4 4917.88,1077.49 4917.89,1077.56L4917.89,1086.74C4917.87,1086.95 4917.88,1087.02 4917.77,1087.19C4917.73,1087.26 4917.69,1087.31 4917.64,1087.36C4917.42,1087.55 4917.12,1087.55 4916.9,1087.36C4916.85,1087.31 4916.8,1087.26 4916.76,1087.19C4916.66,1087.02 4916.67,1086.95 4916.64,1086.74L4916.64,1077.56C4916.65,1077.49 4916.65,1077.4 4916.67,1077.33C4916.73,1077.1 4916.89,1076.91 4917.07,1076.84C4917.14,1076.81 4917.2,1076.81 4917.27,1076.8C4917.33,1076.81 4917.4,1076.82 4917.46,1076.84ZM4917.46,1061.54C4917.52,1061.58 4917.58,1061.6 4917.64,1061.65C4917.74,1061.75 4917.82,1061.88 4917.86,1062.03C4917.88,1062.11 4917.88,1062.19 4917.89,1062.27L4917.89,1071.45C4917.87,1071.65 4917.88,1071.72 4917.77,1071.89C4917.73,1071.96 4917.69,1072.02 4917.64,1072.07C4917.58,1072.11 4917.52,1072.15 4917.46,1072.17C4917.21,1072.28 4916.92,1072.16 4916.76,1071.89C4916.66,1071.72 4916.67,1071.65 4916.64,1071.45L4916.64,1062.27C4916.65,1062.19 4916.65,1062.11 4916.67,1062.03C4916.73,1061.8 4916.89,1061.62 4917.07,1061.54C4917.14,1061.52 4917.2,1061.52 4917.27,1061.5C4917.33,1061.52 4917.4,1061.53 4917.46,1061.54ZM4917.46,1046.25C4917.52,1046.28 4917.58,1046.31 4917.64,1046.36C4917.74,1046.45 4917.82,1046.58 4917.86,1046.74C4917.88,1046.81 4917.88,1046.89 4917.89,1046.97L4917.89,1056.15C4917.87,1056.36 4917.88,1056.42 4917.77,1056.6C4917.73,1056.66 4917.69,1056.72 4917.64,1056.77C4917.42,1056.96 4917.12,1056.96 4916.9,1056.77C4916.85,1056.72 4916.8,1056.66 4916.76,1056.6C4916.66,1056.42 4916.67,1056.36 4916.64,1056.15L4916.64,1046.97C4916.65,1046.89 4916.65,1046.81 4916.67,1046.74C4916.73,1046.51 4916.89,1046.32 4917.07,1046.25C4917.14,1046.22 4917.2,1046.22 4917.27,1046.21C4917.33,1046.22 4917.4,1046.23 4917.46,1046.25ZM4917.46,1030.95C4917.52,1030.99 4917.58,1031.01 4917.64,1031.06C4917.74,1031.15 4917.82,1031.29 4917.86,1031.44C4917.88,1031.52 4917.88,1031.6 4917.89,1031.68L4917.89,1040.86C4917.87,1041.06 4917.88,1041.13 4917.77,1041.31C4917.73,1041.37 4917.69,1041.43 4917.64,1041.47C4917.58,1041.52 4917.52,1041.56 4917.46,1041.58C4917.21,1041.68 4916.92,1041.57 4916.76,1041.31C4916.66,1041.13 4916.67,1041.06 4916.64,1040.86L4916.64,1031.68C4916.65,1031.6 4916.65,1031.52 4916.67,1031.44C4916.73,1031.21 4916.89,1031.03 4917.07,1030.95C4917.14,1030.93 4917.2,1030.93 4917.27,1030.91C4917.33,1030.93 4917.4,1030.94 4917.46,1030.95ZM4917.46,1015.66C4917.52,1015.69 4917.58,1015.72 4917.64,1015.76C4917.74,1015.86 4917.82,1015.99 4917.86,1016.15C4917.88,1016.22 4917.88,1016.31 4917.89,1016.38L4917.89,1025.56C4917.87,1025.77 4917.88,1025.83 4917.77,1026.01C4917.73,1026.08 4917.69,1026.13 4917.64,1026.18C4917.58,1026.23 4917.52,1026.26 4917.46,1026.29C4917.21,1026.39 4916.92,1026.28 4916.76,1026.01C4916.66,1025.83 4916.67,1025.77 4916.64,1025.56L4916.64,1016.38C4916.65,1016.31 4916.65,1016.22 4916.67,1016.15C4916.73,1015.92 4916.89,1015.73 4917.07,1015.66C4917.14,1015.63 4917.2,1015.63 4917.27,1015.62C4917.33,1015.63 4917.4,1015.64 4917.46,1015.66ZM4917.46,1000.36C4917.52,1000.4 4917.58,1000.42 4917.64,1000.47C4917.74,1000.57 4917.82,1000.7 4917.86,1000.85C4917.88,1000.93 4917.88,1001.01 4917.89,1001.09L4917.89,1010.26C4917.87,1010.47 4917.88,1010.54 4917.77,1010.72C4917.62,1010.98 4917.33,1011.09 4917.07,1010.99C4917.01,1010.97 4916.95,1010.93 4916.9,1010.88C4916.85,1010.84 4916.8,1010.78 4916.76,1010.72C4916.66,1010.54 4916.67,1010.47 4916.64,1010.26L4916.64,1001.09C4916.65,1001.01 4916.65,1000.93 4916.67,1000.85C4916.73,1000.62 4916.89,1000.44 4917.07,1000.36C4917.14,1000.34 4917.2,1000.34 4917.27,1000.32C4917.33,1000.34 4917.4,1000.35 4917.46,1000.36ZM4917.46,985.066C4917.52,985.102 4917.58,985.128 4917.64,985.175C4917.74,985.27 4917.82,985.403 4917.86,985.557C4917.88,985.633 4917.88,985.715 4917.89,985.793L4917.89,994.97C4917.87,995.177 4917.88,995.244 4917.77,995.42C4917.62,995.685 4917.33,995.799 4917.07,995.698C4917.01,995.673 4916.95,995.636 4916.9,995.589C4916.85,995.542 4916.8,995.484 4916.76,995.42C4916.66,995.244 4916.67,995.177 4916.64,994.97L4916.64,985.793C4916.65,985.715 4916.65,985.633 4916.67,985.557C4916.73,985.326 4916.89,985.141 4917.07,985.066C4917.14,985.041 4917.2,985.041 4917.27,985.029C4917.33,985.041 4917.4,985.054 4917.46,985.066ZM4917.46,969.771C4917.52,969.807 4917.58,969.833 4917.64,969.88C4917.74,969.974 4917.82,970.108 4917.86,970.262C4917.88,970.338 4917.88,970.419 4917.89,970.498L4917.89,979.675C4917.87,979.882 4917.88,979.949 4917.77,980.125C4917.62,980.39 4917.33,980.504 4917.07,980.403C4917.01,980.378 4916.95,980.341 4916.9,980.294C4916.85,980.247 4916.8,980.189 4916.76,980.125C4916.66,979.949 4916.67,979.882 4916.64,979.675L4916.64,970.498C4916.65,970.419 4916.65,970.338 4916.67,970.262C4916.73,970.031 4916.89,969.846 4917.07,969.771C4917.14,969.746 4917.2,969.746 4917.27,969.733C4917.33,969.746 4917.4,969.758 4917.46,969.771Z" style="fill:rgb(134,117,221);fill-rule:nonzero;"/>
                </g>
                <g transform="matrix(0.814584,0,0,0.101789,-3118.43,124.201)">
                    <path d="M4703.7,174.014C4703.82,174.052 4703.85,174.053 4703.95,174.127C4704.11,174.238 4704.23,174.417 4704.29,174.626C4704.33,174.765 4704.32,174.805 4704.34,174.951L4704.34,253.72C4704.32,253.866 4704.33,253.906 4704.29,254.045C4704.21,254.308 4704.04,254.519 4703.83,254.614C4703.72,254.665 4703.69,254.659 4703.57,254.672L4667.4,254.672C4667.28,254.659 4667.24,254.665 4667.13,254.614C4666.92,254.519 4666.75,254.308 4666.67,254.045C4666.63,253.906 4666.64,253.866 4666.63,253.72L4666.63,174.951C4666.64,174.805 4666.63,174.765 4666.67,174.626C4666.75,174.363 4666.92,174.152 4667.13,174.057C4667.24,174.006 4667.28,174.012 4667.4,173.999L4703.57,173.999C4703.61,174.004 4703.66,174.009 4703.7,174.014ZM4668.16,175.903L4668.16,252.768L4702.8,252.768L4702.8,175.903C4691.26,175.903 4679.71,175.903 4668.16,175.903Z" style="fill:rgb(134,117,221);fill-rule:nonzero;"/>
                </g>
                <g transform="matrix(0.814584,0,0,0.126238,-3173,118.146)">
                    <path d="M4779.96,174.207C4780.14,174.287 4780.2,174.292 4780.33,174.441C4780.37,174.496 4780.41,174.558 4780.44,174.625C4780.6,174.968 4780.48,175.385 4780.16,175.589C4779.99,175.696 4779.94,175.683 4779.75,175.711L4589.76,175.711C4589.57,175.683 4589.51,175.696 4589.34,175.589C4589.02,175.385 4588.9,174.968 4589.06,174.625C4589.09,174.558 4589.13,174.496 4589.18,174.441C4589.27,174.33 4589.4,174.249 4589.54,174.207C4589.61,174.187 4589.68,174.187 4589.76,174.176L4779.75,174.176C4779.82,174.187 4779.89,174.197 4779.96,174.207Z" style="fill:rgb(134,117,221);fill-rule:nonzero;"/>
                </g>
                <g transform="matrix(0.814584,0,0,0.126238,-3167.14,117.862)">
                    <path d="M4656.82,238.189C4656.86,238.199 4656.91,238.206 4656.95,238.22C4657.03,238.247 4657.1,238.288 4657.17,238.34C4657.23,238.392 4657.29,238.455 4657.34,238.526C4657.5,238.778 4657.5,239.113 4657.34,239.365C4657.29,239.436 4657.23,239.499 4657.17,239.551C4657.07,239.629 4656.95,239.681 4656.82,239.702C4656.78,239.709 4656.74,239.709 4656.7,239.713L4600.85,239.713C4600.8,239.709 4600.76,239.709 4600.72,239.702C4600.55,239.674 4600.4,239.59 4600.28,239.465C4600.22,239.403 4600.18,239.331 4600.14,239.254C4600.02,238.978 4600.08,238.648 4600.28,238.426C4600.34,238.363 4600.41,238.311 4600.48,238.271C4600.56,238.23 4600.64,238.203 4600.72,238.189C4600.76,238.182 4600.8,238.182 4600.85,238.178L4656.7,238.178C4656.74,238.182 4656.78,238.185 4656.82,238.189Z" style="fill:rgb(78,206,166);fill-rule:nonzero;"/>
                </g>
                <g transform="matrix(0.814584,0,0,0.126238,-3167.15,118.674)">
                    <path d="M4656.82,238.189C4656.86,238.199 4656.91,238.206 4656.95,238.22C4657.07,238.261 4657.18,238.332 4657.26,238.426C4657.32,238.488 4657.37,238.56 4657.4,238.637C4657.43,238.715 4657.45,238.798 4657.46,238.882C4657.49,239.182 4657.33,239.477 4657.06,239.62C4656.99,239.66 4656.91,239.688 4656.82,239.702C4656.78,239.709 4656.74,239.709 4656.7,239.713L4600.85,239.713C4600.8,239.709 4600.76,239.709 4600.72,239.702C4600.64,239.688 4600.56,239.66 4600.48,239.62C4600.22,239.477 4600.06,239.182 4600.08,238.882C4600.09,238.798 4600.11,238.715 4600.14,238.637C4600.18,238.56 4600.23,238.488 4600.28,238.426C4600.4,238.301 4600.55,238.216 4600.72,238.189C4600.76,238.182 4600.8,238.182 4600.85,238.178L4656.7,238.178C4656.74,238.182 4656.78,238.185 4656.82,238.189Z" style="fill:rgb(78,206,166);fill-rule:nonzero;"/>
                </g>
                <g transform="matrix(0.814584,0,0,0.126238,-3167.15,119.486)">
                    <path d="M4656.82,238.189C4656.86,238.199 4656.91,238.206 4656.95,238.22C4657.03,238.247 4657.1,238.288 4657.17,238.34C4657.23,238.392 4657.29,238.455 4657.34,238.526C4657.5,238.778 4657.5,239.113 4657.34,239.365C4657.29,239.436 4657.23,239.499 4657.17,239.551C4657.07,239.629 4656.95,239.681 4656.82,239.702C4656.78,239.709 4656.74,239.709 4656.7,239.713L4600.85,239.713C4600.8,239.709 4600.76,239.709 4600.72,239.702C4600.55,239.674 4600.4,239.59 4600.28,239.465C4600.23,239.403 4600.18,239.331 4600.14,239.254C4600.02,238.978 4600.08,238.648 4600.28,238.426C4600.34,238.363 4600.41,238.311 4600.48,238.271C4600.56,238.23 4600.64,238.203 4600.72,238.189C4600.76,238.182 4600.8,238.182 4600.85,238.178L4656.7,238.178C4656.74,238.182 4656.78,238.185 4656.82,238.189Z" style="fill:rgb(78,206,166);fill-rule:nonzero;"/>
                </g>
                <g transform="matrix(0.814584,0,0,0.0960359,-3179.29,127.043)">
                    <path d="M4664.49,293.586C4664.56,293.6 4664.62,293.618 4664.68,293.65C4664.86,293.747 4665.02,293.935 4665.1,294.171C4665.13,294.277 4665.15,294.386 4665.16,294.501C4665.36,300.593 4665.16,306.696 4665.16,312.794C4665.16,312.87 4665.16,312.889 4665.15,312.964C4665.13,313.162 4665.06,313.347 4664.95,313.492C4664.89,313.574 4664.82,313.643 4664.74,313.694C4664.4,313.92 4663.97,313.774 4663.76,313.359C4663.69,313.213 4663.65,313.052 4663.63,312.879C4663.44,306.787 4663.63,300.684 4663.63,294.586C4663.63,294.47 4663.64,294.36 4663.67,294.25C4663.75,293.979 4663.91,293.758 4664.11,293.65C4664.19,293.607 4664.28,293.588 4664.36,293.579C4664.43,293.579 4664.43,293.579 4664.49,293.586Z" style="fill:rgb(134,117,221);fill-rule:nonzero;"/>
                </g>
                <g transform="matrix(0.814584,0,0,0.0960359,-3133.92,127.039)">
                    <path d="M4664.49,293.586C4664.56,293.6 4664.62,293.618 4664.68,293.65C4664.86,293.747 4665.01,293.935 4665.1,294.171C4665.13,294.277 4665.15,294.386 4665.16,294.501C4665.36,300.593 4665.16,306.696 4665.16,312.794C4665.16,312.968 4665.13,313.132 4665.07,313.286C4665.02,313.385 4664.97,313.475 4664.9,313.551C4664.62,313.882 4664.18,313.882 4663.89,313.551C4663.78,313.419 4663.69,313.242 4663.65,313.048C4663.64,312.974 4663.64,312.955 4663.63,312.879C4663.44,306.787 4663.63,300.684 4663.63,294.586C4663.63,294.47 4663.64,294.36 4663.67,294.25C4663.75,293.979 4663.91,293.758 4664.11,293.65C4664.19,293.607 4664.28,293.588 4664.36,293.579C4664.43,293.579 4664.43,293.579 4664.49,293.586Z" style="fill:rgb(134,117,221);fill-rule:nonzero;"/>
                </g>
                <g transform="matrix(1,0,0,0.154972,-4276.83,-17.9682)">
                    <path d="M4954.87,1044.64C4954.94,1044.66 4954.96,1044.66 4955.03,1044.68C4955.13,1044.73 4955.22,1044.8 4955.28,1044.88C4955.45,1045.1 4955.45,1045.42 4955.28,1045.64C4955.23,1045.71 4955.17,1045.76 4955.1,1045.8C4955.03,1045.84 4954.95,1045.87 4954.87,1045.88C4954.84,1045.88 4954.82,1045.88 4954.79,1045.89L4925.91,1045.89C4925.88,1045.88 4925.85,1045.88 4925.82,1045.88C4925.74,1045.87 4925.66,1045.84 4925.59,1045.8C4925.33,1045.65 4925.21,1045.31 4925.33,1045.02C4925.36,1044.95 4925.41,1044.88 4925.47,1044.82C4925.54,1044.74 4925.64,1044.69 4925.74,1044.66C4925.82,1044.64 4925.83,1044.64 4925.91,1044.64L4954.79,1044.64C4954.82,1044.64 4954.84,1044.64 4954.87,1044.64Z" style="fill:rgb(134,117,221);fill-rule:nonzero;"/>
                </g>
                <g transform="matrix(1,0,0,0.154972,-4276.83,-17.0517)">
                    <path d="M4954.87,1044.64C4954.94,1044.66 4954.96,1044.66 4955.03,1044.68C4955.13,1044.73 4955.22,1044.8 4955.28,1044.88C4955.34,1044.95 4955.37,1045.02 4955.39,1045.1C4955.47,1045.37 4955.34,1045.66 4955.1,1045.8C4955.03,1045.84 4954.95,1045.87 4954.87,1045.88C4954.84,1045.88 4954.82,1045.88 4954.79,1045.89L4925.91,1045.89C4925.83,1045.88 4925.82,1045.88 4925.74,1045.87C4925.64,1045.84 4925.54,1045.78 4925.47,1045.7C4925.25,1045.49 4925.22,1045.13 4925.41,1044.88C4925.46,1044.82 4925.52,1044.76 4925.59,1044.72C4925.66,1044.68 4925.74,1044.65 4925.82,1044.64C4925.85,1044.64 4925.88,1044.64 4925.91,1044.64L4954.79,1044.64C4954.82,1044.64 4954.84,1044.64 4954.87,1044.64Z" style="fill:rgb(134,117,221);fill-rule:nonzero;"/>
                </g>
                <g transform="matrix(1,0,0,0.154972,-4276.92,-18.2378)">
                    <ellipse cx="4851.42" cy="1018.73" rx="0.978" ry="0.917" style="fill:rgb(81,99,209);"/>
                </g>
                <g transform="matrix(1,0,0,0.154972,-4276.92,-18.2378)">
                    <path d="M4851.51,1016.98C4851.6,1016.99 4851.68,1017 4851.77,1017.01C4851.97,1017.05 4852.16,1017.12 4852.34,1017.22C4852.53,1017.34 4852.71,1017.48 4852.85,1017.66C4852.98,1017.82 4853.08,1018 4853.14,1018.2C4853.2,1018.37 4853.23,1018.55 4853.23,1018.73C4853.23,1018.88 4853.21,1019.03 4853.17,1019.18C4853.14,1019.3 4853.09,1019.41 4853.04,1019.51C4852.83,1019.92 4852.46,1020.23 4852.02,1020.38C4851.83,1020.45 4851.62,1020.48 4851.42,1020.48C4850.78,1020.48 4850.16,1020.14 4849.84,1019.59C4849.76,1019.46 4849.7,1019.32 4849.66,1019.18C4849.62,1019.03 4849.6,1018.88 4849.6,1018.73C4849.6,1018.55 4849.63,1018.37 4849.69,1018.2C4849.76,1018 4849.85,1017.82 4849.98,1017.66C4850.12,1017.48 4850.3,1017.33 4850.5,1017.22C4850.67,1017.12 4850.86,1017.05 4851.06,1017.01C4851.15,1017 4851.24,1016.99 4851.33,1016.98C4851.42,1016.98 4851.42,1016.98 4851.51,1016.98ZM4851.4,1018.65C4851.36,1018.65 4851.32,1018.66 4851.29,1018.69C4851.28,1018.7 4851.28,1018.71 4851.27,1018.73C4851.27,1018.73 4851.27,1018.74 4851.28,1018.75C4851.29,1018.76 4851.3,1018.77 4851.31,1018.78C4851.38,1018.83 4851.48,1018.82 4851.54,1018.77C4851.55,1018.76 4851.56,1018.75 4851.56,1018.74C4851.56,1018.73 4851.56,1018.72 4851.56,1018.71C4851.55,1018.7 4851.54,1018.69 4851.52,1018.68C4851.51,1018.67 4851.49,1018.66 4851.47,1018.65C4851.45,1018.65 4851.43,1018.65 4851.4,1018.65Z" style="fill:rgb(134,117,221);fill-rule:nonzero;"/>
                </g>
                <g transform="matrix(1,0,0,0.154972,-4270.4,-18.2378)">
                    <ellipse cx="4851.42" cy="1018.73" rx="0.978" ry="0.917" style="fill:rgb(81,99,209);"/>
                </g>
                <g transform="matrix(1,0,0,0.154972,-4270.4,-18.2378)">
                    <path d="M4851.51,1016.98C4851.6,1016.99 4851.68,1017 4851.77,1017.01C4851.97,1017.05 4852.16,1017.12 4852.34,1017.22C4852.53,1017.34 4852.71,1017.48 4852.85,1017.66C4852.98,1017.82 4853.08,1018 4853.14,1018.2C4853.2,1018.37 4853.23,1018.55 4853.23,1018.73C4853.23,1018.88 4853.21,1019.03 4853.17,1019.18C4853.13,1019.32 4853.07,1019.46 4853,1019.59C4852.78,1019.96 4852.43,1020.24 4852.02,1020.38C4851.83,1020.45 4851.62,1020.48 4851.42,1020.48C4850.78,1020.48 4850.16,1020.14 4849.84,1019.59C4849.76,1019.46 4849.7,1019.32 4849.66,1019.18C4849.62,1019.03 4849.6,1018.88 4849.6,1018.73C4849.6,1018.55 4849.63,1018.37 4849.69,1018.2C4849.76,1018 4849.85,1017.82 4849.98,1017.66C4850.12,1017.48 4850.3,1017.34 4850.5,1017.22C4850.67,1017.12 4850.86,1017.05 4851.06,1017.01C4851.15,1017 4851.24,1016.99 4851.33,1016.98C4851.42,1016.98 4851.42,1016.98 4851.51,1016.98ZM4851.4,1018.65C4851.36,1018.65 4851.32,1018.66 4851.29,1018.69C4851.28,1018.7 4851.28,1018.71 4851.27,1018.73C4851.27,1018.73 4851.27,1018.74 4851.28,1018.75C4851.29,1018.76 4851.3,1018.77 4851.31,1018.78C4851.38,1018.83 4851.47,1018.82 4851.53,1018.77C4851.55,1018.76 4851.56,1018.75 4851.56,1018.74C4851.56,1018.73 4851.56,1018.72 4851.56,1018.71C4851.55,1018.7 4851.54,1018.69 4851.52,1018.68C4851.51,1018.67 4851.49,1018.66 4851.47,1018.65C4851.45,1018.65 4851.43,1018.65 4851.4,1018.65Z" style="fill:rgb(134,117,221);fill-rule:nonzero;"/>
                </g>
                <g transform="matrix(1,0,0,0.154972,-4263.4,-18.2378)">
                    <ellipse cx="4851.42" cy="1018.73" rx="0.978" ry="0.917" style="fill:rgb(81,99,209);"/>
                </g>
                <g transform="matrix(1,0,0,0.154972,-4263.4,-18.2378)">
                    <path d="M4851.51,1016.98C4851.6,1016.99 4851.68,1017 4851.77,1017.01C4851.97,1017.05 4852.16,1017.12 4852.34,1017.22C4852.53,1017.34 4852.71,1017.48 4852.85,1017.66C4852.98,1017.82 4853.08,1018 4853.14,1018.2C4853.2,1018.37 4853.23,1018.55 4853.23,1018.73C4853.23,1018.91 4853.2,1019.09 4853.14,1019.26C4853.1,1019.4 4853.03,1019.54 4852.95,1019.66C4852.62,1020.17 4852.03,1020.48 4851.42,1020.48C4850.81,1020.48 4850.21,1020.17 4849.88,1019.66C4849.8,1019.54 4849.74,1019.4 4849.69,1019.26C4849.63,1019.09 4849.61,1018.91 4849.61,1018.73C4849.61,1018.55 4849.63,1018.37 4849.69,1018.2C4849.76,1018 4849.85,1017.82 4849.98,1017.66C4850.12,1017.48 4850.3,1017.34 4850.5,1017.22C4850.67,1017.12 4850.86,1017.05 4851.06,1017.01C4851.15,1017 4851.24,1016.99 4851.33,1016.98C4851.42,1016.98 4851.42,1016.98 4851.51,1016.98ZM4851.4,1018.65C4851.37,1018.65 4851.33,1018.66 4851.3,1018.69C4851.29,1018.7 4851.28,1018.71 4851.27,1018.72C4851.27,1018.73 4851.27,1018.74 4851.28,1018.75C4851.29,1018.77 4851.3,1018.78 4851.32,1018.79C4851.38,1018.83 4851.48,1018.82 4851.54,1018.77C4851.55,1018.76 4851.56,1018.75 4851.56,1018.74C4851.56,1018.73 4851.56,1018.72 4851.56,1018.71C4851.55,1018.7 4851.54,1018.69 4851.52,1018.68C4851.51,1018.67 4851.49,1018.66 4851.47,1018.65C4851.45,1018.65 4851.43,1018.65 4851.4,1018.65Z" style="fill:rgb(134,117,221);fill-rule:nonzero;"/>
                </g>
                <g transform="matrix(1,0,0,0.154972,-4271.07,-18.522)">
                    <path d="M4850.06,1034.83C4850.1,1034.83 4850.14,1034.84 4850.17,1034.84C4850.27,1034.87 4850.29,1034.88 4850.38,1034.93L4897.03,1063.54C4897.06,1063.56 4897.09,1063.58 4897.12,1063.6C4897.18,1063.65 4897.23,1063.71 4897.27,1063.78C4897.43,1064.04 4897.4,1064.39 4897.2,1064.63C4897.15,1064.69 4897.09,1064.74 4897.03,1064.78C4896.96,1064.82 4896.89,1064.85 4896.82,1064.87C4896.67,1064.9 4896.51,1064.89 4896.37,1064.83C4896.33,1064.82 4896.3,1064.8 4896.27,1064.78L4849.62,1036.17C4849.59,1036.15 4849.56,1036.13 4849.53,1036.11C4849.47,1036.06 4849.42,1036 4849.38,1035.93C4849.24,1035.7 4849.24,1035.4 4849.38,1035.17C4849.42,1035.11 4849.47,1035.05 4849.53,1035C4849.61,1034.92 4849.72,1034.87 4849.83,1034.84C4849.87,1034.84 4849.91,1034.83 4849.94,1034.83C4849.98,1034.83 4850.02,1034.83 4850.06,1034.83Z" style="fill:rgb(78,206,166);fill-rule:nonzero;"/>
                </g>
                <g transform="matrix(1,0,0,0.154972,-4271.07,-18.522)">
                    <path d="M4896.7,1035.25C4896.74,1035.26 4896.78,1035.26 4896.82,1035.27C4896.93,1035.3 4897.03,1035.35 4897.12,1035.42C4897.18,1035.47 4897.23,1035.53 4897.27,1035.6C4897.41,1035.83 4897.41,1036.13 4897.27,1036.36C4897.23,1036.42 4897.18,1036.48 4897.12,1036.53C4897.09,1036.56 4897.06,1036.58 4897.03,1036.6L4850.7,1064.87C4850.67,1064.89 4850.64,1064.91 4850.6,1064.93C4850.53,1064.95 4850.45,1064.97 4850.38,1064.98C4850.3,1064.98 4850.23,1064.98 4850.15,1064.96C4849.85,1064.89 4849.62,1064.62 4849.6,1064.31C4849.59,1064.23 4849.6,1064.15 4849.61,1064.08C4849.65,1063.93 4849.73,1063.8 4849.85,1063.7C4849.88,1063.67 4849.91,1063.65 4849.94,1063.63L4896.27,1035.36C4896.36,1035.31 4896.38,1035.29 4896.48,1035.27C4896.52,1035.26 4896.55,1035.26 4896.59,1035.25C4896.63,1035.25 4896.67,1035.25 4896.7,1035.25Z" style="fill:rgb(78,206,166);fill-rule:nonzero;"/>
                </g>
                <g transform="matrix(1,0,0,0.154972,-4278.82,-18.2299)">
                    <path d="M4942.42,1058.44C4942.5,1058.46 4942.52,1058.46 4942.58,1058.49C4942.69,1058.53 4942.78,1058.6 4942.84,1058.69C4942.89,1058.75 4942.89,1058.76 4942.92,1058.83L4946.81,1068.55L4957.34,1072.15L4957.42,1072.18C4957.44,1072.19 4957.47,1072.21 4957.49,1072.22C4957.56,1072.27 4957.61,1072.33 4957.66,1072.39C4957.82,1072.63 4957.79,1072.94 4957.61,1073.15C4957.56,1073.21 4957.49,1073.27 4957.42,1073.3C4957.39,1073.31 4957.37,1073.32 4957.34,1073.33L4946.81,1076.93L4942.92,1086.65L4942.89,1086.73C4942.84,1086.8 4942.79,1086.86 4942.73,1086.91C4942.5,1087.09 4942.18,1087.09 4941.96,1086.91C4941.89,1086.86 4941.84,1086.8 4941.8,1086.73C4941.78,1086.7 4941.77,1086.68 4941.76,1086.65L4937.87,1076.93L4927.34,1073.33L4927.27,1073.3C4927.24,1073.29 4927.22,1073.28 4927.2,1073.26C4927.13,1073.21 4927.07,1073.16 4927.02,1073.09C4926.87,1072.86 4926.89,1072.54 4927.07,1072.33C4927.13,1072.27 4927.19,1072.22 4927.27,1072.18C4927.29,1072.17 4927.32,1072.16 4927.34,1072.15L4937.87,1068.55L4941.76,1058.83L4941.8,1058.76C4941.84,1058.69 4941.85,1058.68 4941.9,1058.62C4941.97,1058.55 4942.07,1058.49 4942.18,1058.46C4942.25,1058.44 4942.27,1058.44 4942.34,1058.44C4942.37,1058.44 4942.4,1058.44 4942.42,1058.44ZM4938.93,1069.28C4938.9,1069.34 4938.89,1069.36 4938.85,1069.41C4938.79,1069.5 4938.71,1069.56 4938.62,1069.61C4938.6,1069.62 4938.57,1069.63 4938.55,1069.64L4929.48,1072.74L4938.55,1075.85L4938.62,1075.87C4938.64,1075.89 4938.66,1075.9 4938.69,1075.91C4938.75,1075.95 4938.81,1076.01 4938.85,1076.07C4938.89,1076.12 4938.9,1076.14 4938.93,1076.2L4942.34,1084.74L4945.76,1076.2L4945.79,1076.13C4945.83,1076.08 4945.83,1076.06 4945.88,1076.01C4945.93,1075.95 4946,1075.91 4946.07,1075.87C4946.09,1075.86 4946.11,1075.86 4946.14,1075.85L4955.21,1072.74L4946.14,1069.64L4946.07,1069.61C4946.01,1069.58 4945.99,1069.57 4945.94,1069.53C4945.88,1069.48 4945.83,1069.42 4945.79,1069.35C4945.78,1069.33 4945.77,1069.3 4945.76,1069.28L4942.34,1060.74C4941.2,1063.59 4940.06,1066.43 4938.93,1069.28Z" style="fill:rgb(134,117,221);fill-rule:nonzero;"/>
                </g>
            </g>
        </g>
    </g>
</svg>
