<?xml version="1.0" encoding="UTF-8" standalone="no"?>
<!DOCTYPE svg PUBLIC "-//W3C//DTD SVG 1.1//EN" "http://www.w3.org/Graphics/SVG/1.1/DTD/svg11.dtd">
<svg width="100%" height="100%" viewBox="0 0 209 174" version="1.1" xmlns="http://www.w3.org/2000/svg" xmlns:xlink="http://www.w3.org/1999/xlink" xml:space="preserve" style="fill-rule:evenodd;clip-rule:evenodd;stroke-linejoin:round;stroke-miterlimit:1.41421;">
    <g transform="matrix(1,0,0,1,-2919,-608)">
        <g id="Artboard1" transform="matrix(1.18391,0,0,1.04947,2864.21,0)">
            <rect x="0" y="0" width="1280" height="800" style="fill:none;"/>
            <g transform="matrix(1,0,0,1,-3.68683,109.742)">
                <g transform="matrix(0.259549,-0.154611,0.155787,0.332819,-1146.4,1201.64)">
                    <path d="M5095.45,187.191C5095.6,187.279 5095.74,187.377 5095.86,187.499C5096.2,187.862 5096.34,188.359 5096.22,188.823C5096.17,189.009 5096.08,189.177 5095.97,189.338C5092.59,193.468 5089.07,197.509 5085.41,201.449C5085.16,201.682 5084.86,201.854 5084.51,201.93C5083.76,202.09 5082.96,201.787 5082.58,201.199C5082.5,201.063 5082.43,200.914 5082.4,200.761C5082.35,200.576 5082.35,200.385 5082.38,200.199C5082.42,199.979 5082.52,199.779 5082.65,199.591C5086.03,195.461 5089.56,191.42 5093.22,187.481C5093.59,187.128 5094.1,186.926 5094.65,186.959C5094.83,186.97 5095,187.009 5095.17,187.063C5095.27,187.101 5095.36,187.142 5095.45,187.191Z" style="fill:rgb(134,117,221);fill-rule:nonzero;"/>
                </g>
                <g transform="matrix(-0.868046,-0.192691,0.0543874,-0.311802,4572.64,1567.41)">
                    <path d="M5055.69,389.524C5055.54,389.604 5055.39,389.672 5055.23,389.709C5054.8,389.812 5054.36,389.728 5053.94,389.455C5053.49,389.167 5053.06,388.671 5052.66,387.989C5051.74,386.421 5051,383.867 5050.6,380.838C5050.45,379.731 5050.34,378.568 5050.28,377.38C5050.25,376.769 5050.24,376.156 5050.23,375.538C5050.23,374.438 5050.23,373.337 5050.23,372.237C5050.26,359.399 5050.41,346.565 5050.59,333.741C5050.84,317.181 5051.14,300.63 5051.48,284.087C5051.87,265.208 5052.3,246.337 5052.76,227.475C5053.19,209.548 5053.65,191.628 5054.14,173.714L5054.18,172.103C5054.19,171.97 5054.19,171.834 5054.2,171.704C5054.23,171.443 5054.27,171.197 5054.32,170.98C5054.37,170.763 5054.43,170.578 5054.51,170.435C5054.77,169.923 5055.12,170.025 5055.35,170.681C5055.44,170.956 5055.51,171.313 5055.55,171.705C5055.56,171.835 5055.56,171.971 5055.57,172.104C5055.69,176.608 5055.81,181.113 5055.93,185.618C5056.44,204.657 5056.91,223.703 5057.36,242.757C5057.75,259.353 5058.11,275.953 5058.44,292.562C5058.74,307.577 5059,322.598 5059.21,337.629C5059.38,350.137 5059.51,362.654 5059.52,375.175C5059.52,375.542 5059.52,375.541 5059.51,375.909C5059.5,376.402 5059.49,376.893 5059.47,377.381C5059.42,378.334 5059.34,379.271 5059.24,380.176C5058.86,383.379 5058.13,386.117 5057.19,387.816C5056.82,388.471 5056.44,388.949 5056.03,389.292C5055.92,389.378 5055.81,389.455 5055.69,389.524ZM5055.61,385.117C5055.89,384.899 5056.17,384.585 5056.42,384.146C5057.14,382.924 5057.69,380.862 5057.96,378.437C5058.06,377.463 5058.11,376.453 5058.13,375.427C5058.13,374.373 5058.13,373.318 5058.12,372.264C5058.09,360.132 5057.96,348.005 5057.79,335.885C5057.61,322.937 5057.38,309.995 5057.13,297.058C5056.51,265.082 5055.76,233.134 5054.94,201.202L5054.88,198.592C5054.35,218.794 5053.86,239.004 5053.41,259.223C5053.1,273.234 5052.8,287.249 5052.54,301.27C5052.28,314.717 5052.05,328.169 5051.88,341.629C5051.74,352.798 5051.63,363.972 5051.62,375.151C5051.62,375.421 5051.62,375.42 5051.63,375.69C5051.65,376.961 5051.74,378.202 5051.91,379.364C5052.19,381.311 5052.67,382.96 5053.26,384.025C5053.56,384.565 5053.88,384.953 5054.22,385.171C5054.63,385.433 5055.04,385.432 5055.45,385.219C5055.53,385.171 5055.53,385.171 5055.61,385.117Z" style="fill:rgb(134,117,221);fill-rule:nonzero;"/>
                </g>
                <g transform="matrix(0.987692,0,0,0.857661,-4342.93,-397.627)">
                    <path d="M4452.02,1019.24C4452.07,1019.27 4452.11,1019.3 4452.16,1019.33C4452.28,1019.45 4452.37,1019.62 4452.41,1019.81C4452.42,1019.87 4452.42,1019.94 4452.43,1020L4452.43,1140C4452.42,1140.07 4452.42,1140.13 4452.41,1140.19C4452.38,1140.32 4452.34,1140.44 4452.27,1140.54C4452.1,1140.79 4451.82,1140.88 4451.58,1140.76C4451.53,1140.73 4451.49,1140.7 4451.45,1140.67C4451.41,1140.63 4451.37,1140.59 4451.34,1140.54C4451.27,1140.44 4451.22,1140.32 4451.2,1140.19C4451.19,1140.13 4451.18,1140.07 4451.18,1140L4451.18,1020C4451.19,1019.83 4451.19,1019.78 4451.25,1019.62C4451.34,1019.39 4451.53,1019.23 4451.73,1019.2C4451.78,1019.19 4451.83,1019.2 4451.88,1019.2C4451.93,1019.21 4451.97,1019.23 4452.02,1019.24Z" style="fill:rgb(134,117,221);fill-rule:nonzero;"/>
                </g>
                <g transform="matrix(0.987692,0,0,0.857661,-4342.93,-397.627)">
                    <path d="M4452.03,1139.24L4491.8,1159.13L4531.58,1139.24C4531.71,1139.2 4531.74,1139.17 4531.88,1139.2C4531.93,1139.2 4531.98,1139.23 4532.03,1139.25L4570.92,1159.25C4571.04,1159.34 4571.08,1159.35 4571.18,1159.5C4571.21,1159.55 4571.24,1159.61 4571.26,1159.68C4571.37,1160.01 4571.29,1160.41 4571.07,1160.63C4571.03,1160.68 4570.98,1160.71 4570.93,1160.74C4570.83,1160.8 4570.72,1160.82 4570.61,1160.81C4570.56,1160.8 4570.51,1160.77 4570.46,1160.75L4531.8,1140.87L4492.03,1160.76L4491.88,1160.8C4491.73,1160.8 4491.73,1160.8 4491.58,1160.76L4451.58,1140.76C4451.53,1140.72 4451.48,1140.7 4451.44,1140.65C4451.35,1140.57 4451.28,1140.46 4451.23,1140.33C4451.12,1140 4451.19,1139.6 4451.41,1139.37C4451.45,1139.33 4451.5,1139.29 4451.55,1139.26C4451.68,1139.18 4451.73,1139.2 4451.87,1139.19C4451.92,1139.21 4451.97,1139.23 4452.03,1139.24Z" style="fill:rgb(134,117,221);fill-rule:nonzero;"/>
                </g>
                <g transform="matrix(0.987692,0,0,0.857661,-4342.38,-500.547)">
                    <path d="M4568.29,1157.89L4570.91,1159.25L4571.06,1159.35C4571.16,1159.48 4571.2,1159.5 4571.26,1159.68C4571.37,1160.01 4571.29,1160.41 4571.07,1160.63C4571.03,1160.68 4570.98,1160.71 4570.93,1160.74C4570.83,1160.8 4570.72,1160.82 4570.61,1160.81C4570.56,1160.8 4570.51,1160.77 4570.46,1160.75L4567.83,1159.4C4567.78,1159.37 4567.73,1159.34 4567.69,1159.3C4567.6,1159.21 4567.53,1159.1 4567.48,1158.97C4567.46,1158.9 4567.45,1158.84 4567.44,1158.77C4567.4,1158.41 4567.55,1158.05 4567.81,1157.9C4567.94,1157.83 4567.99,1157.85 4568.13,1157.84C4568.18,1157.86 4568.23,1157.88 4568.29,1157.89ZM4493.96,1158.31C4494.08,1158.41 4494.12,1158.42 4494.21,1158.57C4494.37,1158.87 4494.36,1159.28 4494.19,1159.56C4494.1,1159.71 4494.05,1159.72 4493.93,1159.81L4492.03,1160.76C4491.9,1160.8 4491.86,1160.83 4491.73,1160.8C4491.68,1160.8 4491.63,1160.77 4491.58,1160.76L4486.5,1158.21C4486.37,1158.13 4486.33,1158.12 4486.23,1157.97C4486.2,1157.91 4486.17,1157.85 4486.15,1157.79C4486.04,1157.46 4486.11,1157.06 4486.33,1156.83C4486.37,1156.78 4486.42,1156.75 4486.47,1156.72C4486.57,1156.66 4486.68,1156.64 4486.78,1156.65C4486.84,1156.66 4486.89,1156.69 4486.94,1156.7L4491.8,1159.13L4493.48,1158.29L4493.64,1158.24L4493.8,1158.25C4493.85,1158.27 4493.9,1158.29 4493.96,1158.31ZM4505.44,1152.43C4505.58,1152.48 4505.62,1152.48 4505.73,1152.6C4505.95,1152.83 4506.03,1153.23 4505.91,1153.56C4505.89,1153.62 4505.86,1153.68 4505.83,1153.74C4505.73,1153.89 4505.69,1153.9 4505.57,1153.99L4498.58,1157.48C4498.53,1157.49 4498.48,1157.52 4498.42,1157.53C4498.32,1157.54 4498.21,1157.52 4498.11,1157.46C4498.06,1157.43 4498.01,1157.4 4497.97,1157.35C4497.75,1157.12 4497.68,1156.72 4497.79,1156.39C4497.81,1156.33 4497.84,1156.27 4497.87,1156.21C4497.97,1156.06 4498.01,1156.05 4498.14,1155.97L4505.12,1152.47L4505.28,1152.42C4505.33,1152.43 4505.39,1152.43 4505.44,1152.43ZM4556.69,1151.93L4563.65,1155.51L4563.79,1155.61C4563.89,1155.74 4563.93,1155.77 4563.99,1155.94C4564.01,1156.01 4564.03,1156.07 4564.04,1156.14C4564.08,1156.5 4563.92,1156.86 4563.67,1157.01C4563.57,1157.06 4563.46,1157.08 4563.35,1157.07C4563.29,1157.06 4563.24,1157.03 4563.19,1157.02L4556.23,1153.44C4556.19,1153.4 4556.13,1153.38 4556.09,1153.33C4556,1153.25 4555.93,1153.14 4555.89,1153.01C4555.78,1152.67 4555.86,1152.27 4556.07,1152.05C4556.12,1152.01 4556.16,1151.97 4556.21,1151.94C4556.35,1151.87 4556.39,1151.88 4556.53,1151.88C4556.59,1151.9 4556.64,1151.91 4556.69,1151.93ZM4475.3,1150.88L4482.29,1154.38L4482.43,1154.48C4482.53,1154.6 4482.57,1154.63 4482.63,1154.8C4482.75,1155.13 4482.67,1155.53 4482.46,1155.76C4482.41,1155.81 4482.37,1155.84 4482.32,1155.87C4482.22,1155.93 4482.11,1155.95 4482,1155.94C4481.94,1155.93 4481.89,1155.9 4481.84,1155.89L4474.86,1152.39C4474.73,1152.31 4474.69,1152.3 4474.6,1152.15C4474.42,1151.87 4474.41,1151.45 4474.58,1151.16C4474.61,1151.11 4474.65,1151.05 4474.69,1151.01C4474.77,1150.92 4474.88,1150.86 4474.98,1150.84C4475.04,1150.83 4475.09,1150.84 4475.15,1150.83C4475.2,1150.85 4475.25,1150.87 4475.3,1150.88ZM4517.08,1146.61C4517.22,1146.66 4517.26,1146.66 4517.37,1146.78C4517.59,1147.01 4517.66,1147.41 4517.55,1147.74C4517.53,1147.8 4517.5,1147.87 4517.47,1147.92C4517.37,1148.07 4517.33,1148.08 4517.2,1148.17L4510.22,1151.66C4510.08,1151.7 4510.05,1151.73 4509.9,1151.7C4509.62,1151.65 4509.41,1151.35 4509.38,1150.99C4509.37,1150.92 4509.37,1150.85 4509.38,1150.78C4509.39,1150.71 4509.41,1150.64 4509.43,1150.57C4509.47,1150.44 4509.54,1150.33 4509.63,1150.25C4509.68,1150.21 4509.73,1150.18 4509.77,1150.15L4516.76,1146.65L4516.92,1146.61C4516.97,1146.61 4517.02,1146.61 4517.08,1146.61ZM4545.1,1145.97L4552.05,1149.55L4552.2,1149.65C4552.23,1149.7 4552.28,1149.74 4552.31,1149.8C4552.38,1149.91 4552.43,1150.04 4552.44,1150.18C4552.48,1150.54 4552.33,1150.9 4552.07,1151.04C4552.02,1151.07 4551.97,1151.09 4551.91,1151.1C4551.77,1151.13 4551.73,1151.1 4551.59,1151.05L4544.64,1147.47C4544.59,1147.44 4544.54,1147.41 4544.49,1147.37C4544.41,1147.29 4544.34,1147.17 4544.29,1147.04C4544.18,1146.71 4544.26,1146.31 4544.48,1146.09C4544.52,1146.04 4544.57,1146 4544.62,1145.98C4544.75,1145.9 4544.8,1145.92 4544.94,1145.91C4544.99,1145.93 4545.04,1145.95 4545.1,1145.97ZM4463.66,1145.06L4470.65,1148.56L4470.79,1148.66C4470.9,1148.78 4470.94,1148.81 4470.99,1148.98C4471.02,1149.05 4471.03,1149.12 4471.04,1149.18C4471.08,1149.54 4470.93,1149.9 4470.68,1150.05C4470.58,1150.11 4470.47,1150.13 4470.36,1150.12C4470.31,1150.11 4470.25,1150.08 4470.2,1150.07L4463.22,1146.58C4463.09,1146.49 4463.05,1146.48 4462.96,1146.33C4462.78,1146.05 4462.77,1145.64 4462.94,1145.34C4462.97,1145.29 4463.01,1145.23 4463.05,1145.19C4463.13,1145.1 4463.24,1145.04 4463.34,1145.02C4463.4,1145.01 4463.45,1145.02 4463.51,1145.01C4463.56,1145.03 4463.61,1145.05 4463.66,1145.06ZM4528.72,1140.79C4528.86,1140.84 4528.9,1140.84 4529.01,1140.96C4529.23,1141.19 4529.3,1141.59 4529.19,1141.92C4529.17,1141.98 4529.14,1142.05 4529.11,1142.1C4529.01,1142.25 4528.97,1142.26 4528.85,1142.35L4521.86,1145.84C4521.81,1145.86 4521.76,1145.88 4521.7,1145.89C4521.59,1145.9 4521.48,1145.88 4521.38,1145.82C4521.13,1145.68 4520.98,1145.32 4521.02,1144.96C4521.03,1144.89 4521.05,1144.82 4521.07,1144.75C4521.09,1144.69 4521.12,1144.63 4521.15,1144.57C4521.24,1144.42 4521.29,1144.41 4521.41,1144.33L4528.4,1140.84L4528.56,1140.79C4528.61,1140.79 4528.66,1140.79 4528.72,1140.79ZM4533.5,1140L4540.46,1143.58L4540.6,1143.68C4540.7,1143.81 4540.74,1143.84 4540.8,1144.01C4540.82,1144.08 4540.84,1144.15 4540.85,1144.22C4540.89,1144.57 4540.73,1144.93 4540.48,1145.08C4540.38,1145.13 4540.27,1145.15 4540.16,1145.14C4540.1,1145.13 4540.05,1145.1 4540,1145.09L4533.04,1141.51C4532.99,1141.47 4532.94,1141.45 4532.9,1141.41C4532.81,1141.32 4532.74,1141.21 4532.7,1141.08C4532.59,1140.75 4532.66,1140.35 4532.88,1140.12C4532.93,1140.08 4532.97,1140.04 4533.02,1140.01C4533.16,1139.94 4533.2,1139.95 4533.34,1139.95C4533.4,1139.97 4533.45,1139.99 4533.5,1140ZM4452.03,1139.24L4459.01,1142.74L4459.15,1142.84C4459.26,1142.96 4459.3,1142.99 4459.36,1143.16C4459.38,1143.23 4459.39,1143.3 4459.4,1143.37C4459.44,1143.72 4459.29,1144.09 4459.04,1144.23C4458.94,1144.29 4458.83,1144.31 4458.72,1144.3C4458.67,1144.29 4458.61,1144.26 4458.56,1144.25L4451.58,1140.76C4451.53,1140.72 4451.48,1140.7 4451.44,1140.65C4451.35,1140.57 4451.28,1140.46 4451.23,1140.33C4451.12,1140 4451.19,1139.6 4451.41,1139.37C4451.45,1139.33 4451.5,1139.29 4451.55,1139.26C4451.68,1139.18 4451.73,1139.2 4451.87,1139.19C4451.92,1139.21 4451.97,1139.23 4452.03,1139.24Z" style="fill:rgb(134,117,221);fill-rule:nonzero;"/>
                </g>
                <g transform="matrix(0.987692,0,0,0.857661,-4342.93,-397.627)">
                    <path d="M4491.94,1039.21C4491.98,1039.23 4492.03,1039.24 4492.07,1039.27C4492.24,1039.38 4492.37,1039.58 4492.41,1039.82C4492.42,1039.88 4492.42,1039.94 4492.43,1040L4492.43,1158.34C4492.42,1158.4 4492.42,1158.46 4492.41,1158.52C4492.39,1158.64 4492.35,1158.75 4492.29,1158.85C4492.23,1158.94 4492.16,1159.02 4492.07,1159.07C4491.81,1159.24 4491.49,1159.14 4491.32,1158.85C4491.26,1158.75 4491.22,1158.64 4491.19,1158.52C4491.18,1158.46 4491.18,1158.4 4491.18,1158.34L4491.18,1040C4491.18,1039.94 4491.18,1039.88 4491.19,1039.82C4491.24,1039.58 4491.36,1039.38 4491.53,1039.27C4491.65,1039.2 4491.68,1039.21 4491.8,1039.19C4491.85,1039.2 4491.9,1039.2 4491.94,1039.21Z" style="fill:rgb(134,117,221);fill-rule:nonzero;"/>
                </g>
                <g transform="matrix(0.987692,0,0,0.857661,-4342.93,-397.627)">
                    <path d="M4532.36,1019.98C4532.41,1020 4532.46,1020.01 4532.51,1020.03C4532.7,1020.13 4532.84,1020.34 4532.89,1020.6C4532.9,1020.66 4532.9,1020.73 4532.9,1020.79L4532.43,1140C4532.42,1140.07 4532.42,1140.13 4532.41,1140.2C4532.38,1140.33 4532.33,1140.44 4532.27,1140.54C4532.1,1140.79 4531.82,1140.88 4531.58,1140.76C4531.53,1140.73 4531.49,1140.7 4531.44,1140.66C4531.4,1140.63 4531.37,1140.58 4531.33,1140.53C4531.27,1140.43 4531.22,1140.32 4531.2,1140.19C4531.18,1140.13 4531.18,1140.06 4531.18,1140L4531.66,1020.78C4531.66,1020.72 4531.66,1020.65 4531.68,1020.59C4531.73,1020.33 4531.87,1020.12 4532.06,1020.03C4532.11,1020.01 4532.16,1020 4532.21,1019.98C4532.26,1019.98 4532.31,1019.98 4532.36,1019.98Z" style="fill:rgb(134,117,221);fill-rule:nonzero;"/>
                </g>
                <g transform="matrix(0.987692,0,0,0.857661,-4342.93,-397.627)">
                    <path d="M4572.02,1152.66C4572.07,1152.69 4572.11,1152.71 4572.16,1152.75C4572.28,1152.86 4572.37,1153.03 4572.41,1153.22C4572.42,1153.28 4572.42,1153.35 4572.43,1153.41L4572.43,1160C4572.42,1160.07 4572.42,1160.13 4572.41,1160.19C4572.38,1160.32 4572.34,1160.44 4572.27,1160.54C4572.24,1160.59 4572.2,1160.63 4572.16,1160.67C4571.94,1160.86 4571.66,1160.86 4571.45,1160.67C4571.41,1160.63 4571.37,1160.59 4571.34,1160.54C4571.27,1160.44 4571.22,1160.32 4571.2,1160.19C4571.19,1160.13 4571.19,1160.07 4571.18,1160L4571.18,1153.41C4571.19,1153.24 4571.19,1153.19 4571.25,1153.04C4571.34,1152.8 4571.53,1152.64 4571.73,1152.61C4571.78,1152.6 4571.83,1152.61 4571.88,1152.61C4571.93,1152.63 4571.98,1152.64 4572.02,1152.66ZM4572.02,1136.45C4572.07,1136.49 4572.11,1136.51 4572.16,1136.55C4572.28,1136.66 4572.37,1136.83 4572.41,1137.02C4572.42,1137.08 4572.42,1137.15 4572.43,1137.21L4572.43,1146.93C4572.42,1147 4572.42,1147.06 4572.41,1147.13C4572.38,1147.26 4572.34,1147.37 4572.27,1147.47C4572.1,1147.72 4571.82,1147.81 4571.58,1147.69C4571.53,1147.67 4571.49,1147.64 4571.45,1147.6C4571.41,1147.56 4571.37,1147.52 4571.34,1147.47C4571.27,1147.37 4571.22,1147.26 4571.2,1147.13C4571.19,1147.06 4571.19,1147 4571.18,1146.93L4571.18,1137.21C4571.19,1137.04 4571.19,1136.99 4571.25,1136.84C4571.34,1136.6 4571.53,1136.44 4571.73,1136.41C4571.78,1136.4 4571.83,1136.41 4571.88,1136.41C4571.93,1136.42 4571.98,1136.44 4572.02,1136.45ZM4572.02,1120.25C4572.07,1120.28 4572.11,1120.31 4572.16,1120.34C4572.28,1120.45 4572.37,1120.62 4572.41,1120.82C4572.42,1120.88 4572.42,1120.95 4572.43,1121.01L4572.43,1130.73C4572.42,1130.8 4572.42,1130.86 4572.41,1130.92C4572.38,1131.05 4572.34,1131.17 4572.27,1131.27C4572.24,1131.32 4572.2,1131.36 4572.16,1131.4C4571.94,1131.59 4571.66,1131.59 4571.45,1131.4C4571.41,1131.36 4571.37,1131.32 4571.34,1131.27C4571.27,1131.17 4571.22,1131.05 4571.2,1130.92C4571.19,1130.86 4571.19,1130.8 4571.18,1130.73L4571.18,1121.01C4571.19,1120.95 4571.19,1120.88 4571.2,1120.82C4571.24,1120.56 4571.39,1120.35 4571.58,1120.25C4571.71,1120.19 4571.74,1120.21 4571.88,1120.21C4571.93,1120.22 4571.98,1120.24 4572.02,1120.25ZM4572.02,1104.05C4572.07,1104.08 4572.11,1104.11 4572.16,1104.14C4572.28,1104.25 4572.37,1104.42 4572.41,1104.61C4572.42,1104.68 4572.42,1104.74 4572.43,1104.81L4572.43,1114.53C4572.42,1114.59 4572.42,1114.66 4572.41,1114.72C4572.38,1114.85 4572.34,1114.97 4572.27,1115.07C4572.1,1115.32 4571.82,1115.4 4571.58,1115.29C4571.53,1115.26 4571.49,1115.23 4571.45,1115.2C4571.41,1115.16 4571.37,1115.12 4571.34,1115.07C4571.27,1114.97 4571.22,1114.85 4571.2,1114.72C4571.19,1114.66 4571.19,1114.59 4571.18,1114.53L4571.18,1104.81C4571.19,1104.64 4571.19,1104.59 4571.25,1104.43C4571.34,1104.2 4571.53,1104.04 4571.73,1104C4571.78,1104 4571.83,1104 4571.88,1104C4571.93,1104.02 4571.98,1104.04 4572.02,1104.05ZM4572.02,1087.85C4572.07,1087.88 4572.11,1087.9 4572.16,1087.94C4572.28,1088.05 4572.37,1088.22 4572.41,1088.41C4572.42,1088.48 4572.42,1088.54 4572.43,1088.61L4572.43,1098.33C4572.42,1098.39 4572.42,1098.46 4572.41,1098.52C4572.38,1098.65 4572.34,1098.77 4572.27,1098.87C4572.24,1098.91 4572.2,1098.96 4572.16,1098.99C4571.94,1099.18 4571.66,1099.18 4571.45,1098.99C4571.41,1098.96 4571.37,1098.91 4571.34,1098.87C4571.27,1098.77 4571.22,1098.65 4571.2,1098.52C4571.19,1098.46 4571.19,1098.39 4571.18,1098.33L4571.18,1088.61C4571.19,1088.54 4571.19,1088.48 4571.2,1088.41C4571.24,1088.16 4571.39,1087.94 4571.58,1087.85C4571.71,1087.79 4571.74,1087.8 4571.88,1087.8C4571.93,1087.82 4571.98,1087.83 4572.02,1087.85ZM4572.02,1071.65C4572.07,1071.68 4572.11,1071.7 4572.16,1071.74C4572.28,1071.85 4572.37,1072.02 4572.41,1072.21C4572.42,1072.27 4572.42,1072.34 4572.43,1072.4L4572.43,1082.12C4572.42,1082.19 4572.42,1082.26 4572.41,1082.32C4572.38,1082.45 4572.34,1082.56 4572.27,1082.66C4572.24,1082.71 4572.2,1082.76 4572.16,1082.79C4571.94,1082.98 4571.66,1082.98 4571.45,1082.79C4571.41,1082.76 4571.37,1082.71 4571.34,1082.66C4571.27,1082.56 4571.22,1082.45 4571.2,1082.32C4571.19,1082.26 4571.19,1082.19 4571.18,1082.12L4571.18,1072.4C4571.19,1072.34 4571.19,1072.27 4571.2,1072.21C4571.24,1071.95 4571.39,1071.74 4571.58,1071.65C4571.71,1071.58 4571.74,1071.6 4571.88,1071.6C4571.93,1071.62 4571.98,1071.63 4572.02,1071.65ZM4572.02,1055.44C4572.07,1055.47 4572.11,1055.5 4572.16,1055.54C4572.28,1055.65 4572.37,1055.82 4572.41,1056.01C4572.42,1056.07 4572.42,1056.14 4572.43,1056.2L4572.43,1065.92C4572.42,1065.99 4572.42,1066.05 4572.41,1066.12C4572.38,1066.25 4572.34,1066.36 4572.27,1066.46C4572.1,1066.71 4571.82,1066.8 4571.58,1066.68C4571.53,1066.66 4571.49,1066.63 4571.45,1066.59C4571.41,1066.55 4571.37,1066.51 4571.34,1066.46C4571.27,1066.36 4571.22,1066.25 4571.2,1066.12C4571.19,1066.05 4571.19,1065.99 4571.18,1065.92L4571.18,1056.2C4571.19,1056.14 4571.19,1056.07 4571.2,1056.01C4571.24,1055.75 4571.39,1055.54 4571.58,1055.44C4571.71,1055.38 4571.74,1055.4 4571.88,1055.4C4571.93,1055.41 4571.98,1055.43 4572.02,1055.44ZM4572.02,1039.24C4572.07,1039.27 4572.11,1039.3 4572.16,1039.33C4572.28,1039.44 4572.37,1039.62 4572.41,1039.81C4572.42,1039.87 4572.42,1039.93 4572.43,1040L4572.43,1049.72C4572.42,1049.79 4572.42,1049.85 4572.41,1049.91C4572.38,1050.04 4572.34,1050.16 4572.27,1050.26C4572.24,1050.31 4572.2,1050.35 4572.16,1050.39C4571.94,1050.58 4571.66,1050.58 4571.45,1050.39C4571.41,1050.35 4571.37,1050.31 4571.34,1050.26C4571.27,1050.16 4571.22,1050.04 4571.2,1049.91C4571.19,1049.85 4571.19,1049.79 4571.18,1049.72L4571.18,1040C4571.19,1039.93 4571.19,1039.87 4571.2,1039.81C4571.24,1039.55 4571.39,1039.34 4571.58,1039.24C4571.71,1039.18 4571.74,1039.2 4571.88,1039.2C4571.93,1039.21 4571.98,1039.23 4572.02,1039.24Z" style="fill:rgb(134,117,221);fill-rule:nonzero;"/>
                </g>
                <g transform="matrix(0.987692,0,0,0.857661,-4342.12,-397.641)">
                    <path d="M4456.53,1033.19C4456.62,1033.21 4456.62,1033.21 4456.7,1033.24L4483.7,1046.23C4483.77,1046.27 4483.79,1046.28 4483.85,1046.33C4483.96,1046.44 4484.05,1046.6 4484.09,1046.77C4484.11,1046.87 4484.1,1046.89 4484.11,1046.99L4484.22,1073.37C4484.22,1073.4 4484.22,1073.44 4484.22,1073.48C4484.21,1073.55 4484.19,1073.62 4484.17,1073.69C4484.07,1073.97 4483.86,1074.16 4483.63,1074.18C4483.57,1074.18 4483.51,1074.18 4483.45,1074.16C4483.43,1074.15 4483.4,1074.14 4483.37,1074.12L4456.37,1060.5C4456.31,1060.46 4456.29,1060.45 4456.23,1060.4C4456.12,1060.29 4456.03,1060.13 4456,1059.96C4455.98,1059.87 4455.98,1059.84 4455.97,1059.75L4455.86,1034.01C4455.87,1033.91 4455.86,1033.88 4455.88,1033.78C4455.93,1033.57 4456.05,1033.38 4456.2,1033.28C4456.25,1033.25 4456.31,1033.22 4456.36,1033.21C4456.39,1033.2 4456.42,1033.2 4456.45,1033.19C4456.48,1033.19 4456.51,1033.19 4456.53,1033.19ZM4457.22,1059.19L4482.97,1072.18L4482.86,1047.56L4457.11,1035.17C4457.15,1043.17 4457.18,1051.18 4457.22,1059.19Z" style="fill:rgb(134,117,221);fill-rule:nonzero;"/>
                </g>
                <g transform="matrix(-0.987692,0,0,1.28649,4522.03,-829.571)">
                    <path d="M4456.55,1037.66C4456.46,1037.67 4456.44,1037.67 4456.36,1037.7C4456.19,1037.76 4456.06,1037.89 4456,1038.04C4455.98,1038.11 4455.98,1038.13 4455.97,1038.2L4455.97,1062.45C4455.98,1062.52 4455.98,1062.54 4456,1062.61C4456.04,1062.71 4456.11,1062.8 4456.21,1062.87C4456.27,1062.92 4456.3,1062.92 4456.37,1062.95L4483.37,1072.14C4483.4,1072.15 4483.43,1072.16 4483.46,1072.16C4483.52,1072.18 4483.58,1072.18 4483.65,1072.18C4483.86,1072.16 4484.07,1072.04 4484.16,1071.87C4484.19,1071.82 4484.21,1071.77 4484.22,1071.72C4484.22,1071.69 4484.22,1071.66 4484.22,1071.64L4484.11,1046.99C4484.1,1046.92 4484.11,1046.9 4484.08,1046.83C4484.04,1046.72 4483.97,1046.63 4483.87,1046.57C4483.8,1046.52 4483.78,1046.52 4483.7,1046.49L4456.82,1037.69C4456.73,1037.67 4456.73,1037.67 4456.64,1037.66C4456.61,1037.66 4456.58,1037.66 4456.55,1037.66ZM4482.86,1047.37L4482.97,1070.85L4457.22,1062.08L4457.22,1038.98C4465.77,1041.78 4474.32,1044.57 4482.86,1047.37Z" style="fill:rgb(134,117,221);fill-rule:nonzero;"/>
                </g>
                <g transform="matrix(0.987692,0,0,0.857661,-4347.66,-360.543)">
                    <path d="M4456.86,1033.19C4456.95,1033.21 4456.95,1033.21 4457.03,1033.25L4483.32,1046.5C4483.39,1046.54 4483.41,1046.55 4483.47,1046.61C4483.59,1046.72 4483.67,1046.88 4483.7,1047.06C4483.72,1047.15 4483.72,1047.18 4483.72,1047.28L4483.22,1073.26C4483.22,1073.3 4483.22,1073.34 4483.21,1073.37C4483.2,1073.44 4483.19,1073.52 4483.16,1073.58C4483.06,1073.86 4482.85,1074.04 4482.62,1074.05C4482.56,1074.05 4482.5,1074.05 4482.45,1074.03C4482.42,1074.02 4482.39,1074 4482.37,1073.99L4456.37,1060.5C4456.3,1060.46 4456.28,1060.45 4456.22,1060.39C4456.11,1060.28 4456.03,1060.12 4455.99,1059.95C4455.98,1059.86 4455.98,1059.83 4455.97,1059.74L4456.18,1033.99C4456.19,1033.89 4456.18,1033.87 4456.2,1033.77C4456.25,1033.56 4456.37,1033.37 4456.53,1033.27C4456.58,1033.24 4456.63,1033.22 4456.69,1033.2C4456.72,1033.2 4456.75,1033.19 4456.78,1033.19C4456.8,1033.19 4456.83,1033.19 4456.86,1033.19ZM4457.23,1059.2L4482,1072.06L4482.46,1047.81L4457.42,1035.18C4457.35,1043.18 4457.29,1051.19 4457.23,1059.2Z" style="fill:rgb(134,117,221);fill-rule:nonzero;"/>
                </g>
                <g transform="matrix(0.988448,0,0,0.857661,-4272.02,-341.022)">
                    <path d="M4474.19,1068.03C4474.27,1068.05 4474.27,1068.05 4474.35,1068.09L4481.29,1071.69C4481.32,1071.71 4481.35,1071.72 4481.37,1071.74C4481.44,1071.79 4481.51,1071.87 4481.56,1071.96C4481.61,1072.05 4481.65,1072.15 4481.67,1072.26C4481.74,1072.62 4481.59,1073.02 4481.33,1073.18C4481.23,1073.24 4481.11,1073.27 4481,1073.25C4480.92,1073.24 4480.9,1073.23 4480.83,1073.2L4473.89,1069.59C4473.86,1069.58 4473.84,1069.56 4473.81,1069.54C4473.74,1069.49 4473.67,1069.41 4473.62,1069.33C4473.59,1069.27 4473.56,1069.2 4473.54,1069.13C4473.44,1068.82 4473.51,1068.45 4473.71,1068.23C4473.8,1068.13 4473.9,1068.07 4474.02,1068.04C4474.04,1068.03 4474.07,1068.03 4474.1,1068.03C4474.13,1068.03 4474.16,1068.03 4474.19,1068.03ZM4482.93,1058.38C4482.95,1058.39 4482.98,1058.39 4483.01,1058.4C4483.07,1058.42 4483.12,1058.45 4483.17,1058.48C4483.32,1058.59 4483.43,1058.78 4483.47,1058.99C4483.49,1059.09 4483.49,1059.11 4483.49,1059.21L4483.3,1068.93C4483.3,1069.03 4483.3,1069.05 4483.28,1069.15C4483.24,1069.29 4483.18,1069.42 4483.1,1069.52C4482.88,1069.77 4482.54,1069.79 4482.31,1069.56C4482.24,1069.49 4482.18,1069.41 4482.14,1069.31C4482.1,1069.22 4482.07,1069.11 4482.06,1069C4482.06,1068.96 4482.06,1068.93 4482.06,1068.89L4482.24,1059.17C4482.25,1059.07 4482.25,1059.05 4482.27,1058.95C4482.32,1058.74 4482.44,1058.56 4482.6,1058.46C4482.65,1058.43 4482.7,1058.41 4482.76,1058.39C4482.78,1058.39 4482.81,1058.39 4482.84,1058.38C4482.87,1058.38 4482.9,1058.38 4482.93,1058.38ZM4462.61,1062.03C4462.69,1062.05 4462.69,1062.05 4462.78,1062.08L4469.72,1065.68C4469.75,1065.7 4469.77,1065.71 4469.8,1065.73C4469.87,1065.79 4469.94,1065.86 4469.99,1065.95C4470.04,1066.04 4470.07,1066.14 4470.1,1066.25C4470.16,1066.62 4470.02,1067.01 4469.75,1067.17C4469.65,1067.23 4469.54,1067.26 4469.42,1067.24C4469.35,1067.23 4469.33,1067.22 4469.26,1067.19L4462.31,1063.58C4462.29,1063.57 4462.26,1063.55 4462.24,1063.54C4462.16,1063.48 4462.1,1063.41 4462.05,1063.32C4461.89,1063.05 4461.88,1062.67 4462.03,1062.38C4462.06,1062.32 4462.1,1062.27 4462.14,1062.22C4462.22,1062.12 4462.33,1062.06 4462.44,1062.03C4462.47,1062.03 4462.5,1062.03 4462.53,1062.02C4462.56,1062.02 4462.58,1062.03 4462.61,1062.03ZM4456.71,1051.06C4456.74,1051.07 4456.77,1051.07 4456.79,1051.08C4456.85,1051.09 4456.9,1051.12 4456.95,1051.15C4457.1,1051.26 4457.22,1051.44 4457.26,1051.66C4457.28,1051.75 4457.28,1051.78 4457.28,1051.88L4457.23,1059.2L4458.15,1059.68L4458.22,1059.72C4458.25,1059.75 4458.27,1059.76 4458.29,1059.79C4458.39,1059.88 4458.45,1060 4458.5,1060.13C4458.6,1060.49 4458.5,1060.9 4458.26,1061.11C4458.18,1061.17 4458.1,1061.21 4458.02,1061.23C4457.94,1061.25 4457.85,1061.24 4457.77,1061.21C4457.74,1061.21 4457.71,1061.19 4457.69,1061.18L4456.37,1060.5C4456.3,1060.46 4456.28,1060.45 4456.22,1060.39C4456.11,1060.28 4456.03,1060.12 4455.99,1059.95C4455.98,1059.86 4455.98,1059.83 4455.98,1059.74L4456.04,1051.86C4456.04,1051.76 4456.04,1051.74 4456.06,1051.64C4456.11,1051.43 4456.23,1051.25 4456.38,1051.15C4456.43,1051.11 4456.48,1051.09 4456.54,1051.07C4456.57,1051.07 4456.6,1051.07 4456.62,1051.06C4456.65,1051.06 4456.68,1051.06 4456.71,1051.06ZM4480.1,1044.91C4480.18,1044.93 4480.18,1044.93 4480.27,1044.96L4483.32,1046.5C4483.39,1046.54 4483.41,1046.55 4483.47,1046.61C4483.59,1046.72 4483.67,1046.88 4483.7,1047.06C4483.72,1047.15 4483.72,1047.18 4483.72,1047.28L4483.62,1052.73C4483.61,1052.77 4483.61,1052.81 4483.61,1052.84C4483.59,1052.95 4483.56,1053.06 4483.52,1053.15C4483.47,1053.24 4483.41,1053.33 4483.34,1053.39C4483.1,1053.6 4482.77,1053.56 4482.56,1053.29C4482.48,1053.19 4482.42,1053.06 4482.39,1052.91C4482.37,1052.82 4482.37,1052.79 4482.37,1052.69L4482.46,1047.81L4479.82,1046.47L4479.74,1046.42C4479.71,1046.4 4479.69,1046.39 4479.67,1046.36C4479.6,1046.3 4479.54,1046.21 4479.5,1046.12C4479.47,1046.05 4479.45,1045.98 4479.44,1045.91C4479.37,1045.58 4479.48,1045.23 4479.69,1045.04C4479.77,1044.98 4479.85,1044.94 4479.93,1044.92C4479.96,1044.91 4479.99,1044.91 4480.02,1044.91C4480.04,1044.91 4480.07,1044.91 4480.1,1044.91ZM4456.86,1033.19C4456.95,1033.21 4456.95,1033.21 4457.03,1033.25L4464,1036.76C4464.07,1036.8 4464.09,1036.81 4464.15,1036.87C4464.24,1036.95 4464.31,1037.08 4464.35,1037.21C4464.46,1037.57 4464.36,1037.98 4464.12,1038.19C4464.05,1038.25 4463.97,1038.29 4463.88,1038.31C4463.8,1038.33 4463.71,1038.33 4463.63,1038.3C4463.6,1038.29 4463.57,1038.28 4463.55,1038.27L4457.22,1035.08L4457.22,1035.08L4457.28,1035.16C4457.32,1035.24 4457.33,1035.26 4457.36,1035.35C4457.39,1035.42 4457.4,1035.49 4457.41,1035.57C4457.41,1035.6 4457.41,1035.64 4457.41,1035.68L4457.34,1045.4C4457.33,1045.49 4457.33,1045.52 4457.31,1045.62C4457.28,1045.76 4457.22,1045.89 4457.13,1045.99C4456.92,1046.24 4456.58,1046.27 4456.35,1046.05C4456.28,1045.98 4456.22,1045.9 4456.18,1045.8C4456.13,1045.71 4456.1,1045.6 4456.09,1045.49C4456.09,1045.45 4456.09,1045.42 4456.09,1045.38L4456.17,1035.66C4456.17,1035.62 4456.17,1035.59 4456.17,1035.55C4456.18,1035.48 4456.2,1035.4 4456.22,1035.34C4456.32,1035.05 4456.54,1034.86 4456.78,1034.86L4456.58,1034.76C4456.55,1034.74 4456.53,1034.73 4456.5,1034.71C4456.43,1034.65 4456.36,1034.58 4456.31,1034.49C4456.15,1034.22 4456.14,1033.84 4456.28,1033.56C4456.31,1033.5 4456.35,1033.44 4456.39,1033.39C4456.48,1033.3 4456.58,1033.23 4456.69,1033.2C4456.72,1033.2 4456.75,1033.19 4456.78,1033.19C4456.81,1033.19 4456.83,1033.19 4456.86,1033.19ZM4468.48,1039.05C4468.57,1039.07 4468.57,1039.07 4468.65,1039.1L4475.62,1042.62C4475.69,1042.66 4475.7,1042.66 4475.77,1042.72C4475.86,1042.81 4475.93,1042.93 4475.97,1043.07C4476.08,1043.42 4475.98,1043.84 4475.74,1044.05C4475.67,1044.11 4475.59,1044.15 4475.5,1044.17C4475.42,1044.19 4475.33,1044.19 4475.25,1044.16C4475.22,1044.15 4475.19,1044.14 4475.17,1044.13L4468.2,1040.61C4468.17,1040.6 4468.14,1040.58 4468.12,1040.57C4468.02,1040.5 4467.94,1040.39 4467.88,1040.26C4467.75,1039.96 4467.78,1039.59 4467.95,1039.33C4467.99,1039.27 4468.03,1039.22 4468.08,1039.18C4468.15,1039.12 4468.23,1039.08 4468.31,1039.06C4468.34,1039.05 4468.37,1039.05 4468.4,1039.05C4468.43,1039.05 4468.45,1039.05 4468.48,1039.05Z" style="fill:rgb(134,117,221);fill-rule:nonzero;"/>
                </g>
                <g transform="matrix(0.987692,0,0,1.11422,-4342.93,-695.234)">
                    <path d="M4456.9,1086.38C4456.97,1086.4 4456.97,1086.4 4457.05,1086.43L4483.05,1097.43C4483.11,1097.46 4483.12,1097.46 4483.18,1097.5C4483.26,1097.57 4483.33,1097.65 4483.37,1097.75C4483.47,1097.97 4483.43,1098.23 4483.27,1098.41C4483.22,1098.47 4483.16,1098.52 4483.09,1098.55C4483.02,1098.59 4482.94,1098.61 4482.87,1098.62C4482.79,1098.63 4482.71,1098.62 4482.63,1098.6C4482.61,1098.59 4482.58,1098.58 4482.56,1098.57L4456.56,1087.57C4456.54,1087.56 4456.51,1087.55 4456.49,1087.54C4456.4,1087.49 4456.32,1087.41 4456.27,1087.32C4456.13,1087.09 4456.16,1086.79 4456.33,1086.59C4456.38,1086.53 4456.44,1086.48 4456.51,1086.45C4456.58,1086.41 4456.66,1086.39 4456.74,1086.38C4456.76,1086.38 4456.79,1086.38 4456.82,1086.38C4456.84,1086.38 4456.87,1086.38 4456.9,1086.38Z" style="fill:rgb(134,117,221);fill-rule:nonzero;"/>
                </g>
                <g transform="matrix(0.987692,0,0,1.11422,-4336.52,-649.771)">
                    <path d="M4456.86,1086.38C4456.91,1086.39 4456.93,1086.39 4456.98,1086.4C4457,1086.41 4457.02,1086.42 4457.05,1086.43L4475.15,1094.08C4475.17,1094.09 4475.19,1094.1 4475.21,1094.11C4475.28,1094.15 4475.35,1094.21 4475.4,1094.28C4475.55,1094.48 4475.57,1094.75 4475.45,1094.96C4475.42,1095.02 4475.38,1095.07 4475.33,1095.11C4475.28,1095.16 4475.23,1095.2 4475.17,1095.22C4475.05,1095.28 4474.91,1095.3 4474.79,1095.27C4474.73,1095.26 4474.72,1095.25 4474.66,1095.23L4456.56,1087.57C4456.51,1087.55 4456.49,1087.55 4456.44,1087.51C4456.37,1087.46 4456.31,1087.4 4456.27,1087.32C4456.23,1087.27 4456.21,1087.2 4456.19,1087.14C4456.13,1086.88 4456.25,1086.6 4456.48,1086.47C4456.56,1086.42 4456.64,1086.39 4456.73,1086.38C4456.75,1086.38 4456.77,1086.38 4456.79,1086.38C4456.81,1086.38 4456.83,1086.38 4456.86,1086.38Z" style="fill:rgb(134,117,221);fill-rule:nonzero;"/>
                </g>
                <g transform="matrix(0.987692,0,0,1.11422,-4336.9,-639.685)">
                    <path d="M4456.91,1086.38C4456.98,1086.4 4456.98,1086.4 4457.05,1086.43L4479.37,1095.87C4479.43,1095.9 4479.45,1095.9 4479.5,1095.94C4479.6,1096.02 4479.67,1096.12 4479.72,1096.23C4479.74,1096.3 4479.75,1096.37 4479.75,1096.44C4479.76,1096.69 4479.61,1096.92 4479.38,1097.02C4479.32,1097.05 4479.24,1097.06 4479.17,1097.07C4479.1,1097.07 4479.03,1097.07 4478.95,1097.05C4478.93,1097.04 4478.91,1097.03 4478.89,1097.02L4456.56,1087.57C4456.5,1087.55 4456.48,1087.54 4456.43,1087.5C4456.36,1087.44 4456.29,1087.37 4456.25,1087.28C4456.21,1087.22 4456.19,1087.15 4456.18,1087.08C4456.15,1086.81 4456.3,1086.54 4456.55,1086.43C4456.62,1086.4 4456.69,1086.38 4456.76,1086.38C4456.79,1086.38 4456.81,1086.38 4456.83,1086.38C4456.86,1086.38 4456.88,1086.38 4456.91,1086.38Z" style="fill:rgb(134,117,221);fill-rule:nonzero;"/>
                </g>
                <g transform="matrix(0.987692,0,0,1.11422,-4343.3,-690.22)">
                    <path d="M4456.9,1086.38C4456.97,1086.4 4456.97,1086.4 4457.05,1086.43L4483.05,1097.43C4483.11,1097.46 4483.12,1097.46 4483.18,1097.5C4483.26,1097.57 4483.33,1097.65 4483.37,1097.75C4483.4,1097.82 4483.42,1097.9 4483.43,1097.98C4483.44,1098.21 4483.3,1098.44 4483.09,1098.55C4483.02,1098.59 4482.94,1098.61 4482.87,1098.62C4482.79,1098.63 4482.71,1098.62 4482.63,1098.6C4482.61,1098.59 4482.58,1098.58 4482.56,1098.57L4456.56,1087.57C4456.54,1087.56 4456.51,1087.55 4456.49,1087.54C4456.42,1087.5 4456.36,1087.45 4456.31,1087.39C4456.26,1087.33 4456.23,1087.25 4456.2,1087.18C4456.13,1086.92 4456.23,1086.64 4456.45,1086.49C4456.53,1086.43 4456.63,1086.39 4456.74,1086.38C4456.76,1086.38 4456.79,1086.38 4456.82,1086.38C4456.84,1086.38 4456.87,1086.38 4456.9,1086.38Z" style="fill:rgb(134,117,221);fill-rule:nonzero;"/>
                </g>
                <g transform="matrix(0.987692,0,0,1.11422,-4336.9,-644.757)">
                    <path d="M4456.85,1086.38C4456.87,1086.38 4456.89,1086.38 4456.92,1086.39C4456.98,1086.4 4456.99,1086.4 4457.05,1086.43L4475.94,1094.42C4475.96,1094.43 4475.98,1094.44 4476.01,1094.45C4476.08,1094.5 4476.15,1094.56 4476.2,1094.63C4476.24,1094.68 4476.28,1094.75 4476.3,1094.81C4476.32,1094.87 4476.33,1094.94 4476.32,1095.01C4476.32,1095.26 4476.16,1095.49 4475.92,1095.58C4475.81,1095.62 4475.7,1095.63 4475.59,1095.61C4475.53,1095.6 4475.51,1095.59 4475.46,1095.57L4456.56,1087.57C4456.54,1087.56 4456.52,1087.56 4456.5,1087.55C4456.42,1087.5 4456.35,1087.44 4456.3,1087.37C4456.26,1087.31 4456.23,1087.25 4456.21,1087.19C4456.13,1086.95 4456.21,1086.68 4456.41,1086.52C4456.48,1086.46 4456.56,1086.42 4456.65,1086.4C4456.71,1086.38 4456.72,1086.38 4456.78,1086.38C4456.8,1086.38 4456.83,1086.38 4456.85,1086.38Z" style="fill:rgb(134,117,221);fill-rule:nonzero;"/>
                </g>
                <g transform="matrix(0.987692,0,0,1.11422,-4337.28,-634.671)">
                    <path d="M4456.9,1086.38C4456.97,1086.4 4456.97,1086.4 4457.05,1086.43L4479.84,1096.07C4479.9,1096.1 4479.92,1096.11 4479.97,1096.14C4480.07,1096.22 4480.15,1096.33 4480.19,1096.45C4480.21,1096.52 4480.23,1096.59 4480.22,1096.67C4480.21,1096.9 4480.07,1097.11 4479.87,1097.21C4479.8,1097.24 4479.73,1097.26 4479.65,1097.27C4479.58,1097.27 4479.5,1097.27 4479.43,1097.24C4479.4,1097.24 4479.38,1097.23 4479.36,1097.22L4456.56,1087.57C4456.54,1087.56 4456.51,1087.55 4456.49,1087.54C4456.4,1087.49 4456.33,1087.42 4456.28,1087.34C4456.12,1087.1 4456.15,1086.77 4456.35,1086.57C4456.4,1086.52 4456.47,1086.47 4456.53,1086.44C4456.6,1086.4 4456.68,1086.38 4456.75,1086.38C4456.78,1086.38 4456.8,1086.38 4456.83,1086.38C4456.85,1086.38 4456.88,1086.38 4456.9,1086.38Z" style="fill:rgb(134,117,221);fill-rule:nonzero;"/>
                </g>
                <g transform="matrix(0.987692,0,0,1.11422,-4342.93,-695.234)">
                    <path d="M4603.6,1052.64C4604.62,1052.65 4605.65,1052.7 4606.66,1052.8C4608.28,1052.97 4609.89,1053.28 4611.45,1053.75C4612.74,1054.14 4614,1054.63 4615.2,1055.23C4616.31,1055.77 4617.37,1056.41 4618.38,1057.11C4620.43,1058.52 4622.25,1060.23 4623.91,1062.07L4624.04,1062.22C4624.07,1062.25 4624.09,1062.28 4624.11,1062.32C4624.16,1062.39 4624.18,1062.47 4624.19,1062.55C4624.21,1062.63 4624.2,1062.71 4624.18,1062.79C4624.11,1063.08 4623.84,1063.27 4623.54,1063.26C4623.42,1063.25 4623.3,1063.21 4623.2,1063.13C4623.17,1063.11 4623.14,1063.08 4623.11,1063.05C4622.94,1062.86 4622.77,1062.67 4622.6,1062.49C4621.3,1061.08 4619.9,1059.77 4618.36,1058.63C4616.8,1057.47 4615.1,1056.48 4613.29,1055.73C4611.95,1055.17 4610.55,1054.74 4609.13,1054.45C4607.61,1054.13 4606.07,1053.96 4604.53,1053.91C4603.1,1053.86 4601.65,1053.91 4600.23,1054.1C4598.19,1054.36 4596.2,1054.9 4594.33,1055.75C4593.27,1056.24 4592.26,1056.82 4591.3,1057.49C4590.11,1058.33 4589.02,1059.31 4588.04,1060.4C4586.29,1062.35 4584.91,1064.62 4583.92,1067.04C4583.79,1067.35 4583.67,1067.66 4583.56,1067.98C4583.46,1068.24 4583.37,1068.5 4583.3,1068.76C4583.1,1069.47 4582.96,1070.19 4582.85,1070.92C4582.72,1071.84 4582.63,1072.77 4582.57,1073.7C4582.52,1074.58 4582.49,1075.46 4582.5,1076.34C4582.52,1077.1 4582.55,1077.86 4582.65,1078.62C4582.69,1078.93 4582.75,1079.24 4582.8,1079.55C4582.88,1080.01 4582.97,1080.46 4583.07,1080.91C4583.37,1082.36 4583.72,1083.8 4584.09,1085.24C4584.4,1086.45 4584.72,1087.67 4585.03,1088.89C4585.38,1090.24 4585.71,1091.6 4586.03,1092.96C4586.27,1094.02 4586.49,1095.07 4586.68,1096.14C4586.82,1096.88 4586.94,1097.62 4587.04,1098.37C4587.13,1099 4587.2,1099.63 4587.26,1100.27C4587.32,1100.79 4587.35,1101.32 4587.38,1101.85C4587.45,1103.39 4587.42,1104.95 4587.23,1106.48C4587.01,1108.24 4586.57,1109.97 4585.86,1111.6C4585.53,1112.35 4585.14,1113.08 4584.7,1113.78C4584.27,1114.45 4583.79,1115.09 4583.27,1115.7C4582.94,1116.08 4582.59,1116.43 4582.24,1116.79C4581.64,1117.35 4581.05,1117.92 4580.45,1118.49C4579.62,1119.28 4578.76,1120.06 4577.79,1120.69C4576.98,1121.22 4576.09,1121.64 4575.15,1121.9C4574.27,1122.14 4573.35,1122.25 4572.44,1122.26L4572.33,1122.27C4572.25,1122.27 4572.18,1122.27 4572.1,1122.25C4572.02,1122.24 4571.94,1122.21 4571.88,1122.16C4571.63,1122 4571.53,1121.68 4571.64,1121.4C4571.68,1121.33 4571.72,1121.26 4571.78,1121.2C4571.86,1121.12 4571.98,1121.06 4572.1,1121.03C4572.14,1121.02 4572.18,1121.02 4572.22,1121.02C4572.35,1121.02 4572.48,1121.02 4572.61,1121.01C4573.38,1120.99 4574.15,1120.89 4574.9,1120.67C4575.68,1120.45 4576.43,1120.09 4577.11,1119.64C4578.01,1119.05 4578.81,1118.33 4579.6,1117.59C4580.19,1117.02 4580.78,1116.45 4581.37,1115.89C4581.7,1115.56 4582.02,1115.23 4582.32,1114.88C4582.81,1114.32 4583.25,1113.73 4583.65,1113.11C4584.03,1112.51 4584.37,1111.88 4584.66,1111.23C4584.83,1110.84 4584.99,1110.45 4585.13,1110.05C4585.27,1109.65 4585.4,1109.25 4585.5,1108.84C4586.2,1106.24 4586.28,1103.52 4586.06,1100.84C4586.02,1100.28 4585.96,1099.72 4585.89,1099.16C4585.8,1098.43 4585.69,1097.71 4585.56,1096.99C4585.4,1096.05 4585.22,1095.11 4585.02,1094.17C4584.75,1092.92 4584.45,1091.68 4584.14,1090.43C4583.73,1088.8 4583.3,1087.17 4582.88,1085.54C4582.75,1085.05 4582.63,1084.55 4582.51,1084.06C4582.23,1082.91 4581.96,1081.76 4581.73,1080.61C4581.68,1080.33 4581.62,1080.05 4581.57,1079.77C4581.51,1079.39 4581.44,1079.01 4581.39,1078.62C4581.31,1077.87 4581.27,1077.12 4581.26,1076.36C4581.24,1075.45 4581.27,1074.54 4581.32,1073.63C4581.38,1072.72 4581.47,1071.82 4581.59,1070.92C4581.71,1070.13 4581.85,1069.34 4582.06,1068.57C4582.21,1068 4582.42,1067.45 4582.63,1066.9C4582.97,1066.05 4583.35,1065.22 4583.77,1064.41C4584.81,1062.43 4586.11,1060.57 4587.68,1058.96C4588.36,1058.25 4589.1,1057.59 4589.88,1056.99C4591.01,1056.12 4592.22,1055.38 4593.5,1054.77C4595.28,1053.91 4597.19,1053.33 4599.14,1053C4600.42,1052.78 4601.71,1052.67 4603.01,1052.65C4603.21,1052.64 4603.4,1052.64 4603.6,1052.64Z" style="fill:rgb(134,117,221);fill-rule:nonzero;"/>
                </g>
                <g transform="matrix(0.844657,0,0,0.952861,-3747.45,-471.785)">
                    <path d="M4615.59,1133.94L4622.79,1136.93C4622.91,1137 4622.94,1137.01 4623.04,1137.11C4623.22,1137.3 4623.28,1137.58 4623.2,1137.83C4623.17,1137.93 4623.11,1138.02 4623.05,1138.1C4622.95,1138.2 4622.91,1138.21 4622.79,1138.28L4572.52,1159.83C4572.48,1159.85 4572.43,1159.87 4572.39,1159.88C4572.29,1159.9 4572.2,1159.9 4572.1,1159.88C4572.06,1159.87 4572.01,1159.85 4571.97,1159.84L4536.31,1145.74C4536.18,1145.67 4536.15,1145.66 4536.05,1145.56C4535.98,1145.49 4535.92,1145.4 4535.89,1145.3C4535.8,1145.05 4535.86,1144.76 4536.04,1144.57C4536.13,1144.46 4536.17,1144.45 4536.29,1144.39L4548.95,1139.04L4550.89,1139.81L4538.5,1145.04L4572.22,1158.37L4620.63,1137.62L4613.72,1134.74L4615.59,1133.94Z" style="fill:rgb(78,206,166);"/>
                </g>
                <g transform="matrix(0.844657,0,0,0.952861,-3743.08,-480.976)">
                    <path d="M4606.66,1143.61L4608.54,1144.39L4572.52,1159.83C4572.48,1159.85 4572.43,1159.87 4572.39,1159.88C4572.29,1159.9 4572.2,1159.9 4572.1,1159.88C4572.06,1159.87 4572.01,1159.85 4571.97,1159.84L4545.7,1149.45L4547.62,1148.64L4572.22,1158.37L4606.66,1143.61Z" style="fill:rgb(78,206,166);"/>
                </g>
                <g transform="matrix(0.844657,0,0,0.952861,-3743.08,-480.976)">
                    <path d="M4543.77,1148.69L4536.31,1145.74C4536.18,1145.67 4536.15,1145.66 4536.05,1145.56C4535.86,1145.37 4535.8,1145.09 4535.88,1144.83C4535.91,1144.74 4535.97,1144.64 4536.04,1144.57C4536.13,1144.46 4536.17,1144.45 4536.29,1144.39L4587.83,1122.63C4587.97,1122.59 4587.97,1122.59 4588.11,1122.57C4588.16,1122.58 4588.21,1122.58 4588.26,1122.59L4588.4,1122.63L4622.79,1136.93C4622.91,1137 4622.94,1137.01 4623.04,1137.11C4623.11,1137.18 4623.16,1137.27 4623.2,1137.37C4623.28,1137.62 4623.22,1137.9 4623.04,1138.1C4622.95,1138.2 4622.91,1138.21 4622.79,1138.28L4610.41,1143.59L4608.53,1142.8L4620.63,1137.62L4588.12,1124.09C4571.58,1131.07 4555.04,1138.05 4538.5,1145.04L4545.69,1147.88L4543.77,1148.69Z" style="fill:rgb(78,206,166);"/>
                </g>
                <g transform="matrix(0.844657,0,0,0.952861,-3743.08,-480.976)">
                    <path d="M4547.62,1148.64L4545.7,1149.45L4543.77,1148.69L4545.69,1147.88L4547.62,1148.64Z" style="fill:rgb(78,206,166);"/>
                </g>
                <g transform="matrix(0.844657,0,0,0.952861,-3743.08,-480.976)">
                    <path d="M4610.41,1143.59L4608.54,1144.39L4606.66,1143.61L4608.53,1142.8L4610.41,1143.59Z" style="fill:rgb(78,206,166);"/>
                </g>
            </g>
        </g>
    </g>
</svg>
