<?xml version="1.0" encoding="UTF-8" standalone="no"?>
<!DOCTYPE svg PUBLIC "-//W3C//DTD SVG 1.1//EN" "http://www.w3.org/Graphics/SVG/1.1/DTD/svg11.dtd">
<svg width="100%" height="100%" viewBox="0 0 395 215" version="1.1" xmlns="http://www.w3.org/2000/svg" xmlns:xlink="http://www.w3.org/1999/xlink" xml:space="preserve" style="fill-rule:evenodd;clip-rule:evenodd;stroke-linecap:round;stroke-linejoin:round;stroke-miterlimit:1.5;">
    <g transform="matrix(1,0,0,1,-2882,-16)">
        <g id="Artboard1" transform="matrix(1.18391,0,0,1.04947,2864.21,0)">
            <rect x="0" y="0" width="1280" height="800" style="fill:none;"/>
            <g transform="matrix(0.844657,0,0,7.03745,-362.607,-155.435)">
                <g transform="matrix(0.814584,0,0,0.110294,-3322.92,8.83879)">
                    <path d="M4768.04,370.809C4771.96,371.027 4775.87,371.105 4779.79,371.008L4780.04,371.002C4780.14,371.013 4780.23,371.01 4780.33,371.035C4780.52,371.085 4780.69,371.188 4780.82,371.333C4780.89,371.404 4780.94,371.486 4780.99,371.573C4781.03,371.661 4781.06,371.755 4781.08,371.85C4781.14,372.241 4780.97,372.645 4780.65,372.869C4780.43,373.018 4780.35,373.003 4780.1,373.047C4779.61,373.06 4779.13,373.071 4778.65,373.079C4775.22,373.131 4771.79,373.058 4768.37,372.876L4767.93,372.852C4767.76,372.842 4767.62,372.843 4767.45,372.782C4767.36,372.75 4767.27,372.703 4767.19,372.646C4767.12,372.589 4767.05,372.52 4766.99,372.443C4766.74,372.128 4766.71,371.691 4766.89,371.34C4766.94,371.255 4767,371.175 4767.07,371.105C4767.2,370.965 4767.38,370.867 4767.57,370.823C4767.66,370.801 4767.76,370.806 4767.86,370.798C4767.92,370.802 4767.98,370.805 4768.04,370.809ZM4742.45,365.053C4742.54,365.096 4742.62,365.139 4742.71,365.183C4742.81,365.234 4742.89,365.309 4742.99,365.372C4743.07,365.43 4743.16,365.488 4743.25,365.545C4743.45,365.68 4743.66,365.815 4743.87,365.946C4745.14,366.718 4746.54,367.261 4747.95,367.716C4749.86,368.331 4751.81,368.777 4753.78,369.159L4754.05,369.254C4754.26,369.403 4754.34,369.425 4754.47,369.653C4754.52,369.737 4754.55,369.829 4754.57,369.923C4754.67,370.309 4754.52,370.723 4754.21,370.968C4754.14,371.028 4754.05,371.077 4753.96,371.113C4753.72,371.211 4753.64,371.18 4753.39,371.167C4753,371.093 4752.62,371.017 4752.24,370.938C4750.58,370.586 4748.93,370.184 4747.32,369.663C4746.14,369.283 4744.98,368.843 4743.88,368.286C4743.55,368.121 4743.23,367.946 4742.91,367.757C4742.45,367.482 4742.01,367.183 4741.57,366.883L4741.54,366.863C4741.36,366.689 4741.28,366.658 4741.18,366.414C4741.14,366.325 4741.12,366.229 4741.11,366.132C4741.07,365.738 4741.26,365.345 4741.61,365.143C4741.83,365.009 4741.91,365.028 4742.16,365.001C4742.26,365.018 4742.36,365.036 4742.45,365.053ZM4804.57,361.741C4804.8,361.845 4804.89,361.851 4805.06,362.048C4805.32,362.345 4805.39,362.778 4805.23,363.141C4805.12,363.382 4805.05,363.411 4804.86,363.581C4803.9,364.212 4802.93,364.843 4801.97,365.471C4799.54,367.051 4797.1,368.618 4794.59,370.073L4794.42,370.171C4794.33,370.206 4794.25,370.255 4794.15,370.278C4793.96,370.323 4793.76,370.313 4793.58,370.248C4793.49,370.215 4793.4,370.169 4793.32,370.113C4793,369.881 4792.84,369.473 4792.91,369.084C4792.93,368.989 4792.97,368.895 4793.01,368.809C4793.13,368.576 4793.21,368.551 4793.41,368.394C4793.73,368.211 4794.05,368.024 4794.37,367.837C4797.55,365.942 4800.64,363.905 4803.73,361.871L4803.99,361.747L4804.28,361.703C4804.38,361.716 4804.48,361.728 4804.57,361.741ZM4728.27,343.103C4728.36,343.132 4728.46,343.149 4728.55,343.19C4728.72,343.275 4728.87,343.409 4728.98,343.575C4729.03,343.658 4729.05,343.753 4729.09,343.842C4729.2,344.229 4729.31,344.614 4729.42,345C4730.01,346.991 4730.67,348.96 4731.48,350.876C4732.05,352.243 4732.69,353.577 4733.41,354.874L4733.48,355.005C4733.52,355.096 4733.57,355.182 4733.59,355.276C4733.63,355.467 4733.62,355.667 4733.55,355.852C4733.42,356.225 4733.07,356.493 4732.68,356.527C4732.58,356.535 4732.48,356.529 4732.39,356.51C4732.29,356.491 4732.2,356.457 4732.11,356.412C4732.03,356.367 4731.95,356.308 4731.88,356.241C4731.76,356.123 4731.7,356.009 4731.62,355.871C4731.48,355.616 4731.34,355.359 4731.2,355.1C4730.84,354.412 4730.5,353.712 4730.17,353.004C4728.91,350.243 4727.95,347.36 4727.13,344.439L4727.12,344.385C4727.11,344.288 4727.08,344.193 4727.08,344.096C4727.09,343.699 4727.33,343.334 4727.7,343.176C4727.78,343.137 4727.88,343.124 4727.98,343.098C4728.07,343.1 4728.17,343.102 4728.27,343.103ZM4827.34,347.918C4827.56,348.037 4827.64,348.048 4827.8,348.256C4828.05,348.57 4828.08,349.007 4827.9,349.358C4827.78,349.591 4827.7,349.616 4827.5,349.772C4827.15,349.967 4826.81,350.165 4826.47,350.362C4824.72,351.38 4822.99,352.424 4821.24,353.455C4820.85,353.688 4820.45,353.919 4820.06,354.15C4819.16,354.671 4818.26,355.185 4817.35,355.687L4817.05,355.853C4816.9,355.936 4816.77,356.014 4816.6,356.052C4816.5,356.072 4816.4,356.079 4816.3,356.071C4816.21,356.064 4816.11,356.043 4816.02,356.009C4815.93,355.974 4815.84,355.927 4815.77,355.868C4815.45,355.63 4815.3,355.218 4815.38,354.831C4815.42,354.639 4815.52,354.464 4815.66,354.326C4815.73,354.257 4815.82,354.21 4815.89,354.152C4816.25,353.958 4816.61,353.761 4816.96,353.564C4819.43,352.181 4821.85,350.71 4824.28,349.27C4824.86,348.93 4825.44,348.592 4826.02,348.257C4826.12,348.202 4826.22,348.146 4826.32,348.091C4826.47,348.006 4826.59,347.928 4826.76,347.887C4826.85,347.864 4826.95,347.87 4827.05,347.861C4827.15,347.88 4827.24,347.899 4827.34,347.918ZM4866.02,349.1C4867.3,349.481 4868.59,349.868 4869.85,350.315C4870.27,350.463 4870.69,350.619 4871.09,350.798C4871.41,350.938 4871.73,351.098 4871.98,351.334L4872.17,351.56C4872.27,351.795 4872.32,351.855 4872.31,352.118C4872.31,352.215 4872.29,352.312 4872.26,352.405C4872.14,352.782 4871.8,353.059 4871.4,353.103C4871.21,353.125 4871.01,353.09 4870.84,353.003C4870.75,352.961 4870.68,352.896 4870.6,352.842C4870.6,352.841 4870.61,352.845 4870.6,352.844C4870.59,352.833 4870.57,352.822 4870.55,352.812C4870.48,352.77 4870.4,352.732 4870.32,352.696C4869.71,352.419 4869.07,352.204 4868.44,351.993C4867.54,351.695 4866.63,351.421 4865.73,351.148L4865.44,351.061C4865.2,350.954 4865.12,350.948 4864.95,350.748C4864.89,350.675 4864.83,350.591 4864.79,350.503C4864.63,350.141 4864.69,349.707 4864.95,349.408C4865.02,349.335 4865.09,349.27 4865.18,349.218C4865.4,349.076 4865.48,349.093 4865.73,349.057C4865.82,349.071 4865.92,349.086 4866.02,349.1ZM4843.52,342.431C4845.04,342.449 4846.55,342.619 4848.03,342.949C4849.53,343.282 4850.98,343.773 4852.39,344.376L4852.57,344.454L4852.65,344.489L4852.89,344.644C4853.06,344.835 4853.13,344.874 4853.21,345.126C4853.24,345.219 4853.25,345.317 4853.25,345.414C4853.26,345.811 4853.02,346.182 4852.66,346.35C4852.57,346.391 4852.48,346.42 4852.39,346.435C4852.29,346.449 4852.19,346.45 4852.09,346.437C4851.91,346.413 4851.74,346.326 4851.58,346.254C4851.43,346.189 4851.4,346.178 4851.25,346.115C4851.03,346.026 4850.82,345.94 4850.6,345.856C4850.02,345.637 4849.44,345.438 4848.84,345.266C4847.83,344.974 4846.79,344.757 4845.75,344.626C4844.66,344.49 4843.56,344.447 4842.47,344.496C4841.78,344.526 4841.1,344.594 4840.43,344.69L4840.4,344.694C4840.3,344.695 4840.2,344.709 4840.11,344.696C4839.91,344.668 4839.73,344.586 4839.58,344.458C4839.51,344.395 4839.44,344.32 4839.39,344.239C4839.18,343.906 4839.17,343.467 4839.39,343.133C4839.44,343.051 4839.5,342.976 4839.58,342.912C4839.65,342.848 4839.73,342.794 4839.82,342.753C4839.98,342.681 4840.13,342.666 4840.29,342.643C4840.4,342.628 4840.51,342.614 4840.61,342.601C4841.31,342.515 4842,342.463 4842.7,342.44C4842.97,342.433 4843.24,342.43 4843.52,342.431ZM4722.24,317.327C4722.32,317.376 4722.42,317.414 4722.49,317.474C4722.7,317.638 4722.71,317.718 4722.82,317.946C4722.95,318.319 4723.07,318.693 4723.19,319.068C4723.62,320.396 4724,321.734 4724.36,323.081C4724.94,325.301 4725.44,327.541 4725.93,329.785L4725.96,329.931C4725.97,330.028 4725.98,330.125 4725.98,330.222C4725.96,330.417 4725.89,330.604 4725.77,330.761C4725.53,331.077 4725.12,331.229 4724.73,331.142C4724.64,331.121 4724.55,331.086 4724.46,331.039C4724.38,330.993 4724.3,330.933 4724.23,330.864C4724.05,330.677 4724.05,330.596 4723.96,330.357C4723.82,329.728 4723.69,329.1 4723.55,328.472C4723.12,326.557 4722.67,324.648 4722.15,322.756C4721.8,321.45 4721.4,320.156 4720.98,318.871L4720.89,318.603C4720.84,318.352 4720.8,318.282 4720.86,318.027C4720.96,317.642 4721.28,317.341 4721.67,317.268C4721.76,317.251 4721.86,317.26 4721.96,317.256C4722.05,317.28 4722.15,317.303 4722.24,317.327ZM4706.21,296.742L4706.47,296.867C4706.9,297.148 4707.32,297.432 4707.74,297.718C4709.04,298.61 4710.33,299.526 4711.54,300.541C4712.6,301.432 4713.6,302.388 4714.54,303.404C4715.04,303.936 4715.51,304.484 4715.97,305.044L4715.97,305.05C4716.1,305.27 4716.16,305.321 4716.19,305.583C4716.2,305.68 4716.2,305.779 4716.18,305.874C4716.11,306.264 4715.81,306.585 4715.43,306.683C4715.33,306.707 4715.23,306.717 4715.14,306.713C4714.94,306.706 4714.75,306.643 4714.59,306.531C4714.51,306.475 4714.45,306.398 4714.38,306.332L4714.38,306.333C4714.19,306.109 4714.19,306.11 4714.01,305.888C4713.82,305.666 4713.82,305.666 4713.63,305.446C4713.24,305.006 4712.84,304.574 4712.43,304.154C4711.58,303.29 4710.69,302.477 4709.74,301.715C4709.18,301.26 4708.6,300.829 4708.01,300.407C4707.2,299.819 4706.36,299.253 4705.53,298.694L4705.34,298.573C4705.15,298.403 4705.08,298.373 4704.97,298.132C4704.93,298.043 4704.91,297.948 4704.9,297.852C4704.84,297.458 4705.03,297.062 4705.37,296.852C4705.59,296.712 4705.67,296.73 4705.92,296.697C4706.02,296.712 4706.11,296.727 4706.21,296.742ZM4682.99,283.547L4683.27,283.637C4683.61,283.807 4684,284 4684.33,284.167C4685.56,284.788 4686.79,285.417 4688.01,286.06C4690.04,287.132 4692.05,288.237 4694.06,289.361L4694.16,289.418C4694.24,289.478 4694.32,289.527 4694.39,289.596C4694.53,289.737 4694.62,289.914 4694.66,290.106C4694.68,290.201 4694.68,290.3 4694.68,290.397C4694.64,290.792 4694.37,291.14 4694,291.273C4693.91,291.305 4693.81,291.325 4693.72,291.33C4693.45,291.345 4693.39,291.292 4693.15,291.2C4692.62,290.899 4692.09,290.602 4691.55,290.305C4688.52,288.631 4685.47,287.007 4682.36,285.472L4682.36,285.473L4682.12,285.309L4681.94,285.083C4681.84,284.848 4681.78,284.789 4681.79,284.526C4681.8,284.129 4682.05,283.767 4682.42,283.613C4682.51,283.575 4682.6,283.563 4682.7,283.538C4682.79,283.541 4682.89,283.544 4682.99,283.547ZM4657.86,279.139C4660.83,279.12 4663.81,279.029 4666.79,278.98C4667.23,278.974 4667.67,278.97 4668.12,278.967C4668.52,278.966 4668.92,278.967 4669.32,278.97L4669.4,278.972C4669.65,279.012 4669.73,278.997 4669.95,279.143C4670.03,279.197 4670.1,279.263 4670.16,279.337C4670.42,279.641 4670.48,280.077 4670.3,280.435C4670.26,280.522 4670.21,280.605 4670.14,280.677C4670.08,280.749 4670,280.813 4669.92,280.864C4669.84,280.915 4669.75,280.955 4669.65,280.981C4669.49,281.026 4669.43,281.018 4669.3,281.016C4669.17,281.015 4669.05,281.014 4668.92,281.013C4668.79,281.012 4668.66,281.012 4668.53,281.012C4668.11,281.013 4667.69,281.016 4667.27,281.02C4665.07,281.05 4662.88,281.112 4660.68,281.152C4659.93,281.164 4659.18,281.174 4658.43,281.181C4658.05,281.184 4657.68,281.185 4657.3,281.187L4657.11,281.187C4657.01,281.173 4656.91,281.172 4656.82,281.145C4656.63,281.09 4656.46,280.981 4656.33,280.833C4656.27,280.76 4656.22,280.676 4656.18,280.588C4656.14,280.5 4656.11,280.405 4656.09,280.309C4656.04,279.916 4656.22,279.517 4656.55,279.303C4656.78,279.16 4656.85,279.177 4657.11,279.14C4657.36,279.141 4657.61,279.14 4657.86,279.139ZM4634.53,268.768C4634.77,268.843 4634.85,268.839 4635.05,269.014C4635.19,269.133 4635.27,269.282 4635.36,269.429C4635.45,269.562 4635.53,269.693 4635.62,269.823C4635.74,269.997 4635.86,270.169 4635.98,270.34C4636.4,270.94 4636.86,271.52 4637.34,272.079C4638.45,273.366 4639.69,274.539 4640.99,275.625C4641.63,276.156 4642.28,276.672 4642.95,277.161C4643.03,277.217 4643.11,277.27 4643.19,277.32C4643.28,277.376 4643.38,277.427 4643.47,277.478L4643.47,277.475L4643.7,277.644L4643.88,277.872C4643.98,278.109 4644.03,278.169 4644.02,278.432C4644.01,278.529 4644,278.627 4643.96,278.718C4643.84,279.093 4643.49,279.365 4643.1,279.403C4643,279.412 4642.9,279.408 4642.8,279.389C4642.64,279.357 4642.51,279.284 4642.36,279.205C4642.15,279.089 4641.95,278.961 4641.76,278.822C4641.53,278.66 4641.32,278.494 4641.1,278.328C4640.43,277.812 4639.77,277.285 4639.14,276.735C4638.51,276.197 4637.91,275.639 4637.33,275.061C4635.9,273.646 4634.62,272.084 4633.55,270.387L4633.5,270.321C4633.47,270.232 4633.41,270.148 4633.39,270.055C4633.28,269.673 4633.41,269.253 4633.71,268.997C4633.91,268.827 4633.99,268.833 4634.24,268.764C4634.34,268.765 4634.43,268.767 4634.53,268.768ZM4632.47,243.008C4632.69,243.14 4632.77,243.155 4632.92,243.373C4633.03,243.534 4633.09,243.725 4633.1,243.921C4633.1,244.104 4633.06,244.231 4633.02,244.399C4632.95,244.65 4632.95,244.657 4632.89,244.908C4632.83,245.164 4632.77,245.42 4632.71,245.677C4632.36,247.244 4632.1,248.828 4631.94,250.425C4631.76,252.264 4631.7,254.111 4631.75,255.958L4631.76,256.076C4631.75,256.172 4631.75,256.271 4631.73,256.365C4631.68,256.555 4631.57,256.727 4631.43,256.86C4631.36,256.926 4631.28,256.982 4631.19,257.026C4630.84,257.203 4630.4,257.155 4630.09,256.905C4630.02,256.844 4629.95,256.772 4629.89,256.692C4629.84,256.612 4629.79,256.523 4629.76,256.431C4629.71,256.277 4629.71,256.167 4629.71,256.02C4629.7,255.812 4629.7,255.636 4629.69,255.428C4629.68,254.745 4629.69,254.061 4629.7,253.378C4629.78,250.916 4630.05,248.461 4630.54,246.047C4630.65,245.503 4630.77,244.962 4630.9,244.423C4630.95,244.219 4630.98,244.09 4631.03,243.887C4631.08,243.721 4631.11,243.576 4631.2,243.423C4631.3,243.255 4631.45,243.12 4631.62,243.033C4631.86,242.917 4631.94,242.942 4632.19,242.934C4632.28,242.959 4632.38,242.984 4632.47,243.008ZM4646.65,221.117C4646.89,221.199 4646.98,221.197 4647.17,221.377C4647.24,221.444 4647.3,221.521 4647.35,221.605C4647.4,221.689 4647.44,221.78 4647.46,221.875C4647.48,221.969 4647.49,222.067 4647.49,222.164C4647.48,222.36 4647.42,222.55 4647.3,222.71C4647.19,222.872 4647.01,223.001 4646.85,223.124C4646.69,223.26 4646.62,223.313 4646.46,223.45C4646.26,223.615 4646.07,223.78 4645.87,223.947C4644.59,225.062 4643.36,226.244 4642.21,227.501C4641.13,228.69 4640.12,229.942 4639.18,231.246L4639.03,231.453L4638.91,231.618L4638.72,231.83C4638.49,231.959 4638.44,232.021 4638.18,232.047C4638.09,232.057 4637.99,232.053 4637.89,232.035C4637.5,231.962 4637.18,231.661 4637.09,231.276C4637.06,231.182 4637.05,231.084 4637.06,230.987C4637.06,230.89 4637.08,230.792 4637.11,230.701C4637.17,230.531 4637.26,230.411 4637.36,230.27C4637.41,230.197 4637.46,230.125 4637.52,230.053C4637.78,229.692 4638.04,229.335 4638.31,228.983C4639.77,227.076 4641.39,225.293 4643.14,223.651C4643.99,222.856 4644.87,222.097 4645.77,221.367L4645.83,221.323C4646.08,221.176 4646.08,221.176 4646.36,221.105C4646.46,221.109 4646.56,221.113 4646.65,221.117ZM4670.85,210.938C4671.09,211.011 4671.17,211.007 4671.37,211.18C4671.44,211.244 4671.51,211.32 4671.56,211.401C4671.77,211.736 4671.77,212.175 4671.55,212.508C4671.5,212.589 4671.43,212.664 4671.36,212.727C4671.29,212.79 4671.2,212.843 4671.11,212.883C4670.94,212.964 4670.75,212.975 4670.56,213.002C4670.32,213.036 4670.25,213.047 4670.01,213.083C4669.73,213.125 4669.46,213.169 4669.19,213.215C4667.47,213.508 4665.78,213.878 4664.1,214.34C4662.54,214.77 4661.01,215.278 4659.5,215.854L4659.25,215.951L4659.21,215.966L4658.93,216.033C4658.67,216.019 4658.6,216.042 4658.36,215.92C4658.28,215.876 4658.2,215.818 4658.13,215.75C4657.84,215.475 4657.74,215.048 4657.87,214.674C4657.9,214.582 4657.95,214.495 4658.01,214.416C4658.16,214.202 4658.24,214.188 4658.46,214.062C4658.74,213.954 4659.01,213.85 4659.29,213.747C4661.14,213.066 4663.02,212.482 4664.93,212.009C4666.78,211.551 4668.66,211.199 4670.55,210.937C4670.65,210.937 4670.75,210.938 4670.85,210.938Z" style="fill:white;fill-rule:nonzero;"/>
                </g>
                <g transform="matrix(0.814584,0,0,0.110294,-3245.42,12.4879)">
                    <path d="M4733.42,309.119C4733.48,309.136 4733.55,309.148 4733.61,309.171C4733.8,309.239 4733.97,309.358 4734.1,309.512C4734.36,309.824 4734.44,310.263 4734.3,310.646C4734.25,310.772 4734.19,310.889 4734.1,310.992C4734.01,311.095 4733.91,311.182 4733.79,311.249C4733.68,311.316 4733.55,311.362 4733.42,311.386C4733.35,311.397 4733.28,311.397 4733.22,311.403L4641.43,311.403C4641.37,311.397 4641.3,311.397 4641.23,311.386C4641.1,311.362 4640.97,311.316 4640.86,311.249C4640.74,311.182 4640.64,311.095 4640.55,310.992C4640.29,310.68 4640.21,310.241 4640.35,309.858C4640.4,309.732 4640.47,309.615 4640.55,309.512C4640.73,309.306 4640.97,309.165 4641.23,309.119C4641.3,309.107 4641.37,309.107 4641.43,309.101L4733.22,309.101C4733.28,309.107 4733.35,309.113 4733.42,309.119Z" style="fill:white;fill-rule:nonzero;"/>
                </g>
                <g transform="matrix(1.35651,0,0,0.0994098,-5736.74,16.2357)">
                    <path d="M4634.66,173.273C4634.69,173.284 4634.72,173.291 4634.75,173.306C4634.8,173.335 4634.86,173.378 4634.91,173.433C4635.07,173.601 4635.19,173.884 4635.23,174.209C4635.26,174.353 4635.25,174.391 4635.26,174.539L4635.26,214.733C4635.25,214.881 4635.26,214.92 4635.23,215.064C4635.18,215.444 4635.03,215.763 4634.83,215.913C4634.78,215.956 4634.72,215.985 4634.66,215.999C4634.63,216.007 4634.6,216.007 4634.57,216.01L4599.87,216.01C4599.84,216.007 4599.81,216.007 4599.78,215.999C4599.72,215.985 4599.66,215.956 4599.61,215.913C4599.41,215.763 4599.26,215.444 4599.2,215.064C4599.18,214.92 4599.18,214.881 4599.18,214.733L4599.18,174.539C4599.18,174.391 4599.18,174.353 4599.2,174.209C4599.26,173.828 4599.41,173.51 4599.61,173.359C4599.66,173.317 4599.72,173.288 4599.78,173.273C4599.81,173.266 4599.84,173.266 4599.87,173.262L4634.57,173.262C4634.6,173.266 4634.63,173.27 4634.66,173.273ZM4600.56,175.816L4600.56,213.457L4633.88,213.457L4633.88,175.816C4622.77,175.816 4611.67,175.816 4600.56,175.816Z" style="fill:white;fill-rule:nonzero;"/>
                </g>
                <g transform="matrix(0.814584,0,0,0.110294,-3243.14,12.5774)">
                    <path d="M4780,164.841C4780.08,164.87 4780.17,164.889 4780.25,164.926C4780.56,165.077 4780.79,165.368 4780.87,165.707C4780.89,165.791 4780.89,165.878 4780.9,165.963L4780.9,261.349C4780.89,261.434 4780.89,261.521 4780.87,261.605C4780.79,261.944 4780.56,262.235 4780.25,262.386C4780.04,262.486 4779.97,262.474 4779.75,262.5L4589.76,262.5C4589.53,262.474 4589.46,262.486 4589.26,262.386C4588.94,262.235 4588.71,261.944 4588.63,261.605C4588.61,261.521 4588.61,261.434 4588.6,261.349L4588.6,165.963C4588.61,165.878 4588.61,165.791 4588.63,165.707C4588.71,165.368 4588.94,165.077 4589.26,164.926C4589.46,164.826 4589.53,164.838 4589.76,164.812L4779.75,164.812C4779.83,164.822 4779.92,164.832 4780,164.841ZM4590.91,167.114L4590.91,260.198L4778.6,260.198L4778.6,167.114C4716.03,167.114 4653.47,167.114 4590.91,167.114Z" style="fill:white;fill-rule:nonzero;"/>
                </g>
                <g transform="matrix(0.804786,0,0,0.105309,-3249.83,14.4995)">
                    <path d="M4847.87,139.382C4848.27,139.39 4848.67,139.416 4849.07,139.469C4849.85,139.571 4850.61,139.764 4851.35,140.043C4852.82,140.6 4854.16,141.503 4855.26,142.663C4856.26,143.729 4857.06,145.007 4857.57,146.4C4857.86,147.199 4858.06,148.033 4858.17,148.88C4858.22,149.293 4858.24,149.708 4858.25,150.124C4858.48,193.65 4858.48,237.178 4858.25,280.704C4858.24,281.12 4858.22,281.535 4858.17,281.948C4858.06,282.796 4857.86,283.629 4857.57,284.428C4857.06,285.821 4856.26,287.1 4855.26,288.165C4854.16,289.325 4852.82,290.228 4851.35,290.786C4850.61,291.064 4849.85,291.257 4849.07,291.359C4848.67,291.412 4848.27,291.438 4847.87,291.446C4782.54,291.868 4717.21,291.867 4651.88,291.446C4651.48,291.438 4651.07,291.412 4650.68,291.359C4649.86,291.251 4649.05,291.043 4648.28,290.739C4646.81,290.163 4645.48,289.244 4644.4,288.071C4643.41,286.992 4642.63,285.704 4642.13,284.305C4641.73,283.15 4641.52,281.932 4641.5,280.704C4641.15,237.179 4641.15,193.649 4641.5,150.124C4641.52,148.896 4641.73,147.678 4642.13,146.524C4642.63,145.124 4643.41,143.836 4644.4,142.757C4645.48,141.584 4646.81,140.665 4648.28,140.089C4649.05,139.786 4649.86,139.577 4650.68,139.469C4651.07,139.416 4651.48,139.39 4651.88,139.382C4717.21,138.955 4782.54,138.954 4847.87,139.382ZM4652.02,141.792C4651.06,141.799 4650.1,141.964 4649.2,142.306C4648.24,142.671 4647.35,143.223 4646.58,143.926C4645.57,144.855 4644.79,146.04 4644.32,147.353C4644,148.251 4643.84,149.199 4643.82,150.155C4643.48,193.696 4643.12,237.246 4643.83,280.783C4643.84,281.107 4643.86,281.429 4643.9,281.75C4643.99,282.406 4644.16,283.052 4644.39,283.668C4644.93,285.064 4645.82,286.301 4646.96,287.229C4647.66,287.799 4648.45,288.25 4649.29,288.557C4650.1,288.852 4650.95,289.005 4651.8,289.033C4717.17,290.328 4782.57,290.325 4847.94,289.033C4848.87,289.003 4849.78,288.826 4850.64,288.486C4852.24,287.854 4853.63,286.695 4854.58,285.213C4854.94,284.641 4855.24,284.022 4855.46,283.376C4855.74,282.542 4855.89,281.666 4855.92,280.783C4856.74,237.212 4856.74,193.616 4855.92,150.045C4855.89,149.162 4855.74,148.286 4855.46,147.452C4855.24,146.806 4854.94,146.188 4854.58,145.615C4853.63,144.133 4852.24,142.974 4850.64,142.342C4849.78,142.002 4848.87,141.825 4847.94,141.795C4782.65,140.511 4717.33,141.792 4652.02,141.792Z" style="fill:white;fill-rule:nonzero;"/>
                </g>
                <g transform="matrix(0.814584,0,0,0.110294,-3243.14,12.5774)">
                    <path d="M4790.74,270.543C4790.98,270.644 4791.06,270.65 4791.26,270.841C4791.32,270.912 4791.39,270.993 4791.44,271.08C4791.49,271.166 4791.53,271.26 4791.55,271.357C4791.66,271.751 4791.54,272.181 4791.26,272.469C4791.11,272.612 4790.93,272.714 4790.74,272.767C4790.64,272.793 4790.54,272.793 4790.44,272.806L4578.59,272.806C4578.49,272.793 4578.39,272.793 4578.3,272.767C4578.1,272.714 4577.92,272.612 4577.78,272.469C4577.71,272.398 4577.65,272.317 4577.6,272.231C4577.39,271.878 4577.39,271.433 4577.6,271.08C4577.65,270.993 4577.71,270.912 4577.78,270.841C4577.85,270.77 4577.93,270.708 4578.02,270.658C4578.25,270.523 4578.33,270.539 4578.59,270.504L4790.44,270.504C4790.54,270.517 4790.64,270.53 4790.74,270.543Z" style="fill:white;fill-rule:nonzero;"/>
                </g>
                <g transform="matrix(0.806586,-0.0154184,0.841027,0.806586,141.323,19.659)">
                    <g transform="matrix(0.609957,0.00236981,-0.0210543,0.0993469,-2300.77,-5.07023)">
                        <path d="M5094.53,188.484L5084.1,200.445" style="fill:none;stroke:white;stroke-width:3.79px;"/>
                    </g>
                    <g transform="matrix(-1.19451,-0.138681,0.32613,-0.0514979,6720.79,745.742)">
                        <path d="M5057.3,387.731C5057.17,387.972 5057.04,388.199 5056.91,388.407C5056.63,388.83 5056.34,389.159 5056.04,389.399C5055.28,390.016 5054.47,390.016 5053.71,389.399C5053.26,389.041 5052.84,388.477 5052.45,387.731C5052.06,386.998 5051.71,386.09 5051.41,385.045C5051.06,383.82 5050.77,382.408 5050.56,380.884C5050.4,379.712 5050.3,378.474 5050.24,377.213C5050.21,376.596 5050.2,375.976 5050.19,375.354C5050.19,374.315 5050.19,373.276 5050.2,372.237C5050.23,358.741 5050.39,345.251 5050.59,331.771C5050.8,317.279 5051.07,302.796 5051.36,288.318C5051.77,268.024 5052.23,247.742 5052.72,227.467C5053.15,209.54 5053.61,191.618 5054.1,173.705L5054.15,172.094C5054.15,171.963 5054.16,171.829 5054.17,171.7C5054.19,171.441 5054.23,171.196 5054.28,170.976C5054.32,170.756 5054.39,170.565 5054.45,170.411C5054.67,169.944 5054.95,169.867 5055.18,170.21C5055.26,170.324 5055.33,170.479 5055.39,170.668C5055.48,170.953 5055.55,171.311 5055.58,171.699C5055.59,171.828 5055.6,171.962 5055.6,172.094C5055.69,175.279 5055.78,178.464 5055.86,181.65C5056.62,210.156 5057.32,238.677 5057.95,267.216C5058.19,278.476 5058.43,289.739 5058.64,301.005C5058.84,311.912 5059.03,322.822 5059.19,333.736C5059.34,343.967 5059.46,354.203 5059.52,364.443C5059.54,367.041 5059.55,369.639 5059.55,372.237C5059.55,372.729 5059.55,373.222 5059.55,373.714C5059.56,374.763 5059.56,375.804 5059.53,376.846C5059.42,379.77 5059.03,382.556 5058.41,384.781C5058.22,385.491 5058,386.143 5057.76,386.724C5057.68,386.943 5057.58,387.147 5057.49,387.349C5057.4,387.544 5057.4,387.544 5057.3,387.731ZM5056.67,383.542C5056.91,383.033 5057.12,382.45 5057.31,381.773C5057.67,380.47 5057.92,378.886 5058.03,377.198C5058.07,376.571 5058.09,375.934 5058.09,375.295C5058.09,374.285 5058.09,373.274 5058.09,372.264C5058.06,361.417 5057.95,350.573 5057.81,339.736C5057.64,326.91 5057.42,314.091 5057.18,301.278C5056.55,267.896 5055.76,234.545 5054.91,201.211L5054.87,199.956C5054.57,211.741 5054.28,223.53 5054,235.32C5053.64,250.257 5053.3,265.198 5052.99,280.145C5052.73,292.729 5052.49,305.317 5052.27,317.91C5052.12,327.063 5051.98,336.22 5051.87,345.38C5051.82,348.971 5051.79,352.562 5051.75,356.154C5051.73,358.403 5051.72,360.652 5051.7,362.902C5051.68,366.022 5051.67,369.143 5051.66,372.264C5051.66,372.752 5051.66,373.24 5051.66,373.728C5051.66,374.549 5051.65,375.378 5051.67,376.197C5051.69,376.866 5051.74,377.526 5051.8,378.168C5051.91,379.26 5052.08,380.291 5052.3,381.206C5052.48,381.985 5052.7,382.678 5052.95,383.261C5053.22,383.896 5053.52,384.397 5053.84,384.737C5054.41,385.336 5055.02,385.429 5055.6,385.009C5055.91,384.786 5056.2,384.413 5056.48,383.929C5056.54,383.805 5056.61,383.676 5056.67,383.542Z" style="fill:white;fill-rule:nonzero;"/>
                    </g>
                </g>
                <g transform="matrix(0.806586,-0.0154184,0.0948895,0.0910036,-3319.56,89.2025)">
                    <path d="M5079.74,162.133C5079.97,162.255 5080.04,162.265 5080.22,162.478C5080.41,162.717 5080.53,163.039 5080.55,163.374C5080.56,163.586 5080.51,163.806 5080.48,164.012C5080.46,164.115 5080.44,164.218 5080.43,164.321C5080.31,164.999 5080.16,165.67 5079.98,166.329C5079.65,167.547 5079.2,168.724 5078.62,169.8C5078.12,170.713 5077.53,171.548 5076.86,172.279C5076.31,172.879 5075.71,173.408 5075.08,173.881C5074.71,174.156 5074.34,174.408 5073.96,174.655C5073.37,175.03 5072.77,175.385 5072.18,175.758C5071.68,176.077 5071.19,176.408 5070.77,176.86C5070.54,177.11 5070.34,177.401 5070.21,177.741C5070.1,178.038 5070.04,178.359 5070.02,178.683C5070.01,178.881 5070.01,179.079 5070.01,179.277C5070.02,179.484 5070.04,179.687 5070.09,179.886C5070.23,180.461 5070.55,180.963 5070.88,181.397C5071.15,181.744 5071.44,182.06 5071.75,182.358C5072.14,182.743 5072.56,183.096 5072.98,183.43C5073.37,183.732 5073.77,184.018 5074.17,184.291C5074.69,184.647 5075.22,184.984 5075.76,185.306C5076.47,185.73 5077.19,186.13 5077.91,186.514C5078.82,186.997 5079.74,187.455 5080.66,187.898C5081.85,188.471 5083.05,189.023 5084.25,189.596C5084.53,189.733 5084.8,189.872 5085.08,190.007C5087.88,191.329 5090.81,192.229 5093.72,193.081C5095.6,193.621 5097.48,194.14 5099.35,194.68C5101.51,195.309 5103.66,195.967 5105.78,196.766C5107.29,197.335 5108.79,197.973 5110.24,198.733C5112.55,199.944 5114.78,201.477 5116.61,203.574C5117.13,204.167 5117.61,204.804 5118.07,205.459C5118.79,206.476 5119.45,207.55 5120.05,208.668C5122.4,213.044 5123.85,218.05 5124.67,223.143C5124.82,224.02 5124.94,224.901 5125.04,225.785C5125.38,228.608 5125.55,231.46 5125.57,234.311C5125.6,236.716 5125.52,239.122 5125.34,241.517C5125.21,243.259 5125.03,244.996 5124.78,246.719C5124.6,247.931 5124.4,249.144 5124.11,250.325C5123.95,250.956 5123.77,251.577 5123.58,252.195C5123.23,253.357 5122.85,254.504 5122.43,255.632C5121.52,258.056 5120.46,260.391 5119.24,262.608C5117.93,264.996 5116.44,267.242 5114.81,269.326C5114.13,270.198 5113.42,271.042 5112.69,271.857C5107.77,277.345 5101.9,281.467 5095.74,284.588C5090.7,287.139 5085.44,289.044 5080.11,290.517C5074.01,292.206 5067.8,293.33 5061.57,294.087C5059.15,294.382 5056.72,294.621 5054.29,294.811C5052.91,294.919 5051.53,295 5050.15,295.095C5049.75,295.125 5049.34,295.157 5048.94,295.191C5048.03,295.272 5047.13,295.365 5046.23,295.479C5040.44,296.215 5034.63,297.721 5029.38,300.833C5027.98,301.659 5026.64,302.595 5025.34,303.623C5023.92,304.752 5022.55,305.987 5021.2,307.239C5021.07,307.365 5020.94,307.492 5020.81,307.621C5020.41,308.019 5020.03,308.432 5019.66,308.866C5018.67,310.019 5017.8,311.295 5017.01,312.644C5016.07,314.256 5015.25,315.976 5014.55,317.755C5013.15,321.321 5012.18,325.133 5011.61,329.015C5011.12,332.308 5010.92,335.676 5011.11,339.015C5011.16,339.93 5011.24,340.842 5011.35,341.748C5011.43,342.415 5011.54,343.078 5011.66,343.735C5011.77,344.302 5011.89,344.864 5012.03,345.421C5012.14,345.836 5012.25,346.248 5012.38,346.656C5013.08,348.93 5014.16,351.125 5015.77,352.635C5016,352.846 5016.23,353.042 5016.47,353.222C5017.25,353.797 5018.12,354.185 5019,354.46C5020.78,355.013 5022.63,355.094 5024.46,354.985L5024.6,354.975C5024.74,354.777 5024.89,354.581 5025.04,354.386C5025.15,354.235 5025.27,354.086 5025.39,353.936C5025.93,353.259 5026.49,352.596 5027.06,351.955C5028.4,350.457 5029.82,349.062 5031.28,347.736C5033.32,345.883 5035.45,344.168 5037.61,342.514C5038.96,341.477 5040.32,340.464 5041.69,339.458C5042.65,338.756 5043.6,338.051 5044.57,337.38C5046.07,336.339 5047.61,335.365 5049.19,334.511C5050.37,333.879 5051.57,333.31 5052.79,332.844C5054.8,332.082 5056.91,331.571 5059.03,331.68C5059.95,331.727 5060.87,331.899 5061.76,332.224C5062.12,332.357 5062.46,332.545 5062.77,332.804C5062.99,332.986 5063.19,333.203 5063.35,333.451C5063.48,333.633 5063.58,333.831 5063.66,334.04C5063.73,334.21 5063.79,334.388 5063.83,334.57C5064.08,335.636 5063.87,336.767 5063.51,337.757C5063.44,337.939 5063.37,338.118 5063.29,338.294C5063.19,338.529 5063.08,338.76 5062.97,338.985C5062.82,339.265 5062.67,339.538 5062.51,339.804C5062.26,340.212 5062,340.605 5061.72,340.981C5061.38,341.432 5061.02,341.864 5060.63,342.245C5060.41,342.463 5060.17,342.663 5059.93,342.863C5059.59,343.155 5059.24,343.439 5058.89,343.715C5057.73,344.624 5056.52,345.448 5055.29,346.21C5053.55,347.284 5051.76,348.234 5049.95,349.113C5047.66,350.227 5045.33,351.228 5042.99,352.212C5041.75,352.736 5040.5,353.262 5039.25,353.771C5037.23,354.596 5035.18,355.362 5033.11,356.009C5030.73,356.752 5028.31,357.336 5025.86,357.627L5025.73,357.643C5024.68,359.18 5023.73,360.813 5022.81,362.466C5022.19,363.592 5021.58,364.723 5020.96,365.848C5020.08,367.42 5019.18,368.976 5018.17,370.436C5017.05,372.066 5015.8,373.575 5014.36,374.809C5013.84,375.259 5013.3,375.683 5012.73,376.042C5011.87,376.582 5010.95,376.988 5010.03,377.35C5008.71,377.873 5007.35,378.297 5005.99,378.668C5003.85,379.254 5001.67,379.707 4999.48,380.019C4997.69,380.275 4995.89,380.446 4994.08,380.407C4993.47,380.394 4992.86,380.355 4992.25,380.27C4991.88,380.219 4991.52,380.146 4991.15,380.074C4990.58,379.96 4990.01,379.833 4989.44,379.695C4988.62,379.495 4987.79,379.272 4986.98,379.007C4986.34,378.798 4985.7,378.564 4985.08,378.277C4984.9,378.196 4984.73,378.11 4984.56,378.018C4984.42,377.944 4984.28,377.866 4984.14,377.783C4983.5,377.39 4982.85,376.861 4982.54,376.054C4982.49,375.933 4982.45,375.808 4982.42,375.679C4982.39,375.51 4982.37,375.34 4982.36,375.166L4982.39,374.834C4982.42,374.729 4982.44,374.619 4982.48,374.519C4982.6,374.218 4982.82,373.976 4983.07,373.848C4983.16,373.805 4983.25,373.775 4983.34,373.759C4983.81,373.673 4984.28,373.951 4984.52,374.445C4984.62,374.669 4984.62,374.698 4984.64,374.894C4984.68,374.937 4984.72,374.974 4984.76,375.011C4984.95,375.175 4985.15,375.306 4985.36,375.425C4985.64,375.58 4985.93,375.713 4986.21,375.835C4987.02,376.177 4987.84,376.438 4988.67,376.67C4989.47,376.893 4990.28,377.085 4991.08,377.256C4991.68,377.383 4992.28,377.508 4992.88,377.571C4993.6,377.646 4994.32,377.66 4995.04,377.644C4995.83,377.627 4996.62,377.574 4997.4,377.496C4999.51,377.288 5001.61,376.917 5003.68,376.431C5005.18,376.08 5006.67,375.668 5008.14,375.159C5008.71,374.96 5009.28,374.746 5009.85,374.507C5010.38,374.284 5010.9,374.041 5011.4,373.75C5011.84,373.499 5012.25,373.196 5012.65,372.873C5013.23,372.406 5013.78,371.886 5014.3,371.327C5015.22,370.346 5016.03,369.247 5016.79,368.094C5017.73,366.67 5018.57,365.165 5019.41,363.651C5019.9,362.748 5020.4,361.841 5020.89,360.938C5021.15,360.479 5021.41,360.022 5021.67,359.566C5022,358.992 5022.33,358.422 5022.67,357.858L5022.72,357.786C5022.5,357.783 5022.27,357.772 5022.05,357.761C5021.84,357.748 5021.64,357.733 5021.43,357.715C5019.65,357.542 5017.87,357.121 5016.25,356.211C5015.72,355.914 5015.22,355.559 5014.74,355.154C5014.39,354.862 5014.06,354.542 5013.75,354.201C5011.9,352.184 5010.69,349.455 5009.93,346.627C5009.81,346.152 5009.69,345.673 5009.59,345.19C5009.45,344.553 5009.33,343.911 5009.23,343.264C5009.1,342.451 5009,341.631 5008.93,340.809C5008.74,338.772 5008.7,336.718 5008.77,334.671C5008.84,332.781 5009.01,330.895 5009.27,329.028C5009.59,326.71 5010.05,324.418 5010.64,322.178C5011.21,320.029 5011.91,317.925 5012.74,315.903C5014.16,312.461 5015.99,309.216 5018.32,306.569C5018.79,306.039 5019.28,305.538 5019.79,305.06C5020.26,304.625 5020.73,304.196 5021.2,303.767C5021.75,303.274 5022.3,302.785 5022.86,302.311C5023.58,301.707 5024.31,301.125 5025.05,300.569C5026.71,299.32 5028.46,298.23 5030.27,297.302C5035.13,294.799 5040.37,293.479 5045.61,292.782C5046.94,292.606 5048.27,292.47 5049.6,292.368C5050.57,292.294 5051.54,292.24 5052.51,292.175C5053.05,292.136 5053.6,292.096 5054.14,292.054C5057.85,291.756 5061.55,291.362 5065.23,290.814C5070.53,290.028 5075.8,288.946 5080.99,287.43C5085.71,286.051 5090.36,284.31 5094.84,282.043C5100.5,279.18 5105.9,275.452 5110.49,270.528C5111.19,269.769 5111.88,268.983 5112.55,268.17C5114.25,266.077 5115.8,263.802 5117.16,261.369C5118.32,259.291 5119.34,257.097 5120.21,254.82C5120.61,253.759 5120.98,252.68 5121.32,251.587C5121.45,251.143 5121.59,250.697 5121.71,250.248C5121.78,250.015 5121.84,249.782 5121.9,249.546C5122.01,249.114 5122.1,248.676 5122.18,248.237C5122.3,247.577 5122.41,246.912 5122.51,246.245C5122.75,244.597 5122.92,242.936 5123.04,241.27C5123.22,238.967 5123.29,236.652 5123.27,234.34C5123.25,231.61 5123.09,228.881 5122.77,226.178C5122.65,225.198 5122.51,224.221 5122.35,223.249C5121.58,218.719 5120.29,214.263 5118.21,210.346C5117.64,209.263 5117.01,208.224 5116.32,207.244C5115.86,206.598 5115.38,205.97 5114.86,205.396C5113.92,204.35 5112.86,203.469 5111.74,202.709C5110.35,201.765 5108.89,201.001 5107.39,200.338C5105.32,199.418 5103.19,198.691 5101.05,198.03C5098.62,197.282 5096.18,196.622 5093.74,195.927C5093.19,195.766 5092.63,195.604 5092.07,195.439C5090.1,194.846 5088.13,194.219 5086.21,193.439C5085.62,193.203 5085.05,192.954 5084.47,192.687C5083.97,192.451 5083.47,192.199 5082.97,191.958C5081.91,191.458 5080.86,190.966 5079.8,190.461C5078.75,189.951 5077.69,189.427 5076.66,188.868C5075.8,188.404 5074.94,187.917 5074.1,187.392C5073.19,186.824 5072.3,186.213 5071.45,185.525C5070.76,184.966 5070.1,184.354 5069.5,183.652C5068.76,182.777 5068.1,181.728 5067.84,180.501C5067.77,180.148 5067.73,179.787 5067.72,179.424C5067.7,179.044 5067.7,178.662 5067.74,178.284C5067.79,177.647 5067.94,177.022 5068.17,176.447C5068.45,175.777 5068.85,175.197 5069.32,174.71C5069.86,174.154 5070.47,173.72 5071.09,173.321C5071.61,172.992 5072.13,172.684 5072.65,172.361C5072.87,172.22 5073.09,172.076 5073.31,171.928C5073.64,171.7 5073.97,171.463 5074.29,171.203C5074.79,170.785 5075.27,170.315 5075.7,169.784C5076.54,168.739 5077.17,167.477 5077.6,166.123C5077.9,165.174 5078.11,164.189 5078.27,163.191L5078.35,162.874C5078.4,162.779 5078.44,162.677 5078.49,162.59C5078.67,162.327 5078.92,162.147 5079.2,162.089C5079.29,162.069 5079.38,162.077 5079.47,162.071C5079.56,162.091 5079.65,162.112 5079.74,162.133ZM4984.66,375.081C4984.66,375.04 4984.66,375.041 4984.65,375L4984.65,374.983C4984.66,375.016 4984.66,375.049 4984.66,375.081ZM5059.72,334.518C5057.67,334.227 5055.59,334.695 5053.64,335.422C5052.54,335.83 5051.47,336.326 5050.42,336.879C5048.49,337.895 5046.65,339.106 5044.84,340.392C5044.19,340.861 5043.54,341.337 5042.89,341.813C5040.37,343.671 5037.86,345.547 5035.42,347.564C5032.88,349.662 5030.43,351.914 5028.2,354.466C5028.5,354.406 5028.79,354.341 5029.09,354.274C5031.43,353.73 5033.74,352.984 5036.01,352.132C5037.7,351.5 5039.38,350.806 5041.05,350.103C5041.84,349.77 5042.63,349.438 5043.42,349.102C5046.22,347.911 5049,346.676 5051.71,345.212C5053.66,344.156 5055.58,342.98 5057.38,341.594C5057.96,341.153 5058.52,340.689 5059.07,340.205C5059.13,340.149 5059.19,340.092 5059.25,340.034C5059.74,339.526 5060.18,338.935 5060.57,338.309C5060.89,337.793 5061.18,337.243 5061.4,336.651C5061.51,336.332 5061.61,335.988 5061.64,335.637C5061.65,335.485 5061.64,335.306 5061.56,335.181C5061.52,335.121 5061.47,335.074 5061.41,335.035C5061.31,334.959 5061.19,334.906 5061.07,334.863C5060.75,334.746 5060.43,334.657 5060.1,334.586C5059.97,334.561 5059.84,334.538 5059.72,334.518Z" style="fill:white;fill-rule:nonzero;"/>
                </g>
                <g transform="matrix(0.814584,0,0,0.050727,-3243.98,24.6783)">
                    <path d="M4703.69,172.462C4703.81,172.504 4703.92,172.556 4704.04,172.665C4704.33,172.951 4704.56,173.508 4704.66,174.178C4704.7,174.434 4704.71,174.684 4704.72,174.951L4704.72,253.72C4704.71,253.987 4704.7,254.237 4704.66,254.493C4704.55,255.249 4704.27,255.855 4703.92,256.1C4703.81,256.183 4703.69,256.208 4703.57,256.222L4667.4,256.222C4667.27,256.208 4667.16,256.183 4667.04,256.1C4666.69,255.855 4666.41,255.249 4666.3,254.493C4666.26,254.237 4666.25,253.987 4666.24,253.72L4666.24,174.951C4666.25,174.684 4666.26,174.434 4666.3,174.178C4666.41,173.423 4666.69,172.817 4667.04,172.571C4667.16,172.488 4667.27,172.463 4667.4,172.449L4703.57,172.449C4703.61,172.453 4703.65,172.458 4703.69,172.462ZM4668.55,177.453L4668.55,251.218L4702.42,251.218L4702.42,177.453C4691.13,177.453 4679.84,177.453 4668.55,177.453Z" style="fill:white;fill-rule:nonzero;"/>
                </g>
                <g transform="matrix(0.814584,0,0,0.0836285,-3206.54,18.9557)">
                    <path d="M4703.73,173.449C4703.88,173.489 4703.91,173.49 4704.05,173.57C4704.35,173.752 4704.58,174.104 4704.67,174.523C4704.71,174.709 4704.71,174.76 4704.72,174.951L4704.72,253.72C4704.71,253.911 4704.71,253.962 4704.67,254.148C4704.56,254.639 4704.27,255.032 4703.89,255.176C4703.75,255.231 4703.71,255.224 4703.57,255.238L4667.4,255.238C4667.25,255.224 4667.21,255.231 4667.07,255.176C4666.7,255.032 4666.4,254.639 4666.29,254.148C4666.25,253.962 4666.26,253.911 4666.24,253.72L4666.24,174.951C4666.26,174.76 4666.25,174.709 4666.29,174.523C4666.4,174.032 4666.7,173.639 4667.07,173.495C4667.21,173.44 4667.25,173.447 4667.4,173.433L4703.57,173.433C4703.62,173.438 4703.68,173.444 4703.73,173.449ZM4668.55,176.469L4668.55,252.202L4702.42,252.202L4702.42,176.469C4691.13,176.469 4679.84,176.469 4668.55,176.469Z" style="fill:white;fill-rule:nonzero;"/>
                </g>
                <g transform="matrix(0.814584,0,0,0.0171486,-3243.49,37.0086)">
                    <path d="M4703.69,167.589C4703.81,167.713 4703.92,167.865 4704.04,168.189C4704.33,169.036 4704.56,170.684 4704.66,172.664C4704.7,173.421 4704.71,174.162 4704.72,174.951L4704.72,253.72C4704.71,254.509 4704.7,255.25 4704.66,256.008C4704.55,258.242 4704.27,260.034 4703.92,260.76C4703.81,261.006 4703.69,261.081 4703.57,261.122L4667.4,261.122C4667.27,261.081 4667.16,261.006 4667.04,260.76C4666.69,260.034 4666.41,258.242 4666.3,256.008C4666.26,255.25 4666.25,254.509 4666.24,253.72L4666.24,174.951C4666.25,174.162 4666.26,173.421 4666.3,172.664C4666.41,170.429 4666.69,168.637 4667.04,167.911C4667.16,167.665 4667.27,167.59 4667.4,167.549L4703.57,167.549C4703.61,167.562 4703.65,167.576 4703.69,167.589ZM4668.55,182.353L4668.55,246.318L4702.42,246.318L4702.42,182.353C4691.13,182.353 4679.84,182.353 4668.55,182.353Z" style="fill:white;fill-rule:nonzero;"/>
                </g>
                <g transform="matrix(0.714203,0,0,0.110294,-2782.41,12.5774)">
                    <path d="M4780.04,173.821C4780.13,173.85 4780.23,173.869 4780.32,173.906C4780.49,173.981 4780.65,174.091 4780.77,174.226C4781.08,174.568 4781.15,175.048 4780.93,175.443C4780.89,175.52 4780.83,175.594 4780.77,175.661C4780.71,175.728 4780.64,175.79 4780.57,175.843C4780.41,175.951 4780.23,176.027 4780.04,176.065C4779.94,176.085 4779.84,176.085 4779.75,176.094L4589.76,176.094C4589.66,176.085 4589.56,176.085 4589.46,176.065C4589.27,176.027 4589.09,175.951 4588.94,175.843C4588.78,175.735 4588.66,175.599 4588.57,175.443C4588.36,175.048 4588.42,174.568 4588.73,174.226C4588.79,174.159 4588.86,174.097 4588.94,174.044C4589.09,173.936 4589.27,173.86 4589.46,173.821C4589.56,173.802 4589.66,173.802 4589.76,173.793L4779.75,173.793C4779.84,173.802 4779.94,173.812 4780.04,173.821Z" style="fill:white;fill-rule:nonzero;"/>
                </g>
                <g transform="matrix(0.814584,0,0,0.110294,-3243.14,12.5774)">
                    <path d="M4656.85,237.805C4656.9,237.816 4656.96,237.823 4657.01,237.837C4657.21,237.894 4657.4,238.006 4657.54,238.16C4657.65,238.275 4657.73,238.412 4657.78,238.56C4657.92,238.961 4657.83,239.42 4657.54,239.731C4657.47,239.808 4657.39,239.874 4657.3,239.929C4657.16,240.01 4657.01,240.064 4656.85,240.086C4656.8,240.093 4656.75,240.093 4656.7,240.096L4600.85,240.096C4600.71,240.087 4600.67,240.091 4600.54,240.054C4600.33,239.997 4600.15,239.884 4600.01,239.731C4599.93,239.654 4599.87,239.568 4599.82,239.475C4599.63,239.097 4599.66,238.629 4599.91,238.282C4600,238.153 4600.11,238.044 4600.25,237.962C4600.38,237.88 4600.53,237.827 4600.69,237.805C4600.74,237.798 4600.79,237.798 4600.85,237.794L4656.7,237.794C4656.75,237.798 4656.8,237.802 4656.85,237.805Z" style="fill:white;fill-rule:nonzero;"/>
                </g>
                <g transform="matrix(0.509967,0,0,0.110294,-1787.77,12.1022)">
                    <path d="M4656.9,237.801C4656.96,237.808 4657.03,237.812 4657.09,237.821C4657.35,237.857 4657.6,237.928 4657.81,238.029C4657.97,238.105 4658.11,238.196 4658.22,238.3C4658.33,238.403 4658.41,238.517 4658.47,238.637C4658.65,239.044 4658.45,239.491 4657.96,239.781C4657.72,239.924 4657.42,240.025 4657.09,240.069C4656.92,240.093 4656.87,240.09 4656.7,240.096L4600.85,240.096C4600.67,240.09 4600.62,240.093 4600.45,240.069C4600.13,240.025 4599.82,239.924 4599.58,239.781C4599.04,239.46 4598.86,238.952 4599.14,238.519C4599.21,238.404 4599.32,238.295 4599.44,238.2C4599.57,238.105 4599.73,238.024 4599.9,237.959C4600.13,237.873 4600.38,237.819 4600.65,237.801C4600.71,237.797 4600.78,237.797 4600.85,237.794L4656.7,237.794C4656.76,237.797 4656.83,237.799 4656.9,237.801Z" style="fill:white;fill-rule:nonzero;"/>
                </g>
                <g transform="matrix(0.814584,0,0,0.110294,-3243.15,13.2869)">
                    <path d="M4656.85,237.805C4656.9,237.816 4656.96,237.823 4657.01,237.837C4657.21,237.894 4657.4,238.006 4657.54,238.16C4657.61,238.237 4657.67,238.323 4657.72,238.416C4657.91,238.794 4657.88,239.261 4657.64,239.609C4657.55,239.738 4657.43,239.847 4657.3,239.929C4657.16,240.01 4657.01,240.064 4656.85,240.086C4656.8,240.093 4656.75,240.093 4656.7,240.096L4600.85,240.096C4600.71,240.087 4600.67,240.091 4600.54,240.054C4600.33,239.997 4600.15,239.884 4600.01,239.731C4599.93,239.654 4599.87,239.568 4599.82,239.475C4599.63,239.097 4599.66,238.629 4599.91,238.282C4600,238.153 4600.11,238.044 4600.25,237.962C4600.38,237.88 4600.53,237.827 4600.69,237.805C4600.74,237.798 4600.79,237.798 4600.85,237.794L4656.7,237.794C4656.75,237.798 4656.8,237.802 4656.85,237.805Z" style="fill:white;fill-rule:nonzero;"/>
                </g>
                <g transform="matrix(0.509967,0,0,0.110294,-1787.78,12.8117)">
                    <path d="M4656.9,237.801C4657.07,237.819 4657.12,237.819 4657.28,237.855C4657.6,237.921 4657.88,238.042 4658.1,238.2C4658.23,238.295 4658.33,238.404 4658.4,238.519C4658.48,238.635 4658.52,238.759 4658.53,238.883C4658.57,239.304 4658.22,239.714 4657.65,239.932C4657.42,240.017 4657.16,240.072 4656.9,240.09C4656.83,240.094 4656.76,240.094 4656.7,240.096L4600.85,240.096C4600.67,240.09 4600.62,240.093 4600.45,240.069C4600.13,240.025 4599.82,239.924 4599.58,239.781C4599.04,239.46 4598.86,238.952 4599.14,238.519C4599.21,238.404 4599.32,238.295 4599.44,238.2C4599.57,238.105 4599.73,238.024 4599.9,237.959C4600.13,237.873 4600.38,237.819 4600.65,237.801C4600.71,237.797 4600.78,237.797 4600.85,237.794L4656.7,237.794C4656.76,237.797 4656.83,237.799 4656.9,237.801Z" style="fill:white;fill-rule:nonzero;"/>
                </g>
                <g transform="matrix(0.814584,0,0,0.110294,-3243.15,13.9964)">
                    <path d="M4656.85,237.805C4656.9,237.816 4656.96,237.823 4657.01,237.837C4657.21,237.894 4657.4,238.006 4657.54,238.16C4657.61,238.237 4657.67,238.323 4657.72,238.416C4657.91,238.794 4657.88,239.261 4657.64,239.609C4657.55,239.738 4657.43,239.847 4657.3,239.929C4657.16,240.01 4657.01,240.064 4656.85,240.086C4656.8,240.093 4656.75,240.093 4656.7,240.096L4600.85,240.096C4600.71,240.087 4600.67,240.091 4600.54,240.054C4600.33,239.997 4600.15,239.884 4600.01,239.731C4599.93,239.654 4599.87,239.568 4599.82,239.475C4599.63,239.097 4599.66,238.629 4599.91,238.282C4600,238.153 4600.11,238.044 4600.25,237.962C4600.38,237.88 4600.53,237.827 4600.69,237.805C4600.74,237.798 4600.79,237.798 4600.85,237.794L4656.7,237.794C4656.75,237.798 4656.8,237.802 4656.85,237.805Z" style="fill:white;fill-rule:nonzero;"/>
                </g>
                <g transform="matrix(0.814584,0,0,0.814584,246.604,12.5774)">
                    <g transform="matrix(1,0,0,0.103005,-4291.8,9.54265)">
                        <path d="M4664.4,294.586L4664.4,312.794" style="fill:none;"/>
                    </g>
                    <g transform="matrix(1,0,0,0.103005,-4236.11,9.53796)">
                        <path d="M4664.4,294.586L4664.4,312.794" style="fill:none;"/>
                    </g>
                </g>
                <g transform="matrix(0.814584,0,0,0.110294,-3351.48,6.96378)">
                    <path d="M5002.7,201.29C5002.76,201.301 5002.81,201.308 5002.87,201.322C5003.03,201.366 5003.18,201.441 5003.32,201.543C5003.4,201.611 5003.48,201.69 5003.55,201.779C5003.83,202.138 5003.89,202.629 5003.72,203.047C5003.65,203.202 5003.56,203.343 5003.44,203.462C5003.28,203.62 5003.08,203.735 5002.87,203.793C5002.72,203.831 5002.68,203.827 5002.54,203.836L4987.19,203.836C4987.14,203.833 4987.08,203.833 4987.02,203.825C4986.86,203.803 4986.7,203.749 4986.55,203.665C4986.45,203.609 4986.37,203.541 4986.29,203.462C4985.93,203.1 4985.81,202.541 4986.01,202.068C4986.07,201.913 4986.17,201.772 4986.29,201.653C4986.44,201.495 4986.64,201.38 4986.86,201.322C4987,201.284 4987.04,201.288 4987.19,201.279L5002.54,201.279C5002.59,201.282 5002.65,201.286 5002.7,201.29ZM5028.28,201.29C5028.33,201.301 5028.39,201.308 5028.44,201.322C5028.61,201.366 5028.76,201.441 5028.89,201.543C5028.98,201.611 5029.06,201.69 5029.13,201.779C5029.4,202.138 5029.47,202.629 5029.29,203.047C5029.23,203.202 5029.14,203.343 5029.02,203.462C5028.86,203.62 5028.66,203.735 5028.44,203.793C5028.3,203.831 5028.26,203.827 5028.11,203.836L5012.77,203.836C5012.62,203.827 5012.58,203.831 5012.44,203.793C5012.22,203.735 5012.02,203.62 5011.86,203.462C5011.5,203.1 5011.39,202.541 5011.59,202.068C5011.63,201.965 5011.68,201.868 5011.75,201.779C5011.85,201.646 5011.98,201.534 5012.13,201.45C5012.27,201.366 5012.43,201.311 5012.6,201.29C5012.65,201.282 5012.71,201.282 5012.77,201.279L5028.11,201.279C5028.17,201.282 5028.22,201.286 5028.28,201.29ZM5043.36,201.29C5043.5,201.319 5043.54,201.319 5043.68,201.376C5043.89,201.462 5044.07,201.602 5044.2,201.779C5044.31,201.912 5044.38,202.065 5044.43,202.226C5044.45,202.334 5044.47,202.446 5044.47,202.557C5044.47,203.01 5044.22,203.439 5043.83,203.665C5043.68,203.749 5043.52,203.803 5043.36,203.825C5043.3,203.833 5043.24,203.833 5043.19,203.836L5038.34,203.836C5038.19,203.827 5038.15,203.831 5038.01,203.793C5037.8,203.735 5037.6,203.62 5037.44,203.462C5037.36,203.383 5037.29,203.294 5037.23,203.197C5036.98,202.754 5037.02,202.185 5037.33,201.779C5037.43,201.646 5037.56,201.534 5037.7,201.45C5037.85,201.366 5038.01,201.311 5038.18,201.29C5038.23,201.282 5038.29,201.282 5038.34,201.279L5043.19,201.279C5043.24,201.282 5043.3,201.286 5043.36,201.29Z" style="fill:white;fill-rule:nonzero;"/>
                </g>
                <g transform="matrix(0.814584,0,0,0.110294,-3341.23,8.72501)">
                    <path d="M5002.7,201.29C5002.85,201.319 5002.89,201.319 5003.03,201.376C5003.23,201.462 5003.41,201.602 5003.55,201.779C5003.83,202.138 5003.89,202.629 5003.72,203.047C5003.68,203.15 5003.62,203.247 5003.55,203.336C5003.45,203.469 5003.32,203.581 5003.18,203.665C5003.03,203.749 5002.87,203.803 5002.7,203.825C5002.65,203.833 5002.59,203.833 5002.54,203.836L4987.19,203.836C4987.04,203.827 4987.01,203.831 4986.86,203.793C4986.65,203.735 4986.44,203.62 4986.29,203.462C4986.17,203.343 4986.07,203.202 4986.01,203.047C4985.81,202.574 4985.93,202.015 4986.29,201.653C4986.37,201.574 4986.45,201.506 4986.55,201.45C4986.7,201.366 4986.86,201.311 4987.03,201.29C4987.08,201.282 4987.14,201.282 4987.19,201.279L5002.54,201.279C5002.59,201.282 5002.65,201.286 5002.7,201.29ZM5028.28,201.29C5028.33,201.301 5028.39,201.308 5028.44,201.322C5028.61,201.366 5028.76,201.441 5028.89,201.543C5028.98,201.611 5029.06,201.69 5029.13,201.779C5029.4,202.138 5029.47,202.629 5029.29,203.047C5029.23,203.202 5029.14,203.343 5029.02,203.462C5028.86,203.62 5028.66,203.735 5028.44,203.793C5028.3,203.831 5028.26,203.827 5028.11,203.836L5012.77,203.836C5012.71,203.833 5012.65,203.833 5012.6,203.825C5012.43,203.803 5012.27,203.749 5012.13,203.665C5011.98,203.581 5011.85,203.469 5011.75,203.336C5011.44,202.93 5011.4,202.361 5011.66,201.918C5011.72,201.821 5011.78,201.732 5011.86,201.653C5012.02,201.495 5012.22,201.38 5012.44,201.322C5012.58,201.284 5012.62,201.288 5012.77,201.279L5028.11,201.279C5028.17,201.282 5028.22,201.286 5028.28,201.29ZM5043.36,201.29C5043.41,201.301 5043.47,201.308 5043.52,201.322C5043.68,201.366 5043.84,201.441 5043.97,201.543C5044.06,201.611 5044.14,201.69 5044.2,201.779C5044.48,202.138 5044.54,202.629 5044.37,203.047C5044.31,203.202 5044.21,203.343 5044.09,203.462C5043.94,203.62 5043.74,203.735 5043.52,203.793C5043.38,203.831 5043.34,203.827 5043.19,203.836L5038.34,203.836C5038.19,203.827 5038.16,203.831 5038.01,203.793C5037.8,203.735 5037.6,203.62 5037.44,203.462C5037.32,203.343 5037.23,203.202 5037.16,203.047C5036.97,202.574 5037.08,202.015 5037.44,201.653C5037.52,201.574 5037.61,201.506 5037.7,201.45C5037.85,201.366 5038.01,201.311 5038.18,201.29C5038.23,201.282 5038.29,201.282 5038.34,201.279L5043.19,201.279C5043.24,201.282 5043.3,201.286 5043.36,201.29Z" style="fill:white;fill-rule:nonzero;"/>
                </g>
                <g transform="matrix(0.814584,0,0,0.110294,-3274.14,21.8493)">
                    <path d="M5002.7,201.29C5002.76,201.301 5002.81,201.308 5002.87,201.322C5003.03,201.366 5003.18,201.441 5003.32,201.543C5003.45,201.645 5003.56,201.773 5003.64,201.918C5003.87,202.31 5003.87,202.805 5003.64,203.197C5003.59,203.294 5003.52,203.383 5003.44,203.462C5003.28,203.62 5003.08,203.735 5002.87,203.793C5002.72,203.831 5002.69,203.827 5002.54,203.836L4987.19,203.836C4987.14,203.833 4987.08,203.833 4987.03,203.825C4986.86,203.803 4986.7,203.749 4986.55,203.665C4986.41,203.581 4986.28,203.469 4986.18,203.336C4986.11,203.247 4986.05,203.15 4986.01,203.047C4985.81,202.574 4985.93,202.015 4986.29,201.653C4986.44,201.495 4986.65,201.38 4986.86,201.322C4987.01,201.284 4987.04,201.288 4987.19,201.279L5002.54,201.279C5002.59,201.282 5002.65,201.286 5002.7,201.29ZM5028.28,201.29C5028.33,201.301 5028.39,201.308 5028.44,201.322C5028.61,201.366 5028.76,201.441 5028.89,201.543C5028.98,201.611 5029.06,201.69 5029.13,201.779C5029.4,202.138 5029.47,202.629 5029.29,203.047C5029.23,203.202 5029.14,203.343 5029.02,203.462C5028.86,203.62 5028.66,203.735 5028.44,203.793C5028.3,203.831 5028.26,203.827 5028.11,203.836L5012.77,203.836C5012.71,203.833 5012.65,203.833 5012.6,203.825C5012.43,203.803 5012.27,203.749 5012.13,203.665C5011.98,203.581 5011.85,203.469 5011.75,203.336C5011.44,202.93 5011.4,202.361 5011.66,201.918C5011.72,201.821 5011.78,201.732 5011.86,201.653C5012.02,201.495 5012.22,201.38 5012.44,201.322C5012.58,201.284 5012.62,201.288 5012.77,201.279L5028.11,201.279C5028.17,201.282 5028.22,201.286 5028.28,201.29ZM5043.36,201.29C5043.41,201.301 5043.47,201.308 5043.52,201.322C5043.68,201.366 5043.84,201.441 5043.97,201.543C5044.06,201.611 5044.14,201.69 5044.2,201.779C5044.48,202.138 5044.54,202.629 5044.37,203.047C5044.31,203.202 5044.21,203.343 5044.09,203.462C5043.94,203.62 5043.74,203.735 5043.52,203.793C5043.38,203.831 5043.34,203.827 5043.19,203.836L5038.34,203.836C5038.29,203.833 5038.23,203.833 5038.18,203.825C5038.01,203.803 5037.85,203.749 5037.7,203.665C5037.56,203.581 5037.43,203.469 5037.33,203.336C5037.26,203.247 5037.2,203.15 5037.16,203.047C5036.97,202.574 5037.08,202.015 5037.44,201.653C5037.6,201.495 5037.8,201.38 5038.01,201.322C5038.15,201.284 5038.19,201.288 5038.34,201.279L5043.19,201.279C5043.24,201.282 5043.3,201.286 5043.36,201.29Z" style="fill:white;fill-rule:nonzero;"/>
                </g>
                <g transform="matrix(0.769549,-0.0361649,1.97269,0.769549,118.208,33.403)">
                    <g>
                        <g transform="matrix(1.01687,0,0,0.14019,-4337.98,-1.92825)">
                            <path d="M4949.56,175.018C4949.56,166.77 4942.74,160.073 4934.34,160.073L4837.15,160.073C4828.75,160.073 4821.93,166.77 4821.93,175.018L4821.93,373.129C4821.93,381.378 4828.75,388.075 4837.15,388.075L4934.34,388.075C4942.74,388.075 4949.56,381.378 4949.56,373.129L4949.56,175.018Z" style="fill:white;stroke:rgb(98,105,213);stroke-width:2.99px;"/>
                        </g>
                        <g transform="matrix(0.96984,0,0,0.124259,-4155.59,3.98753)">
                            <rect x="4881.43" y="155.647" width="106.325" height="194.08" style="fill:rgb(98,105,213);stroke:white;stroke-width:3.25px;"/>
                        </g>
                        <g transform="matrix(0.931764,0,0,0.133272,-3922.19,-0.0670909)">
                            <path d="M4949.56,169.102C4949.56,164.119 4945.29,160.073 4940.02,160.073L4831.47,160.073C4826.21,160.073 4821.93,164.119 4821.93,169.102L4821.93,379.045C4821.93,384.029 4826.21,388.075 4831.47,388.075L4940.02,388.075C4945.29,388.075 4949.56,384.029 4949.56,379.045L4949.56,169.102Z" style="fill:none;stroke:rgb(98,105,213);stroke-width:2.13px;stroke-dasharray:12.81,14.94,0,0;"/>
                        </g>
                        <g>
                            <g transform="matrix(1.81428,0,-3.45214e-18,0.0621881,-8278.17,13.1941)">
                                <rect x="4886.42" y="188.944" width="48.243" height="35.447" style="fill:white;fill-opacity:0.121569;"/>
                            </g>
                            <g transform="matrix(0.784162,0,-1.22196e-17,0.220128,-3244.61,-13.5889)">
                                <rect x="4886.42" y="188.944" width="48.243" height="35.447" style="fill:white;fill-opacity:0.121569;"/>
                            </g>
                            <g transform="matrix(0.784162,0,-6.29043e-18,0.113318,-3244.61,15.0485)">
                                <rect x="4886.42" y="188.944" width="48.243" height="35.447" style="fill:white;fill-opacity:0.121569;"/>
                            </g>
                            <g transform="matrix(0.784162,0,-7.10365e-18,0.127968,-3197.1,17.2108)">
                                <rect x="4886.42" y="188.944" width="48.243" height="35.447" style="fill:white;fill-opacity:0.121569;"/>
                            </g>
                            <g transform="matrix(0.784162,0,-1.67844e-18,0.0302361,-3198.54,22.2899)">
                                <rect x="4886.42" y="188.944" width="48.243" height="35.447" style="fill:white;fill-opacity:0.121569;"/>
                            </g>
                            <g transform="matrix(0.784162,0,-1.67844e-18,0.0302361,-3244.61,35.7589)">
                                <rect x="4886.42" y="188.944" width="48.243" height="35.447" style="fill:white;fill-opacity:0.121569;"/>
                            </g>
                            <g transform="matrix(0.784162,0,-8.74835e-19,0.0157596,-3198.08,26.9513)">
                                <rect x="4886.42" y="188.944" width="48.243" height="35.447" style="fill:white;fill-opacity:0.121569;"/>
                            </g>
                            <g transform="matrix(0.784162,0,-8.74835e-19,0.0157596,-3244.15,40.4203)">
                                <rect x="4886.42" y="188.944" width="48.243" height="35.447" style="fill:white;fill-opacity:0.121569;"/>
                            </g>
                            <g transform="matrix(0.784162,0,-8.74835e-19,0.0157596,-3198.08,28.001)">
                                <rect x="4886.42" y="188.944" width="48.243" height="35.447" style="fill:white;fill-opacity:0.121569;"/>
                            </g>
                            <g transform="matrix(0.784162,0,-8.74835e-19,0.0157596,-3244.15,41.47)">
                                <rect x="4886.42" y="188.944" width="48.243" height="35.447" style="fill:white;fill-opacity:0.121569;"/>
                            </g>
                            <g transform="matrix(0.784162,0,-8.74835e-19,0.0157596,-3198.54,29.0507)">
                                <rect x="4886.42" y="188.944" width="48.243" height="35.447" style="fill:white;fill-opacity:0.121569;"/>
                            </g>
                            <g transform="matrix(0.784162,0,-8.74835e-19,0.0157596,-3244.61,42.5197)">
                                <rect x="4886.42" y="188.944" width="48.243" height="35.447" style="fill:white;fill-opacity:0.121569;"/>
                            </g>
                            <g transform="matrix(1,0,-7.51614e-18,0.135399,-4289.39,0.776969)">
                                <path d="M4942.94,258.75C4946.62,251.811 4953.99,251.811 4957.67,255.28C4961.35,258.75 4961.35,265.688 4957.67,272.627C4955.09,277.831 4948.47,283.034 4942.94,286.504C4937.42,283.034 4930.8,277.831 4928.22,272.627C4924.54,265.688 4924.54,258.75 4928.22,255.28C4931.9,251.811 4939.26,251.811 4942.94,258.75Z" style="fill:rgb(78,206,166);"/>
                            </g>
                        </g>
                        <g transform="matrix(1,0,0,1,3.34126,0)">
                            <g transform="matrix(1,0,0,0.135399,-4291.8,-1.69324e-13)">
                                <path d="M4931.36,166.753C4931.36,166.402 4931.07,166.116 4930.72,166.116L4892.91,166.116C4892.56,166.116 4892.27,166.402 4892.27,166.753L4892.27,168.028C4892.27,168.38 4892.56,168.665 4892.91,168.665L4930.72,168.665C4931.07,168.665 4931.36,168.38 4931.36,168.028L4931.36,166.753Z" style="fill:rgb(98,105,213);"/>
                            </g>
                            <g transform="matrix(0.144339,0,0,0.135399,-58.592,-1.69319e-13)">
                                <path d="M4931.36,166.753C4931.36,166.402 4929.38,166.116 4926.94,166.116L4896.69,166.116C4894.25,166.116 4892.27,166.402 4892.27,166.753L4892.27,168.028C4892.27,168.38 4894.25,168.665 4896.69,168.665L4926.94,168.665C4929.38,168.665 4931.36,168.38 4931.36,168.028L4931.36,166.753Z" style="fill:rgb(98,105,213);"/>
                            </g>
                        </g>
                    </g>
                    <g transform="matrix(0.901914,0,0,0.125568,-3813.47,3.91679)">
                        <path d="M4937.31,362.312C4937.31,356.727 4932.65,352.193 4926.91,352.193C4921.17,352.193 4916.51,356.727 4916.51,362.312L4916.51,362.883C4916.51,368.468 4921.17,373.002 4926.91,373.002C4932.65,373.002 4937.31,368.468 4937.31,362.883L4937.31,362.312Z" style="fill:none;stroke:rgb(98,105,213);stroke-width:2.52px;"/>
                    </g>
                </g>
            </g>
        </g>
    </g>
</svg>
